<svg width="450" height="299" viewBox="0 0 450 299" fill="none" xmlns="http://www.w3.org/2000/svg">
<path d="M221.218 43.36V113.418L206.557 104.979V51.727V49.101L204.295 50.4349L179.451 65.0859L178.712 65.5212V66.378V115.713V116.574L179.456 117.008L221.218 141.391V158.549L163.752 125.018V56.7781L221.218 23.5308V40.9392L218.794 43.36H221.218Z" fill="#004834" stroke="white" stroke-width="3"/>
<path d="M227.81 40.9392V23.5308L285.275 56.7781V125.018L227.81 158.549V141.391L269.571 117.008L270.315 116.574V115.713V66.378V65.5212L269.577 65.0859L244.732 50.4349L242.47 49.101V51.727V104.979L227.81 113.418V43.36H230.233L227.81 40.9392Z" fill="#004834" stroke="white" stroke-width="3"/>
<path d="M249.658 227.838L249.957 231.426H261.631C261.631 231.426 265.223 217.074 280.788 212.589C280.788 212.589 261.631 210.496 249.658 227.838Z" fill="#004834"/>
<path d="M265.886 212.144L265.883 212.155L265.879 212.165L262.887 222.328L262.886 222.331L260.538 230.246C260.482 230.334 260.418 230.404 260.358 230.45C260.292 230.499 260.228 230.524 260.134 230.524H249.957C249.879 230.524 249.781 230.488 249.697 230.376C249.622 230.275 249.59 230.154 249.608 230.037L266.302 181.498C266.361 181.4 266.431 181.323 266.497 181.273C266.562 181.224 266.626 181.199 266.72 181.199H281.986C282.08 181.199 282.143 181.224 282.209 181.273C282.275 181.323 282.344 181.4 282.403 181.498L299.097 230.037C299.116 230.159 299.09 230.329 298.968 230.527C298.882 230.666 298.783 230.763 298.704 230.823H294.857H288.87H288.545L288.529 230.763L288.522 230.731L288.512 230.7L286.119 222.63L286.118 222.627L283.125 212.464L283.122 212.454L283.119 212.443L277.789 195.287C277.758 194.863 277.659 194.432 277.566 194.061C277.511 193.84 277.448 193.603 277.384 193.366L277.368 193.307C277.298 193.046 277.226 192.776 277.155 192.491C277.091 192.236 277.025 191.955 276.953 191.652C276.71 190.624 276.406 189.337 275.925 187.895L274.296 183.014L273.047 188.006L272.149 191.594C272.006 192.164 271.863 192.665 271.713 193.19L271.711 193.198C271.566 193.706 271.414 194.236 271.262 194.842L265.886 212.144Z" fill="#004834" stroke="white" stroke-width="3"/>
<path d="M345.148 205.712V181.199H355.918V230.524H344.413L325.178 204.033C324.862 203.401 324.271 202.238 323.412 200.803C322.524 199.029 321.666 197.308 320.807 195.019L317.917 195.758C318.221 197.882 318.501 199.86 318.501 201.526C318.501 202.503 318.583 203.388 318.658 204.142C318.665 204.215 318.673 204.285 318.679 204.354C318.748 205.035 318.8 205.554 318.8 206.011V230.524H307.732V181.199H319.241L338.473 207.394C338.79 208.027 339.38 209.189 340.237 210.621L343.205 216.549L346.031 215.666C345.726 213.529 345.448 211.56 345.448 210.197C345.448 209.22 345.366 208.335 345.291 207.581C345.283 207.508 345.276 207.438 345.269 207.369C345.201 206.688 345.148 206.169 345.148 205.712Z" fill="#004834" stroke="white" stroke-width="3"/>
<path d="M369.993 230.23V181.205C369.994 181.2 369.998 181.188 370.006 181.17C370.026 181.129 370.061 181.075 370.114 181.022C370.167 180.969 370.222 180.933 370.263 180.914C370.282 180.905 370.294 180.901 370.299 180.9H381.055C381.06 180.901 381.072 180.905 381.091 180.914C381.132 180.933 381.186 180.969 381.24 181.022C381.293 181.075 381.328 181.129 381.348 181.17C381.356 181.188 381.359 181.2 381.361 181.205V198.237C381.361 199.174 381.815 199.985 382.362 200.532C382.91 201.078 383.721 201.531 384.657 201.531H400.222C401.158 201.531 401.97 201.078 402.517 200.532C403.064 199.985 403.518 199.174 403.518 198.237V181.205C403.52 181.2 403.523 181.188 403.532 181.17C403.551 181.129 403.586 181.075 403.64 181.022C403.693 180.969 403.747 180.933 403.789 180.914C403.807 180.905 403.819 180.901 403.825 180.9H414.58C414.585 180.901 414.597 180.905 414.616 180.914C414.658 180.933 414.712 180.969 414.765 181.022C414.818 181.075 414.854 181.129 414.873 181.17C414.881 181.188 414.885 181.2 414.886 181.205V230.219C414.885 230.224 414.881 230.236 414.873 230.254C414.854 230.295 414.818 230.349 414.765 230.402C414.712 230.455 414.658 230.491 414.616 230.51C414.597 230.519 414.585 230.523 414.58 230.524H403.825C403.819 230.523 403.807 230.519 403.789 230.51C403.747 230.491 403.693 230.455 403.64 230.402C403.586 230.349 403.551 230.295 403.532 230.254C403.523 230.236 403.52 230.224 403.518 230.219V212.29C403.518 211.353 403.064 210.542 402.517 209.995C401.97 209.449 401.158 208.996 400.222 208.996H384.657C383.721 208.996 382.91 209.449 382.362 209.995C381.815 210.542 381.361 211.353 381.361 212.29V230.219C381.359 230.224 381.356 230.236 381.348 230.254C381.328 230.295 381.293 230.349 381.24 230.402C381.186 230.455 381.132 230.491 381.091 230.51C381.072 230.519 381.06 230.523 381.055 230.524H370.289C370.159 230.524 370.078 230.479 370.05 230.454C370.039 230.444 370.03 230.433 370.021 230.413C370.013 230.393 369.993 230.338 369.993 230.23Z" fill="#004834" stroke="white" stroke-width="3"/>
<path d="M189.788 222.157V230.823H186.798H179.018V181.498H190.362C190.363 181.499 190.365 181.5 190.366 181.502C190.391 181.523 190.416 181.548 190.453 181.584L191.883 183.488V183.779L192.174 184.175L209.529 207.787L209.536 207.796L213.42 213.169L216.136 216.925V212.29V205.712V191.659V181.199H219.126H226.835C226.84 181.202 226.847 181.206 226.854 181.21C226.868 181.219 226.882 181.229 226.894 181.24C226.898 181.243 226.902 181.247 226.905 181.25V230.524H215.562C215.56 230.523 215.559 230.522 215.557 230.52C215.535 230.501 215.512 230.479 215.481 230.448L210.165 223.074L210.16 223.067L192.5 198.848L189.788 195.129V199.732V206.31V222.157ZM226.908 181.199C226.907 181.199 226.906 181.199 226.905 181.199L226.908 181.199Z" fill="#004834" stroke="white" stroke-width="3"/>
<path d="M120.346 227.838L120.645 231.426H132.319C132.319 231.426 135.911 217.074 151.476 212.589C151.776 212.589 132.618 210.496 120.346 227.838Z" fill="#004834"/>
<path d="M136.873 212.144L136.87 212.155L136.867 212.165L133.874 222.328L133.873 222.331L131.526 230.246C131.47 230.334 131.406 230.404 131.345 230.45C131.279 230.499 131.216 230.524 131.122 230.524H120.944C120.866 230.524 120.768 230.488 120.685 230.376C120.609 230.275 120.578 230.154 120.595 230.037L137.29 181.498C137.349 181.4 137.418 181.323 137.484 181.273C137.549 181.224 137.613 181.199 137.707 181.199H152.973C153.067 181.199 153.131 181.224 153.196 181.273C153.262 181.323 153.331 181.4 153.39 181.498L170.085 230.037C170.103 230.159 170.077 230.329 169.955 230.527C169.87 230.666 169.771 230.763 169.691 230.823H165.844H159.858H159.532L159.517 230.763L159.509 230.731L159.5 230.7L157.106 222.63L157.105 222.627L154.113 212.464L154.109 212.454L154.106 212.443L148.776 195.287C148.745 194.863 148.647 194.432 148.554 194.061C148.498 193.84 148.435 193.603 148.371 193.366L148.356 193.307C148.286 193.046 148.214 192.776 148.142 192.491C148.078 192.236 148.012 191.955 147.94 191.652C147.698 190.624 147.394 189.337 146.913 187.895L145.284 183.014L144.035 188.006L143.137 191.594C142.994 192.164 142.851 192.665 142.701 193.19L142.698 193.198C142.553 193.706 142.401 194.237 142.249 194.842L136.873 212.144Z" fill="#004834" stroke="white" stroke-width="3"/>
<path d="M89.8103 211.393V230.524H83.827H80.8337H79.3403V228.436V226.044V185.679V182.689V180.9H81.7317H83.5277H92.5077C98.4888 180.9 102.217 181.203 104.417 181.752C106.615 182.301 108.255 183.117 109.936 184.237C111.411 185.219 112.743 187.026 113.566 188.93C114.416 191.203 114.954 193.401 114.954 195.845C114.954 199.495 114.115 202.43 112.277 204.79C110.447 207.141 108.094 208.492 104.443 209.333L102.337 209.819L103.529 211.622L114.006 227.469L114.017 227.486L114.029 227.503L116.046 230.381C116.066 230.432 116.079 230.48 116.088 230.524H115.856H109.57H104.147L92.6077 210.64L89.8103 205.82V211.393ZM116.07 230.824C116.07 230.824 116.07 230.823 116.072 230.821C116.071 230.823 116.07 230.824 116.07 230.824ZM89.511 204.217V205.717H91.011H93.705C96.6635 205.717 99.2174 205.452 101.149 203.955C103.215 202.661 103.869 200.255 104.17 198.15L104.185 198.045V197.938C104.185 194.875 103.147 192.691 101.65 191.196C100.797 190.344 99.6225 189.799 98.3566 189.462C97.0753 189.121 95.5924 188.963 94.0043 188.963H91.011H89.511V190.463V204.217Z" fill="#004834" stroke="white" stroke-width="3"/>
<path d="M45.8151 192.257V190.757H44.3151H42.8184H39.8251H34.5228C34.5061 190.732 34.4869 190.695 34.4709 190.647C34.4507 190.586 34.4404 190.522 34.4404 190.463V181.493C34.4404 181.352 34.4541 181.258 34.4678 181.199H68.8571V190.164C68.8571 190.305 68.8435 190.399 68.8297 190.458H59.5811C58.5864 190.458 57.8033 190.967 57.3125 191.597C56.8343 192.211 56.5844 192.988 56.5844 193.752V230.828C56.5844 230.969 56.5708 231.063 56.557 231.122H47.6078H45.8151V230.828V225.745V197.34V194.051V192.257Z" fill="#004834" stroke="white" stroke-width="3"/>
<path d="M319.902 265.61V264.816H415.587V265.61H319.902Z" fill="#AB5210" stroke="white"/>
<path d="M34.3384 265.61V264.816H130.023V265.61H34.3384Z" fill="#AB5210" stroke="white"/>
<path d="M194.679 258.336V266.507H191.886H190.689H190.094C190.092 266.507 190.088 266.505 190.082 266.502C190.068 266.496 190.05 266.484 190.032 266.466C190.014 266.449 190.003 266.431 189.996 266.417C189.993 266.411 189.992 266.407 189.992 266.405V265.512V264.316V247.273V246.077V245.483C189.992 245.481 189.993 245.477 189.996 245.471C190.003 245.457 190.014 245.439 190.032 245.422C190.05 245.404 190.068 245.392 190.082 245.386C190.088 245.383 190.092 245.381 190.094 245.381H190.988H191.886H195.778C196.979 245.381 198.014 245.381 198.862 245.418C199.721 245.455 200.332 245.529 200.708 245.654C201.637 245.964 202.409 246.231 202.908 246.73L202.943 246.765L202.984 246.792C203.776 247.32 204.313 248.119 204.583 248.926C204.882 249.823 205.156 250.651 205.156 251.758C205.156 253.467 204.877 254.542 204.08 255.615C203.218 256.47 202.114 257.278 200.768 257.547L200.027 257.695L200.453 258.319L204.943 264.897L204.95 264.906L204.957 264.915L205.824 266.07C205.895 266.234 205.886 266.38 205.855 266.475C205.851 266.487 205.847 266.498 205.842 266.507H205.656H202.962H200.554L195.61 258.083L194.679 256.496V258.336ZM194.38 255.047V255.547H194.88H196.077C197.648 255.547 198.623 255.231 199.294 254.896C199.7 254.694 200.028 254.368 200.185 253.845C200.329 253.366 200.316 252.764 200.169 252.007C200.165 251.392 200.085 250.89 199.909 250.451C199.726 249.996 199.455 249.642 199.124 249.311C198.977 249.164 198.771 249.059 198.58 248.982C198.376 248.899 198.134 248.827 197.873 248.767C197.35 248.646 196.714 248.567 196.077 248.567H194.88H194.38V249.067V255.047Z" fill="#AB5210" stroke="white"/>
<path d="M235.723 251.645L235.731 251.664L235.74 251.683C236.295 252.79 236.586 254.202 236.586 255.944C236.586 257.371 236.3 258.803 235.723 260.243C235.157 261.657 234.306 262.798 233.14 263.962C232.012 265.089 230.887 265.656 229.417 266.244C227.975 266.82 226.541 267.105 225.112 267.105C223.684 267.105 222.25 266.82 220.808 266.244C219.393 265.678 218.253 264.831 217.059 263.937C215.906 262.781 215.063 261.647 214.501 260.243C213.924 258.803 213.639 257.371 213.639 255.944C213.639 254.517 213.924 253.085 214.501 251.645C215.067 250.231 215.918 249.09 217.084 247.926C218.212 246.799 219.338 246.232 220.808 245.644C222.25 245.068 223.684 244.783 225.112 244.783C226.541 244.783 227.975 245.068 229.417 245.644C230.832 246.21 231.972 247.057 233.165 247.951C234.318 249.107 235.161 250.241 235.723 251.645ZM229.394 250.847L229.377 250.826L229.357 250.806C228.729 250.179 228.081 249.688 227.336 249.358C226.588 249.026 225.769 248.866 224.813 248.866C223.857 248.866 223.037 249.026 222.29 249.358C221.545 249.688 220.897 250.179 220.269 250.806C218.927 252.146 218.626 253.812 218.626 255.944C218.626 257.836 219.254 259.738 220.222 261.028L220.261 261.079L220.31 261.119C221.87 262.365 223.474 263.022 225.112 263.022C226.069 263.022 226.888 262.862 227.635 262.53C228.38 262.2 229.028 261.709 229.656 261.082C230.998 259.742 231.3 258.076 231.3 255.944C231.3 254.018 230.65 252.416 229.394 250.847Z" fill="#AB5210" stroke="white"/>
<path d="M251.852 260.429V260.547L251.905 260.653C252.069 260.982 252.248 261.256 252.485 261.493C252.722 261.73 252.996 261.908 253.326 262.072C254.031 262.424 254.737 262.424 255.579 262.424C255.601 262.424 255.623 262.424 255.644 262.424C255.666 262.424 255.688 262.424 255.709 262.424C256.552 262.424 257.258 262.424 257.963 262.072C258.293 261.908 258.567 261.73 258.804 261.493C259.041 261.256 259.219 260.982 259.384 260.653C259.552 260.318 259.647 260.042 259.694 259.715C259.736 259.418 259.736 259.087 259.736 258.667L259.736 258.635V258.631V258.628V258.624V258.621V258.617V258.614V258.61V258.607V258.603V258.599V258.596V258.592V258.588V258.585V258.581V258.577V258.573V258.57V258.566V258.562V258.558V258.555V258.551V258.547V258.543V258.539V258.535V258.532V258.528V258.524V258.52V258.516V258.512V258.508V258.504V258.5V258.496V258.492V258.488V258.484V258.48V258.476V258.472V258.468V258.464V258.46V258.455V258.451V258.447V258.443V258.439V258.435V258.43V258.426V258.422V258.418V258.413V258.409V258.405V258.401V258.396V258.392V258.388V258.383V258.379V258.375V258.37V258.366V258.361V258.357V258.353V258.348V258.344V258.339V258.335V258.33V258.326V258.321V258.317V258.312V258.307V258.303V258.298V258.294V258.289V258.284V258.28V258.275V258.271V258.266V258.261V258.256V258.252V258.247V258.242V258.238V258.233V258.228V258.223V258.218V258.214V258.209V258.204V258.199V258.194V258.189V258.184V258.18V258.175V258.17V258.165V258.16V258.155V258.15V258.145V258.14V258.135V258.13V258.125V258.12V258.115V258.11V258.105V258.1V258.094V258.089V258.084V258.079V258.074V258.069V258.064V258.058V258.053V258.048V258.043V258.037V258.032V258.027V258.022V258.016V258.011V258.006V258V257.995V257.99V257.984V257.979V257.974V257.968V257.963V257.958V257.952V257.947V257.941V257.936V257.93V257.925V257.919V257.914V257.908V257.903V257.897V257.892V257.886V257.881V257.875V257.869V257.864V257.858V257.852V257.847V257.841V257.836V257.83V257.824V257.818V257.813V257.807V257.801V257.796V257.79V257.784V257.778V257.772V257.767V257.761V257.755V257.749V257.743V257.737V257.732V257.726V257.72V257.714V257.708V257.702V257.696V257.69V257.684V257.678V257.672V257.666V257.66V257.654V257.648V257.642V257.636V257.63V257.624V257.618V257.612V257.606V257.6V257.594V257.587V257.581V257.575V257.569V257.563V257.557V257.55V257.544V257.538V257.532V257.526V257.519V257.513V257.507V257.5V257.494V257.488V257.482V257.475V257.469V257.463V257.456V257.45V257.443V257.437V257.431V257.424V257.418V257.411V257.405V257.399V257.392V257.386V257.379V257.373V257.366V257.36V257.353V257.347V257.34V257.333V257.327V257.32V257.314V257.307V257.301V257.294V257.287V257.281V257.274V257.267V257.261V257.254V257.247V257.241V257.234V257.227V257.22V257.214V257.207V257.2V257.193V257.187V257.18V257.173V257.166V257.159V257.153V257.146V257.139V257.132V257.125V257.118V257.111V257.105V257.098V257.091V257.084V257.077V257.07V257.063V257.056V257.049V257.042V257.035V257.028V257.021V257.014V257.007V257V256.993V256.986V256.979V256.972V256.965V256.957V256.95V256.943V256.936V256.929V256.922V256.915V256.908V256.9V256.893V256.886V256.879V256.872V256.864V256.857V256.85V256.843V256.835V256.828V256.821V256.813V256.806V256.799V256.792V256.784V256.777V256.77V256.762V256.755V256.747V256.74V256.733V256.725V256.718V256.71V256.703V256.696V256.688V256.681V256.673V256.666V256.658V256.651V256.643V256.636V256.628V256.621V256.613V256.606V256.598V256.591V256.583V256.575V256.568V256.56V256.553V256.545V256.537V256.53V256.522V256.515V256.507V256.499V256.492V256.484V256.476V256.468V256.461V256.453V256.445V256.438V256.43V256.422V256.414V256.407V256.399V256.391V256.383V256.375V256.368V256.36V256.352V256.344V256.336V256.328V256.32V256.313V256.305V256.297V256.289V256.281V256.273V256.265V256.257V256.249V256.241V256.233V256.225V256.217V256.21V256.202V256.194V256.186V256.178V256.169V256.161V256.153V256.145V256.137V256.129V256.121V256.113V256.105V256.097V256.089V256.081V256.073V256.064V256.056V256.048V256.04V256.032V256.024V256.016V256.007V255.999V255.991V255.983V255.975V255.966V255.958V255.95V255.942V255.933V255.925V255.917V255.909V255.9V255.892V255.884V255.875V255.867V255.859V255.85V255.842V255.834V255.825V255.817V255.809V255.8V255.792V255.784V255.775V255.767V255.758V255.75V255.741V255.733V255.725V255.716V255.708V255.699V255.691V255.682V255.674V255.665V255.657V255.648V255.64V255.631V255.623V255.614V255.606V255.597V255.589V255.58V255.571V255.563V255.554V255.546V255.537V255.528V255.52V255.511V255.503V255.494V255.485V255.477V255.468V255.459V255.451V255.442V255.433V255.425V255.416V255.407V255.398V255.39V255.381V255.372V255.363V255.355V255.346V254.15V245.483C259.737 245.481 259.738 245.477 259.741 245.471C259.747 245.457 259.759 245.439 259.777 245.422C259.795 245.404 259.813 245.392 259.826 245.386C259.833 245.383 259.837 245.381 259.839 245.381H264.322C264.323 245.381 264.327 245.383 264.334 245.386C264.348 245.392 264.366 245.404 264.383 245.422C264.401 245.439 264.413 245.457 264.419 245.471C264.422 245.477 264.423 245.481 264.424 245.483V256.542C264.424 258.965 264.42 260.682 264.139 261.803C263.868 262.887 263.331 263.708 262.74 264.595C261.9 265.426 261.057 265.988 259.911 266.56C259.394 266.818 258.719 266.96 257.919 267.032C257.123 267.105 256.248 267.105 255.345 267.105C253.624 267.105 251.896 266.822 250.73 266.535C250.144 266.242 249.588 265.962 249.105 265.652C248.607 265.332 248.223 265.003 247.978 264.636C247.376 263.734 246.826 262.903 246.551 261.803C246.27 260.682 246.266 258.965 246.266 256.542V254.15V245.671C246.302 245.628 246.336 245.587 246.367 245.549C246.373 245.541 246.378 245.534 246.384 245.528C246.464 245.428 246.534 245.345 246.606 245.272C246.748 245.13 246.853 245.082 246.964 245.082H251.45C251.452 245.082 251.456 245.084 251.462 245.087C251.476 245.093 251.494 245.105 251.512 245.123C251.53 245.14 251.541 245.158 251.548 245.172C251.551 245.178 251.552 245.182 251.552 245.184V255.346V255.355V255.363V255.372V255.381V255.39V255.398V255.407V255.416V255.425V255.433V255.442V255.451V255.459V255.468V255.477V255.485V255.494V255.503V255.511V255.52V255.528V255.537V255.546V255.554V255.563V255.571V255.58V255.589V255.597V255.606V255.614V255.623V255.631V255.64V255.648V255.657V255.665V255.674V255.682V255.691V255.699V255.708V255.716V255.725V255.733V255.741V255.75V255.758V255.767V255.775V255.784V255.792V255.8V255.809V255.817V255.825V255.834V255.842V255.85V255.859V255.867V255.875V255.884V255.892V255.9V255.909V255.917V255.925V255.933V255.942V255.95V255.958V255.966V255.975V255.983V255.991V255.999V256.007V256.016V256.024V256.032V256.04V256.048V256.056V256.064V256.073V256.081V256.089V256.097V256.105V256.113V256.121V256.129V256.137V256.145V256.153V256.161V256.169V256.178V256.186V256.194V256.202V256.21V256.217V256.225V256.233V256.241V256.249V256.257V256.265V256.273V256.281V256.289V256.297V256.305V256.313V256.32V256.328V256.336V256.344V256.352V256.36V256.368V256.375V256.383V256.391V256.399V256.407V256.414V256.422V256.43V256.438V256.445V256.453V256.461V256.468V256.476V256.484V256.492V256.499V256.507V256.515V256.522V256.53V256.537V256.545V256.553V256.56V256.568V256.575V256.583V256.591V256.598V256.606V256.613V256.621V256.628V256.636V256.643V256.651V256.658V256.666V256.673V256.681V256.688V256.696V256.703V256.71V256.718V256.725V256.733V256.74V256.747V256.755V256.762V256.77V256.777V256.784V256.792V256.799V256.806V256.813V256.821V256.828V256.835V256.843V256.85V256.857V256.864V256.872V256.879V256.886V256.893V256.9V256.908V256.915V256.922V256.929V256.936V256.943V256.95V256.957V256.965V256.972V256.979V256.986V256.993V257V257.007V257.014V257.021V257.028V257.035V257.042V257.049V257.056V257.063V257.07V257.077V257.084V257.091V257.098V257.105V257.111V257.118V257.125V257.132V257.139V257.146V257.153V257.159V257.166V257.173V257.18V257.187V257.193V257.2V257.207V257.214V257.22V257.227V257.234V257.241V257.247V257.254V257.261V257.267V257.274V257.281V257.287V257.294V257.301V257.307V257.314V257.32V257.327V257.333V257.34V257.347V257.353V257.36V257.366V257.373V257.379V257.386V257.392V257.399V257.405V257.411V257.418V257.424V257.431V257.437V257.443V257.45V257.456V257.463V257.469V257.475V257.482V257.488V257.494V257.5V257.507V257.513V257.519V257.526V257.532V257.538V257.544V257.55V257.557V257.563V257.569V257.575V257.581V257.587V257.594V257.6V257.606V257.612V257.618V257.624V257.63V257.636V257.642V257.648V257.654V257.66V257.666V257.672V257.678V257.684V257.69V257.696V257.702V257.708V257.714V257.72V257.726V257.732V257.737V257.743V257.749V257.755V257.761V257.767V257.772V257.778V257.784V257.79V257.796V257.801V257.807V257.813V257.818V257.824V257.83V257.836V257.841V257.847V257.852V257.858V257.864V257.869V257.875V257.881V257.886V257.892V257.897V257.903V257.908V257.914V257.919V257.925V257.93V257.936V257.941V257.947V257.952V257.958V257.963V257.968V257.974V257.979V257.984V257.99V257.995V258V258.006V258.011V258.016V258.022V258.027V258.032V258.037V258.043V258.048V258.053V258.058V258.064V258.069V258.074V258.079V258.084V258.089V258.094V258.1V258.105V258.11V258.115V258.12V258.125V258.13V258.135V258.14V258.145V258.15V258.155V258.16V258.165V258.17V258.175V258.18V258.184V258.189V258.194V258.199V258.204V258.209V258.214V258.218V258.223V258.228V258.233V258.238V258.242V258.247V258.252V258.256V258.261V258.266V258.271V258.275V258.28V258.284V258.289V258.294V258.298V258.303V258.307V258.312V258.317V258.321V258.326V258.33V258.335V258.339V258.344V258.348V258.353V258.357V258.361V258.366V258.37V258.375V258.379V258.383V258.388V258.392V258.396V258.401V258.405V258.409V258.413V258.418V258.422V258.426V258.43V258.435V258.439V258.443V258.447V258.451V258.455V258.46V258.464V258.468V258.472V258.476V258.48V258.484V258.488V258.492V258.496V258.5V258.504V258.508V258.512V258.516V258.52V258.524V258.528V258.532V258.535V258.539V258.543V258.547V258.551V258.555V258.558V258.562V258.566V258.57V258.573V258.577V258.581V258.585V258.588V258.592V258.596V258.599V258.603V258.607V258.61V258.614V258.617V258.621V258.624V258.628V258.631V258.635C251.552 258.996 251.64 259.347 251.711 259.63L251.717 259.653C251.795 259.964 251.852 260.202 251.852 260.429Z" fill="#AB5210" stroke="white"/>
<path d="M291.09 248.926L291.101 248.96L291.117 248.992C291.659 250.074 291.663 251.164 291.663 251.758C291.663 253.184 291.378 254.325 291.09 255.188C290.821 255.995 290.283 256.794 289.491 257.322L289.45 257.349L289.415 257.384C288.892 257.907 288.373 258.174 287.515 258.46C287.133 258.587 286.59 258.659 285.888 258.696C285.193 258.733 284.384 258.733 283.482 258.733H282.584H281.387H280.887V259.233V266.208H278.693H277.196H276.601C276.599 266.208 276.595 266.206 276.589 266.203C276.575 266.197 276.557 266.185 276.539 266.167C276.522 266.15 276.51 266.132 276.503 266.118C276.501 266.112 276.5 266.108 276.499 266.106V264.017V247.871V246.077V245.483C276.5 245.481 276.501 245.477 276.503 245.471C276.51 245.457 276.522 245.439 276.539 245.422C276.557 245.404 276.575 245.392 276.589 245.386C276.595 245.383 276.599 245.381 276.601 245.381H282.884C283.936 245.381 284.82 245.381 285.553 245.418C286.292 245.455 286.834 245.527 287.216 245.654L287.293 245.68H287.374C288.072 245.68 288.849 246.164 289.415 246.73C289.716 247.031 290.073 247.388 290.392 247.777C290.714 248.17 290.969 248.563 291.09 248.926ZM280.887 254.748V255.248H281.387H282.584C284.155 255.248 285.13 254.932 285.801 254.597C286.245 254.376 286.534 253.96 286.708 253.568C286.885 253.17 286.976 252.728 286.976 252.356C286.976 251.857 286.893 251.343 286.715 250.899C286.54 250.462 286.25 250.04 285.801 249.816C285.13 249.48 284.155 249.165 282.584 249.165H281.387H280.887V249.665V254.748Z" fill="#AB5210" stroke="white"/>
<path d="M174.525 258.135H169.038V256.243V255.047V254.453C169.039 254.451 169.04 254.447 169.043 254.441C169.049 254.427 169.061 254.409 169.079 254.392C169.096 254.374 169.114 254.362 169.128 254.356C169.135 254.353 169.139 254.351 169.14 254.351H170.035H171.232H174.226H179.712V254.351V254.352V254.354V254.355V254.357V254.358V254.359V254.361V254.362V254.364V254.365V254.367V254.368V254.369V254.371V254.372V254.374V254.375V254.377V254.378V254.38V254.381V254.383V254.384V254.386V254.387V254.389V254.39V254.392V254.393V254.395V254.396V254.398V254.399V254.401V254.403V254.404V254.406V254.407V254.409V254.41V254.412V254.414V254.415V254.417V254.419V254.42V254.422V254.423V254.425V254.427V254.428V254.43V254.432V254.433V254.435V254.437V254.439V254.44V254.442V254.444V254.445V254.447V254.449C179.712 254.611 179.705 254.644 179.69 254.674C179.681 254.693 179.633 254.777 179.39 254.899L179.114 255.037V255.346C179.114 259.162 178.232 261.999 176.267 263.962L176.253 263.976L176.241 263.99C174.565 265.944 171.728 267.105 168.239 267.105C166.513 267.105 165.084 266.82 163.654 266.251C162.473 265.661 161.356 265.098 160.236 263.987C159.341 262.795 158.493 261.656 157.927 260.243C157.35 258.803 157.065 257.371 157.065 255.944C157.065 254.517 157.35 253.085 157.927 251.645L157.944 251.602L157.953 251.557C158.221 250.217 159.026 249.114 160.186 247.951C161.379 247.057 162.52 246.21 163.934 245.644C165.371 245.07 166.804 244.783 168.538 244.783C170.581 244.783 172.295 245.074 174.002 245.926C175.134 246.492 176.569 247.639 177.418 248.769L177.439 248.798L177.442 248.801C177.442 248.819 177.437 248.853 177.418 248.909C177.379 249.026 177.301 249.154 177.219 249.253L173.519 250.958C173.424 250.957 173.359 250.952 173.299 250.937C173.235 250.921 173.166 250.89 173.082 250.806L173.044 250.768C172.475 250.199 171.828 249.553 171.156 249.218L171.125 249.202L171.091 249.191L171.053 249.178C170.182 248.888 169.218 248.567 168.239 248.567C166.337 248.567 164.668 249.203 163.648 250.561C162.675 251.858 162.052 253.762 162.052 255.944V255.946V255.947V255.949V255.951V255.953V255.954V255.956V255.958V255.96V255.962V255.963V255.965V255.967V255.969V255.97V255.972V255.974V255.976V255.977V255.979V255.981V255.983V255.984V255.986V255.988V255.99V255.991V255.993V255.995V255.997V255.998V256V256.002V256.004V256.005V256.007V256.009V256.011V256.012V256.014V256.016V256.018V256.019V256.021V256.023V256.025V256.026V256.028V256.03V256.032V256.033V256.035V256.037V256.039V256.04V256.042V256.044V256.046V256.047V256.049V256.051V256.053V256.054V256.056V256.058V256.06V256.061V256.063V256.065V256.067V256.068V256.07V256.072V256.074V256.075V256.077V256.079V256.081V256.082V256.084V256.086V256.088V256.089V256.091V256.093V256.095V256.096V256.098V256.1V256.102V256.103V256.105V256.107V256.109V256.11V256.112V256.114V256.116V256.117V256.119V256.121V256.123V256.124V256.126V256.128V256.13V256.131V256.133V256.135V256.137V256.138V256.14V256.142V256.144V256.145V256.147V256.149V256.151V256.152V256.154V256.156V256.158V256.159V256.161V256.163V256.165V256.166V256.168V256.17V256.172V256.173V256.175V256.177V256.179V256.181V256.182V256.184V256.186V256.188V256.189V256.191V256.193V256.195V256.196V256.198V256.2V256.202V256.203V256.205V256.207V256.209V256.21V256.212V256.214V256.216V256.217V256.219V256.221V256.223V256.224V256.226V256.228V256.23V256.231V256.233V256.235V256.237V256.238V256.24V256.242V256.244V256.245V256.247V256.249V256.251V256.252V256.254V256.256V256.258V256.259V256.261V256.263V256.265V256.266V256.268V256.27V256.272V256.273V256.275V256.277V256.279V256.28V256.282V256.284V256.286V256.287V256.289V256.291V256.293V256.294V256.296V256.298V256.3V256.301V256.303V256.305V256.307V256.308V256.31V256.312V256.314V256.315V256.317V256.319V256.321V256.322V256.324V256.326V256.328V256.329V256.331V256.333V256.335V256.336V256.338V256.34V256.342V256.343V256.345V256.347V256.349V256.35V256.352V256.354V256.356V256.357V256.359V256.361V256.363V256.364V256.366V256.368V256.37V256.371V256.373V256.375V256.377V256.378V256.38V256.382V256.384V256.385V256.387V256.389V256.391V256.392V256.394V256.396V256.398V256.399V256.401V256.403V256.405V256.407V256.408V256.41V256.412V256.414V256.415V256.417V256.419V256.421V256.422V256.424V256.426V256.428V256.429V256.431V256.433V256.435V256.436V256.438V256.44V256.442V256.443V256.445V256.447V256.449V256.45V256.452V256.454V256.456V256.457V256.459V256.461V256.463V256.464V256.466V256.468V256.47V256.471V256.473V256.475V256.477V256.478V256.48V256.482V256.484V256.485V256.487V256.489V256.491V256.492V256.494V256.496V256.498V256.499V256.501V256.503V256.505V256.506V256.508V256.51V256.512V256.513V256.515V256.517V256.519V256.52V256.522V256.524V256.526V256.527V256.529V256.531V256.533V256.534V256.536V256.538V256.54V256.541V256.543V256.545V256.547V256.548V256.55V256.552V256.554V256.555V256.557V256.559V256.561V256.562V256.564V256.566V256.568V256.569V256.571V256.573V256.575V256.576V256.578V256.58V256.582V256.583V256.585V256.587V256.589V256.59V256.592V256.594V256.596V256.597V256.599V256.601V256.603V256.604V256.606V256.608V256.61V256.611V256.613V256.615V256.617V256.618V256.62V256.622V256.624V256.626V256.627V256.629V256.631V256.633V256.634V256.636V256.638V256.64V256.641V256.643V256.645V256.647V256.648V256.65V256.652V256.654V256.655V256.657V256.659V256.661V256.662V256.664V256.666V256.668V256.669V256.671V256.673V256.675V256.676V256.678V256.68V256.682V256.683V256.685V256.687V256.689V256.69V256.692V256.694V256.696V256.697V256.699V256.701V256.703V256.704V256.706V256.708V256.71V256.711V256.713V256.715V256.717V256.718V256.72V256.722V256.724V256.725V256.727V256.729V256.731V256.732V256.734V256.736V256.738V256.739V256.741V256.743V256.745V256.746V256.748V256.75V256.752V256.753V256.755V256.757V256.759V256.76V256.762V256.764V256.766V256.767V256.769V256.771V256.773V256.774V256.776V256.778V256.78V256.781V256.783V256.785V256.787V256.788V256.79V256.792V256.794V256.795V256.797V256.799V256.801V256.802V256.804V256.806V256.808V256.809V256.811V256.813V256.815V256.816V256.818V256.82V256.822V256.823V256.825V256.827V256.829V256.83V256.832V256.834V256.836V256.837V256.839V256.841C162.052 258.187 162.718 259.486 163.333 260.408L163.361 260.449L163.396 260.484L163.695 260.783L163.994 261.082L164.02 261.108C164.597 261.684 165.26 262.346 166.251 262.686C166.896 263.003 167.856 263.321 168.838 263.321C170.486 263.321 171.787 262.656 173.029 261.726L173.057 261.705L173.082 261.68C173.153 261.609 173.206 261.576 173.287 261.527C173.323 261.504 173.365 261.478 173.418 261.443C173.488 261.396 173.598 261.317 173.686 261.192C173.736 261.121 173.772 261.045 173.795 260.964C174.393 260.329 174.705 259.676 174.999 258.793L175.219 258.135H174.525ZM177.44 248.783C177.441 248.783 177.442 248.786 177.442 248.791C177.44 248.786 177.44 248.784 177.44 248.783Z" fill="#AB5210" stroke="white"/>
</svg>
