<svg width="103" height="68" viewBox="0 0 103 68" fill="none" xmlns="http://www.w3.org/2000/svg">
<path d="M50.6056 4.76001L36.8696 12.716V28.628L50.6056 36.652V31.96L40.9496 26.316V15.096L46.5936 11.764V24.072L50.6056 26.384V9.52001H50.5376L50.6056 9.45201V4.76001Z" fill="#004834"/>
<path d="M51.4219 4.76001V9.45201L51.4899 9.52001H51.4219V26.384L55.4339 24.072V11.764L61.0779 15.096V26.316L51.4219 31.96V36.652L65.1579 28.628V12.716L51.4219 4.76001Z" fill="#004834"/>
<path d="M56.7256 51.816L56.7936 52.632H59.4456C59.4456 52.632 60.2616 49.368 63.7976 48.348C63.7976 48.348 59.4456 47.872 56.7256 51.816Z" fill="#004834"/>
<path d="M68.2857 52.224L64.4777 41.14C64.4097 41.004 64.2737 40.868 64.0697 40.868H60.6017C60.3977 40.868 60.2617 41.004 60.1937 41.14L56.3857 52.224C56.3177 52.496 56.5217 52.768 56.7937 52.768H59.1057C59.3097 52.768 59.4457 52.632 59.5137 52.496L60.0577 50.66L60.7377 48.348L61.9617 44.404C62.0297 44.132 62.0977 43.928 62.1657 43.656C62.2337 43.384 62.3017 43.112 62.3697 42.84C62.5057 43.248 62.5737 43.588 62.6417 43.86C62.7097 44.132 62.7777 44.336 62.7777 44.472L64.0017 48.416L64.6817 50.728L65.2257 52.564L65.2937 52.836H65.6337H66.9937H67.9457C68.1497 52.768 68.3537 52.496 68.2857 52.224Z" fill="#004834"/>
<path d="M69.5776 52.768V40.868H72.7056L77.1936 46.988C77.2616 47.124 77.3976 47.396 77.6016 47.736C77.8056 48.144 78.0096 48.552 78.2816 49.096C78.2136 48.62 78.1456 48.144 78.1456 47.804C78.1456 47.396 78.0776 47.056 78.0776 46.784V40.868H81.2056V52.768H78.0776L73.5896 46.58C73.5216 46.444 73.3856 46.172 73.1816 45.832C72.9776 45.424 72.7736 45.016 72.5696 44.472C72.6376 44.948 72.7056 45.424 72.7056 45.832C72.7056 46.24 72.7736 46.58 72.7736 46.852V52.768H69.5776Z" fill="#004834"/>
<path d="M83.7217 52.36V41.208C83.7217 41.004 83.9257 40.8 84.1297 40.8H86.5777C86.7817 40.8 86.9857 41.004 86.9857 41.208V45.084C86.9857 45.288 87.1897 45.492 87.3937 45.492H90.9297C91.1337 45.492 91.3377 45.288 91.3377 45.084V41.208C91.3377 41.004 91.5417 40.8 91.7457 40.8H94.1937C94.3977 40.8 94.6017 41.004 94.6017 41.208V52.36C94.6017 52.564 94.3977 52.768 94.1937 52.768H91.7457C91.5417 52.768 91.3377 52.564 91.3377 52.36V48.28C91.3377 48.076 91.1337 47.872 90.9297 47.872H87.3937C87.1897 47.872 86.9857 48.076 86.9857 48.28V52.36C86.9857 52.564 86.7817 52.768 86.5777 52.768H84.1297C83.9257 52.768 83.7217 52.632 83.7217 52.36Z" fill="#004834"/>
<path d="M51.5579 40.868H49.7899H49.1099H48.7699V43.588V46.784V48.28L47.8859 47.056L43.9419 41.684V41.616L43.5339 41.072C43.4659 41.004 43.3979 40.936 43.2619 40.936H40.6779C40.4739 40.936 40.3379 41.072 40.3379 41.276V52.496C40.3379 52.7 40.4739 52.836 40.6779 52.836H42.4459H43.1259H43.4659V52.496V50.524V46.92V45.424L47.4779 50.932L48.7019 52.632C48.7699 52.7 48.8379 52.768 48.9739 52.768H51.5579C51.7619 52.768 51.8979 52.632 51.8979 52.428V41.208C51.8979 41.004 51.6939 40.868 51.5579 40.868Z" fill="#004834"/>
<path d="M27.3496 51.816L27.4176 52.632H30.0696C30.0696 52.632 30.8856 49.368 34.4216 48.348C34.4896 48.348 30.1376 47.872 27.3496 51.816Z" fill="#004834"/>
<path d="M38.9776 52.224L35.1696 41.14C35.1016 41.004 34.9656 40.868 34.7616 40.868H31.2936C31.0896 40.868 30.9536 41.004 30.8856 41.14L27.0776 52.224C27.0096 52.496 27.2136 52.768 27.4856 52.768H29.7976C30.0016 52.768 30.1376 52.632 30.2056 52.496L30.7496 50.66L31.4296 48.348L32.6536 44.404C32.7216 44.132 32.7896 43.928 32.8576 43.656C32.9256 43.384 32.9936 43.112 33.0616 42.84C33.1976 43.248 33.2656 43.588 33.3336 43.86C33.4016 44.132 33.4696 44.336 33.4696 44.472L34.6936 48.416L35.3736 50.728L35.9176 52.564L35.9856 52.836H36.3256H37.6856H38.6376C38.8416 52.768 39.0456 52.496 38.9776 52.224Z" fill="#004834"/>
<path d="M26.6698 52.224L26.1938 51.544L23.8138 47.94C24.6978 47.736 25.3098 47.396 25.7858 46.784C26.2618 46.172 26.4658 45.424 26.4658 44.54C26.4658 43.928 26.3298 43.384 26.1258 42.84C25.9218 42.364 25.5818 41.888 25.1738 41.616C24.7658 41.344 24.3578 41.14 23.8138 41.004C23.2698 40.868 22.3858 40.8 21.0258 40.8H18.9858H18.5778H18.0338C17.8298 40.8 17.6938 40.936 17.6938 41.14V41.548V42.228V51.408V51.952V52.428C17.6938 52.632 17.8298 52.768 18.0338 52.768H18.3738H19.0538H20.7538V48.076L23.4738 52.768H24.9018H26.3298H26.5338C26.6698 52.768 26.8058 52.496 26.6698 52.224ZM22.7938 46.104C22.4538 46.376 21.9778 46.444 21.2978 46.444H20.6858V43.316H21.3658C22.0458 43.316 22.5898 43.452 22.8618 43.724C23.1338 43.996 23.3378 44.404 23.3378 45.016C23.2698 45.492 23.1338 45.9 22.7938 46.104Z" fill="#004834"/>
<path d="M15.6537 40.868H7.83365C7.62965 40.868 7.49365 41.004 7.49365 41.276V43.316C7.49365 43.52 7.62965 43.724 7.83365 43.724H9.05765H9.73765H10.0777V44.132V44.88V51.34V52.496V52.904H10.4177H10.8257H12.8657C13.0697 52.904 13.2057 52.768 13.2057 52.496V44.064C13.2057 43.86 13.3417 43.656 13.5457 43.656H15.6537C15.8577 43.656 15.9937 43.52 15.9937 43.248V41.208C16.0617 41.004 15.8577 40.868 15.6537 40.868Z" fill="#004834"/>
<path d="M94.5338 60.112H72.5698V60.52H94.5338V60.112Z" fill="#AB5210"/>
<path d="M29.6618 60.112H7.69775V60.52H29.6618V60.112Z" fill="#AB5210"/>
<path d="M46.8656 60.452L46.6616 60.18L45.6416 58.684C45.9816 58.616 46.2536 58.412 46.4576 58.208C46.6616 57.936 46.7296 57.664 46.7296 57.256C46.7296 56.984 46.6616 56.78 46.5936 56.576C46.5256 56.372 46.3896 56.168 46.1856 56.032C46.0496 55.896 45.8456 55.828 45.6416 55.76C45.4376 55.692 45.0296 55.692 44.4856 55.692H43.6016H43.3976H43.1936C43.1256 55.692 43.0576 55.76 43.0576 55.828V55.964V56.236V60.112V60.384V60.588C43.0576 60.656 43.1256 60.724 43.1936 60.724H43.3296H43.6016H44.3496V58.752L45.5056 60.724H46.1176H46.7296H46.7976C46.8656 60.724 46.9336 60.588 46.8656 60.452ZM45.2336 57.868C45.0976 57.936 44.8936 58.004 44.5536 58.004H44.2816V56.644H44.5536C44.8256 56.644 45.0976 56.712 45.1656 56.78C45.3016 56.916 45.3696 57.052 45.3696 57.324C45.4376 57.664 45.3696 57.8 45.2336 57.868Z" fill="#AB5210"/>
<path d="M53.8697 58.208C53.8697 58.548 53.8017 58.888 53.6657 59.228C53.5297 59.568 53.3257 59.84 53.0537 60.112C52.7817 60.384 52.5097 60.52 52.1697 60.656C51.8297 60.792 51.4897 60.86 51.1497 60.86C50.8097 60.86 50.4697 60.792 50.1297 60.656C49.7897 60.52 49.5177 60.316 49.2457 60.112C48.9737 59.84 48.7697 59.568 48.6337 59.228C48.4977 58.888 48.4297 58.548 48.4297 58.208C48.4297 57.868 48.4977 57.528 48.6337 57.188C48.7697 56.848 48.9737 56.576 49.2457 56.304C49.5177 56.032 49.7897 55.896 50.1297 55.76C50.4697 55.624 50.8097 55.556 51.1497 55.556C51.4897 55.556 51.8297 55.624 52.1697 55.76C52.5097 55.896 52.7817 56.1 53.0537 56.304C53.3257 56.576 53.5297 56.848 53.6657 57.188C53.8017 57.46 53.8697 57.8 53.8697 58.208ZM51.1497 59.704C51.5577 59.704 51.8297 59.568 52.1017 59.296C52.3737 59.024 52.4417 58.684 52.4417 58.208C52.4417 57.8 52.3057 57.46 52.0337 57.12C51.7617 56.848 51.4897 56.712 51.0817 56.712C50.6737 56.712 50.4017 56.848 50.1297 57.12C49.8577 57.392 49.7897 57.732 49.7897 58.208C49.7897 58.616 49.9257 59.024 50.1297 59.296C50.4697 59.568 50.8097 59.704 51.1497 59.704Z" fill="#AB5210"/>
<path d="M56.1138 55.624H57.1338C57.2018 55.624 57.2698 55.692 57.2698 55.76V58.072C57.2698 58.412 57.2698 58.684 57.2698 58.82C57.2698 58.956 57.3378 59.092 57.3378 59.228C57.4058 59.364 57.4738 59.432 57.6098 59.5C57.7458 59.568 57.8818 59.568 58.0858 59.568C58.2898 59.568 58.4258 59.568 58.5618 59.5C58.6978 59.432 58.7658 59.364 58.8338 59.228C58.9018 59.092 58.9018 59.024 58.9018 58.82C58.9018 58.684 58.9018 58.412 58.9018 58.072V57.8V55.828C58.9018 55.76 58.9698 55.692 59.0378 55.692H60.0578C60.1258 55.692 60.1938 55.76 60.1938 55.828V58.344C60.1938 58.888 60.1938 59.296 60.1258 59.568C60.0578 59.84 59.9218 60.044 59.7858 60.248C59.5818 60.452 59.3778 60.588 59.1058 60.724C58.8338 60.86 58.4258 60.86 58.0178 60.86C57.6098 60.86 57.2018 60.792 56.9298 60.724C56.6578 60.588 56.3858 60.452 56.2498 60.248C56.1138 60.044 55.9778 59.84 55.9098 59.568C55.8418 59.296 55.8418 58.888 55.8418 58.344V57.8V55.828C55.9098 55.76 55.9778 55.624 56.1138 55.624Z" fill="#AB5210"/>
<path d="M66.2455 56.576C66.1775 56.372 65.9735 56.168 65.8375 56.032C65.7015 55.896 65.4975 55.76 65.2935 55.76C65.0895 55.692 64.7495 55.692 64.2735 55.692H62.8455C62.7775 55.692 62.7095 55.76 62.7095 55.828V55.964V56.372V60.044V60.52C62.7095 60.588 62.7775 60.656 62.8455 60.656H62.9815H63.3215H63.9335V58.956H64.2055H64.4095C64.8175 58.956 65.1575 58.956 65.3615 58.888C65.5655 58.82 65.7015 58.752 65.8375 58.616C66.0415 58.48 66.1775 58.276 66.2455 58.072C66.3135 57.868 66.3815 57.596 66.3815 57.256C66.3815 57.12 66.3815 56.848 66.2455 56.576ZM64.8855 57.8C64.7495 57.868 64.5455 57.936 64.2055 57.936H63.9335V56.78H64.2055C64.5455 56.78 64.7495 56.848 64.8855 56.916C65.0215 56.984 65.0895 57.188 65.0895 57.392C65.0895 57.528 65.0215 57.732 64.8855 57.8Z" fill="#AB5210"/>
<path d="M40.9496 57.868C40.9496 57.8 40.9496 57.8 40.9496 57.732H39.5896H38.9096H38.6376H38.4336C38.3656 57.732 38.2976 57.8 38.2976 57.868V58.004V58.276V58.82H39.6576C39.5896 59.024 39.5216 59.16 39.3856 59.296C39.3856 59.364 39.3176 59.364 39.2496 59.432C38.9776 59.636 38.7056 59.772 38.3656 59.772C38.1616 59.772 37.9576 59.704 37.8216 59.636C37.6176 59.568 37.4816 59.432 37.3456 59.296C37.2776 59.228 37.2776 59.228 37.2096 59.16C37.0736 58.956 36.9376 58.684 36.9376 58.412C36.9376 58.344 36.9376 58.276 36.9376 58.208C36.9376 57.732 37.0736 57.324 37.2776 57.052C37.4816 56.78 37.8216 56.644 38.2296 56.644C38.4336 56.644 38.6376 56.712 38.8416 56.78C38.9776 56.848 39.1136 56.984 39.2496 57.12C39.3176 57.188 39.3856 57.188 39.4536 57.188L40.3376 56.78C40.4056 56.712 40.4736 56.576 40.4056 56.508C40.2016 56.236 39.8616 55.964 39.5896 55.828C39.1816 55.624 38.7736 55.556 38.2976 55.556C37.8896 55.556 37.5496 55.624 37.2096 55.76C36.8696 55.896 36.5976 56.1 36.3256 56.304C36.0536 56.576 35.8496 56.848 35.7816 57.188C35.6456 57.528 35.5776 57.868 35.5776 58.208C35.5776 58.548 35.6456 58.888 35.7816 59.228C35.9176 59.568 36.1216 59.84 36.3256 60.112C36.5976 60.384 36.8696 60.52 37.1416 60.656C37.4816 60.792 37.8216 60.86 38.2296 60.86C39.0456 60.86 39.7256 60.588 40.1336 60.112C40.6096 59.636 40.8136 58.956 40.8136 58.072C40.9496 58.004 40.9496 57.936 40.9496 57.868Z" fill="#AB5210"/>
</svg>
