<?xml version="1.0" standalone="no"?>
<!DOCTYPE svg PUBLIC "-//W3C//DTD SVG 1.1//EN" "http://www.w3.org/Graphics/SVG/1.1/DTD/svg11.dtd" >
<svg xmlns="http://www.w3.org/2000/svg" xmlns:xlink="http://www.w3.org/1999/xlink" version="1.1">
<metadata>
Created by FontForge 20170731 at Tue Oct 12 12:22:52 2021
 By Aleksey,,,
(c) Copyright (c) 2010. All rights reserved. Fakt is a design by Thomas Thiemich, published by OurType. www.ourtype.com
</metadata>
<defs>
<font id="FaktPro-SemiBold" horiz-adv-x="751" >
  <font-face 
    font-family="Fakt Pro SmBd"
    font-weight="600"
    font-stretch="normal"
    units-per-em="2048"
    panose-1="2 0 0 0 0 0 0 0 0 0"
    ascent="1532"
    descent="-516"
    x-height="999"
    cap-height="1409"
    bbox="-360 -641 2513 2073"
    underline-thickness="102"
    underline-position="-307"
    unicode-range="U+0020-FB04"
  />
<missing-glyph horiz-adv-x="1458" 
d="M0 0v1475h1458v-1475h-1458zM475 377l258 264l258 -264l107 106l-260 267l260 266l-107 106l-258 -264l-258 264l-106 -106l258 -266l-258 -267z" />
    <glyph glyph-name="f_b" unicode="fb" horiz-adv-x="1949" 
d="M834 0v1294h-213q-91 0 -127.5 -39.5t-36.5 -130.5v-125h198v-196h-198v-803h-264v803h-189v196h189v119q0 197 89.5 289t295.5 92h520v-307q0 -192 -13 -336h9q42 83 126.5 125.5t200.5 42.5q196 0 323.5 -136.5t127.5 -379.5q0 -123 -36.5 -224.5t-100 -168.5
t-148.5 -103.5t-182 -36.5q-225 0 -311 168h-9v-143h-251zM1098 500q0 -149 70 -236.5t182 -87.5q113 0 181 90.5t68 241.5q0 149 -67.5 232t-181.5 83q-109 0 -179 -83.5t-73 -225.5v-14z" />
    <glyph glyph-name="f_f_b" unicode="ffb" horiz-adv-x="2590" 
d="M834 0v803h-377v-803h-264v803h-189v196h189v119q0 197 89.5 289t295.5 92h106v-205h-63q-91 0 -127.5 -39.5t-36.5 -130.5v-125h377v119q0 197 89.5 289t295.5 92h518v-307q0 -192 -11 -336h9q42 83 126.5 125.5t200.5 42.5q196 0 323.5 -136.5t127.5 -379.5
q0 -123 -36.5 -224.5t-100 -168.5t-148.5 -103.5t-182 -36.5q-225 0 -311 168h-9v-143h-251v1294h-213q-91 0 -127.5 -39.5t-36.5 -130.5v-125h223v-196h-223v-803h-264zM1737 500q0 -148 71 -236t183 -88q113 0 181.5 91t68.5 241q0 149 -68 232t-182 83q-112 0 -183 -87.5
t-71 -235.5z" />
    <glyph glyph-name="f_f_h" unicode="ffh" horiz-adv-x="2555" 
d="M834 0v803h-377v-803h-264v803h-189v196h189v119q0 197 89.5 289t295.5 92h106v-205h-63q-91 0 -127.5 -39.5t-36.5 -130.5v-125h377v119q0 197 89.5 289t295.5 92h518v-307q0 -185 -11 -336h9q42 83 121 125.5t186 42.5q63 0 118 -13.5t104.5 -44.5t84.5 -78t55.5 -119
t20.5 -163v-606h-262v573q0 246 -197 246q-101 0 -165 -80t-64 -215v-524h-262v1294h-213q-91 0 -127.5 -39.5t-36.5 -130.5v-125h223v-196h-223v-803h-264z" />
    <glyph glyph-name="f_f_j" unicode="ffj" horiz-adv-x="1882" 
d="M834 0v803h-377v-803h-264v803h-189v196h189v119q0 197 89.5 289t295.5 92h116v-205h-73q-91 0 -127.5 -39.5t-36.5 -130.5v-125h377v119q0 197 89.5 289t295.5 92h106v-205h-63q-91 0 -127.5 -39.5t-36.5 -130.5v-125h639v-1112q0 -82 -17 -142t-57 -105.5t-109 -68
t-168 -22.5h-83v205h53q66 0 92.5 36.5t26.5 115.5v897h-377v-803h-264zM1466 1253v246h279v-246h-279z" />
    <glyph glyph-name="f_f_k" unicode="ffk" horiz-adv-x="2455" 
d="M834 0v803h-377v-803h-264v803h-189v196h189v119q0 197 89.5 289t295.5 92h106v-205h-63q-91 0 -127.5 -39.5t-36.5 -130.5v-125h377v119q0 197 89.5 289t295.5 92h518v-915l374 415h299l-372 -399l409 -600h-303l-280 416l-127 -137v-279h-262v1294h-213
q-91 0 -127.5 -39.5t-36.5 -130.5v-125h223v-196h-223v-803h-264z" />
    <glyph glyph-name="f_f_t" unicode="fft" horiz-adv-x="2025" 
d="M834 0v803h-377v-803h-264v803h-189v196h189v119q0 197 89.5 289t295.5 92h106v-205h-63q-91 0 -127.5 -39.5t-36.5 -130.5v-125h377v119q0 197 89.5 289t295.5 92h106v-205h-63q-91 0 -127.5 -39.5t-36.5 -130.5v-125h368v304h263v-304h247v-196h-247v-443
q0 -79 31.5 -113t103.5 -34h112v-213h-159q-194 0 -272.5 78t-78.5 266v459h-368v-803h-264z" />
    <glyph glyph-name="f_h" unicode="fh" horiz-adv-x="1916" 
d="M834 0v1294h-213q-91 0 -127.5 -39.5t-36.5 -130.5v-125h198v-196h-198v-803h-264v803h-189v196h189v119q0 197 89.5 289t295.5 92h520v-307q0 -188 -13 -336h9q42 82 121.5 125t185.5 43q80 0 146.5 -22t121 -69.5t85 -130.5t30.5 -196v-606h-262v573q0 246 -197 246
q-100 0 -163.5 -79t-63.5 -214v-526h-264z" />
    <glyph glyph-name="f_j" unicode="fj" horiz-adv-x="1241" 
d="M662 -246h53q66 0 92.5 36.5t26.5 115.5v897h-377v-803h-264v803h-189v196h189v119q0 197 89.5 289t295.5 92h106v-205h-63q-91 0 -127.5 -39.5t-36.5 -130.5v-125h641v-1112q0 -168 -79 -253t-271 -85h-86v205zM825 1253v246h281v-246h-281z" />
    <glyph glyph-name="f_k" unicode="fk" horiz-adv-x="1816" 
d="M834 0v1294h-213q-91 0 -127.5 -39.5t-36.5 -130.5v-125h198v-196h-198v-803h-264v803h-189v196h189v119q0 197 89.5 289t295.5 92h520v-913l372 413h299l-372 -399l411 -600h-305l-280 416l-125 -135v-281h-264z" />
    <glyph glyph-name="f_t" unicode="ft" horiz-adv-x="1384" 
d="M825 344v459h-368v-803h-264v803h-189v196h189v119q0 197 89.5 289t295.5 92h106v-205h-63q-91 0 -127.5 -39.5t-36.5 -130.5v-125h368v304h262v-304h248v-196h-248v-443q0 -79 32 -113t104 -34h112v-213h-159q-194 0 -272.5 78t-78.5 266z" />
    <glyph glyph-name="fi" unicode="fi" horiz-adv-x="1241" 
d="M834 0v803h-377v-803h-264v803h-189v196h189v119q0 197 89.5 289t295.5 92h106v-205h-63q-91 0 -127.5 -39.5t-36.5 -130.5v-125h641v-999h-264zM825 1253v246h281v-246h-281z" />
    <glyph glyph-name="fl" unicode="fl" horiz-adv-x="1241" 
d="M193 0v803h-189v196h189v119q0 197 89.5 289t295.5 92h520v-1499h-264v1294h-213q-91 0 -127.5 -39.5t-36.5 -130.5v-125h198v-196h-198v-803h-264z" />
    <glyph glyph-name="ff" unicode="ff" horiz-adv-x="1339" 
d="M193 0v803h-189v196h189v119q0 197 89.5 289t295.5 92h106v-205h-63q-91 0 -127.5 -39.5t-36.5 -130.5v-125h377v119q0 197 89.5 289t295.5 92h141v-205h-98q-91 0 -127.5 -39.5t-36.5 -130.5v-125h229v-196h-229v-803h-264v803h-377v-803h-264z" />
    <glyph glyph-name="ffi" unicode="ffi" horiz-adv-x="1882" 
d="M834 0v803h-377v-803h-264v803h-189v196h189v119q0 197 89.5 289t295.5 92h116v-205h-73q-91 0 -127.5 -39.5t-36.5 -130.5v-125h377v119q0 197 89.5 289t295.5 92h106v-205h-63q-91 0 -127.5 -39.5t-36.5 -130.5v-125h639v-999h-262v803h-377v-803h-264zM1466 1253v246
h279v-246h-279z" />
    <glyph glyph-name="ffl" unicode="ffl" horiz-adv-x="1882" 
d="M834 0v803h-377v-803h-264v803h-189v196h189v119q0 197 89.5 289t295.5 92h106v-205h-63q-91 0 -127.5 -39.5t-36.5 -130.5v-125h377v119q0 197 89.5 289t295.5 92h518v-1499h-262v1294h-213q-91 0 -127.5 -39.5t-36.5 -130.5v-125h223v-196h-223v-803h-264z" />
    <glyph glyph-name=".notdef" horiz-adv-x="1458" 
d="M0 0v1475h1458v-1475h-1458zM475 377l258 264l258 -264l107 106l-260 267l260 266l-107 106l-258 -264l-258 264l-106 -106l258 -266l-258 -267z" />
    <glyph glyph-name=".null" horiz-adv-x="0" 
 />
    <glyph glyph-name="nonmarkingreturn" horiz-adv-x="682" 
 />
    <glyph glyph-name="space" unicode=" " horiz-adv-x="450" 
 />
    <glyph glyph-name="exclam" unicode="!" horiz-adv-x="587" 
d="M219 420l-69 604v385h288v-385l-67 -604h-152zM158 0v270h272v-270h-272z" />
    <glyph glyph-name="quotedbl" unicode="&#x22;" horiz-adv-x="882" 
d="M156 834l-37 372v203h241v-203l-36 -372h-168zM559 834l-37 372v203h240v-203l-37 -372h-166z" />
    <glyph glyph-name="numbersign" unicode="#" horiz-adv-x="1292" 
d="M127 907v180h248l55 322h213l-55 -322h254l55 322h213l-55 -322h202v-180h-235l-70 -405h213l-4 -180h-241l-56 -322h-213l56 322h-254l-56 -322h-213l56 322h-207v180h239l70 405h-215zM555 907l-70 -405h254l70 405h-254z" />
    <glyph glyph-name="dollar" unicode="$" horiz-adv-x="1163" 
d="M68 401h260q6 -110 72.5 -169.5t172.5 -59.5q108 0 173 55t65 154q0 43 -14.5 75t-46.5 54.5t-65.5 36.5t-88.5 31l-170 49q-48 14 -90 33t-87.5 52t-78 74t-53.5 102.5t-21 133.5q0 159 101 267t272 136v222h209v-224q160 -27 260 -125.5t109 -248.5h-261
q-12 92 -69.5 138t-143.5 46q-91 0 -149.5 -46t-58.5 -134q0 -83 45.5 -123t152.5 -72l170 -51q171 -49 258.5 -144t87.5 -251q0 -176 -107.5 -289.5t-293.5 -138.5v-230h-209v230q-185 23 -290 132t-111 285z" />
    <glyph glyph-name="percent" unicode="%" horiz-adv-x="1660" 
d="M375 688q-161 0 -245.5 102.5t-84.5 266.5t84.5 266t245.5 102q162 0 246 -101.5t84 -266.5t-84 -267t-246 -102zM1286 -16q-161 0 -245.5 102t-84.5 266t84.5 266.5t245.5 102.5t244.5 -102t83.5 -267t-83.5 -266.5t-244.5 -101.5zM391 -25l713 1459h166l-713 -1459
h-166zM1286 141q127 0 127 211t-127 211q-64 0 -96.5 -55t-32.5 -156t32.5 -156t96.5 -55zM375 846q64 0 96.5 55t32.5 156q0 211 -129 211q-127 0 -127 -211q0 -101 32.5 -156t94.5 -55z" />
    <glyph glyph-name="ampersand" unicode="&#x26;" horiz-adv-x="1492" 
d="M80 369q0 75 24.5 137.5t70.5 110t97 82.5t119 69q-90 97 -122.5 164t-32.5 151q0 69 27 131.5t78 112t133 78.5t183 29q200 0 312 -89t112 -239q0 -71 -26.5 -129.5t-79 -104t-104.5 -76t-128 -65.5l312 -309q47 106 47 254v29h233v-41q0 -226 -116 -404l262 -260h-314
l-100 98q-173 -123 -422 -123q-272 0 -418.5 106t-146.5 288zM645 172q160 0 270 76l-389 381q-89 -49 -136.5 -104.5t-47.5 -131.5q0 -103 86.5 -162t216.5 -59zM477 1092q0 -54 29 -102.5t100 -121.5q111 52 169.5 103.5t58.5 124.5q0 69 -47.5 113t-129.5 44
q-85 0 -132.5 -46.5t-47.5 -114.5z" />
    <glyph glyph-name="quotesingle" unicode="'" horiz-adv-x="479" 
d="M156 834l-37 372v203h241v-203l-36 -372h-168z" />
    <glyph glyph-name="parenleft" unicode="(" horiz-adv-x="634" 
d="M31 532q0 155 31.5 309.5t84 281.5t107 224.5t113.5 176.5h239q-49 -63 -101.5 -160.5t-105 -226.5t-86.5 -290t-34 -315q0 -124 24 -256.5t59.5 -240t81.5 -210t86 -172t76 -120.5h-239q-59 78 -113.5 177.5t-107 227.5t-84 283.5t-31.5 310.5z" />
    <glyph glyph-name="parenright" unicode=")" horiz-adv-x="634" 
d="M29 -467q36 51 76 120.5t86 172t81.5 210t59.5 240t24 256.5q0 154 -34 315t-86.5 290t-105 226.5t-101.5 160.5h239q59 -79 113.5 -176.5t107 -224.5t84 -281.5t31.5 -309.5t-31.5 -310.5t-84 -283.5t-107 -227.5t-113.5 -177.5h-239z" />
    <glyph glyph-name="asterisk" unicode="*" horiz-adv-x="964" 
d="M383 1425h195l-31 -251l227 108l62 -186l-246 -49l170 -181l-158 -114l-121 219l-121 -219l-157 112l168 185l-244 47l59 186l228 -104z" />
    <glyph glyph-name="plus" unicode="+" horiz-adv-x="1163" 
d="M119 420v205h354v358h217v-358h354v-205h-354v-359h-217v359h-354z" />
    <glyph glyph-name="comma" unicode="," horiz-adv-x="577" 
d="M268 0h-127v287h297v-269l-112 -364h-129z" />
    <glyph glyph-name="hyphen" unicode="-" horiz-adv-x="811" 
d="M109 403v226h593v-226h-593z" />
    <glyph glyph-name="period" unicode="." horiz-adv-x="577" 
d="M141 0v287h297v-287h-297z" />
    <glyph glyph-name="slash" unicode="/" horiz-adv-x="872" 
d="M8 -25l631 1459h223l-631 -1459h-223z" />
    <glyph glyph-name="zero" unicode="0" horiz-adv-x="1163" 
d="M582 -25q-108 0 -195 37t-146 102t-98 157.5t-57 200t-18 233.5t18 233.5t57 200t98 157.5t146 101.5t195 36.5t195 -36.5t146 -101.5t98 -157.5t57 -200t18 -233.5t-18 -233.5t-57 -200t-98 -157.5t-146 -102t-195 -37zM582 193q243 0 243 512t-243 512
q-125 0 -184.5 -127.5t-59.5 -384.5q0 -512 244 -512z" />
    <glyph glyph-name="one" unicode="1" horiz-adv-x="1163" 
d="M217 899l-108 186l473 324h172v-1196h317v-213h-917v213h338v872z" />
    <glyph glyph-name="two" unicode="2" horiz-adv-x="1163" 
d="M92 0q7 244 82 387.5t248 253.5l162 102q113 70 161 126.5t48 148.5q0 87 -52.5 145t-158.5 58q-103 0 -159.5 -61t-62.5 -181h-256q4 99 32.5 177.5t73.5 130t106.5 85t128 48t141.5 14.5q212 0 342.5 -110.5t130.5 -299.5q0 -83 -20 -149.5t-63 -119.5t-92 -93
t-124 -87l-164 -102q-116 -76 -156 -132.5t-47 -127.5h670v-213h-971z" />
    <glyph glyph-name="three" unicode="3" horiz-adv-x="1163" 
d="M76 426h258q0 -124 66 -187t173 -63q109 0 174.5 58.5t65.5 164.5q0 101 -68.5 162.5t-171.5 61.5h-110v208h110q87 0 148 57t61 150q0 90 -60 142.5t-149 52.5q-91 0 -149.5 -55.5t-58.5 -161.5h-240q0 131 59.5 226.5t160 143.5t228.5 48q203 0 332 -105t129 -278
q0 -101 -59.5 -190.5t-145.5 -123.5v-8q112 -34 181 -127.5t69 -220.5q0 -190 -141.5 -298t-364.5 -108q-232 0 -364.5 111.5t-132.5 339.5z" />
    <glyph glyph-name="four" unicode="4" horiz-adv-x="1163" 
d="M51 307v168l660 934h223v-889h178v-213h-178v-307h-262v307h-621zM307 520h365v512z" />
    <glyph glyph-name="five" unicode="5" horiz-adv-x="1163" 
d="M84 377h258q13 -84 71.5 -140.5t161.5 -56.5q100 0 167 68.5t67 189.5q0 119 -65.5 188.5t-168.5 69.5q-70 0 -119 -33.5t-91 -93.5l-240 27l45 813h825v-217h-594l-22 -367h10q83 76 236 76q199 0 323.5 -120t124.5 -330q0 -118 -40 -210.5t-109 -149.5t-157 -86.5
t-189 -29.5q-223 0 -349.5 107.5t-144.5 294.5z" />
    <glyph glyph-name="six" unicode="6" horiz-adv-x="1163" 
d="M80 672q0 165 30 296.5t81 217.5t121.5 142.5t148.5 81t166 24.5q204 0 313 -101t129 -276h-256q-26 172 -190 172q-51 0 -95 -24.5t-82.5 -77t-63 -146.5t-30.5 -223q39 66 125 104.5t185 38.5q89 0 167.5 -29.5t139.5 -84.5t97 -143.5t36 -197.5q0 -111 -40.5 -202
t-109.5 -148.5t-157 -89t-185 -31.5q-114 0 -207 37t-167 116t-115 217.5t-41 326.5zM612 696q-104 0 -170.5 -70t-66.5 -186q0 -115 64.5 -187.5t164.5 -72.5q103 0 168.5 69.5t65.5 192.5q0 114 -64.5 184t-161.5 70z" />
    <glyph glyph-name="seven" unicode="7" horiz-adv-x="1163" 
d="M250 0l555 1182h-713v227h995v-162l-567 -1247h-270z" />
    <glyph glyph-name="eight" unicode="8" horiz-adv-x="1163" 
d="M72 381q0 127 69 220.5t181 127.5v8q-89 31 -147 119t-58 191q0 177 128.5 282t336.5 105t336.5 -105t128.5 -282q0 -103 -58 -191t-147 -119v-8q112 -34 181 -127.5t69 -220.5q0 -192 -139 -299t-371 -107t-371 107t-139 299zM338 399q0 -106 68 -164.5t176 -58.5
t175.5 58.5t67.5 164.5q0 100 -68.5 162t-174.5 62t-175 -62t-69 -162zM582 831q92 0 152.5 56.5t60.5 150.5q0 90 -60.5 144.5t-152.5 54.5t-152.5 -54.5t-60.5 -144.5q0 -94 60.5 -150.5t152.5 -56.5z" />
    <glyph glyph-name="nine" unicode="9" horiz-adv-x="1163" 
d="M1079 737q0 -762 -534 -762q-206 0 -318 101t-135 276h254q12 -76 61 -124t142 -48q120 0 184.5 108.5t73.5 362.5q-39 -66 -124.5 -104.5t-180.5 -38.5q-90 0 -169 29.5t-140.5 84.5t-97.5 143t-36 198q0 111 40.5 202t109 148.5t156 89t184.5 31.5q114 0 207 -37
t167 -116t115 -217.5t41 -326.5zM547 713q105 0 171 72.5t66 191.5q0 112 -64.5 182t-164.5 70q-101 0 -167 -70t-66 -192q0 -114 64 -184t161 -70z" />
    <glyph glyph-name="colon" unicode=":" horiz-adv-x="577" 
d="M141 713v286h297v-286h-297zM141 0v287h297v-287h-297z" />
    <glyph glyph-name="semicolon" unicode=";" horiz-adv-x="577" 
d="M141 713v286h297v-286h-297zM268 0h-127v287h297v-269l-112 -364h-129z" />
    <glyph glyph-name="less" unicode="&#x3c;" horiz-adv-x="1163" 
d="M147 416v213l869 360v-223l-625 -242l625 -243v-230z" />
    <glyph glyph-name="equal" unicode="=" horiz-adv-x="1163" 
d="M115 641v205h934v-205h-934zM115 195v204h934v-204h-934z" />
    <glyph glyph-name="greater" unicode="&#x3e;" horiz-adv-x="1163" 
d="M1016 625v-213l-869 -361v223l623 240l-623 246v229z" />
    <glyph glyph-name="question" unicode="?" horiz-adv-x="1058" 
d="M391 424v49q0 75 19.5 136t50.5 101t68.5 73t75 60t68.5 53.5t50.5 62.5t19.5 79q0 79 -54.5 131t-147.5 52q-118 0 -176 -67.5t-58 -170.5h-252q0 90 28.5 168.5t85 143t152.5 102t220 37.5q210 0 338.5 -102t128.5 -281q0 -69 -20.5 -125t-53 -94t-71.5 -70
t-78.5 -60.5t-72 -58t-53 -70.5t-20.5 -90v-59h-248zM379 0v270h272v-270h-272z" />
    <glyph glyph-name="at" unicode="@" horiz-adv-x="2117" 
d="M578 262q0 126 81 201t256 102l193 29q75 11 101 27t26 55q0 76 -44 120t-134 44q-182 0 -195 -164h-248q10 165 128.5 256.5t310.5 91.5q446 0 446 -381v-305q0 -209 133 -209q89 0 149 107t60 321q0 166 -59 303t-163 228.5t-246.5 141.5t-307.5 50
q-177 0 -326.5 -63.5t-250 -173t-156.5 -258.5t-56 -318q0 -177 55.5 -324t154 -246.5t235.5 -154.5t297 -55q293 0 434 141h231q-219 -295 -665 -295q-196 0 -365.5 67.5t-292 188.5t-192.5 296t-70 382q0 199 69.5 375.5t193.5 307.5t306.5 207.5t397.5 76.5
q203 0 378.5 -63t303 -175.5t200 -277.5t72.5 -361q0 -149 -35 -262.5t-96.5 -180.5t-138.5 -100.5t-166 -33.5q-234 0 -303 155q-57 -85 -147 -122.5t-218 -37.5q-163 0 -250 78.5t-87 208.5zM991 152q99 0 171.5 62.5t72.5 174.5v103q-23 -35 -98 -48l-158 -24
q-143 -22 -143 -137q0 -60 43 -95.5t112 -35.5z" />
    <glyph glyph-name="A" unicode="A" horiz-adv-x="1404" 
d="M16 0l525 1409h323l525 -1409h-291l-109 315h-583l-111 -315h-279zM705 1149h-9l-215 -612h432z" />
    <glyph glyph-name="B" unicode="B" horiz-adv-x="1435" 
d="M160 0v1409h665q230 0 345.5 -96t115.5 -273q0 -104 -55.5 -181.5t-165.5 -108.5v-9q129 -23 203.5 -111t74.5 -212q0 -186 -124.5 -302t-352.5 -116h-706zM829 625h-393v-408h391q119 0 178.5 56.5t59.5 154.5q0 91 -60.5 144t-175.5 53zM791 1192h-355v-363h352
q110 0 167 53t57 140q0 170 -221 170z" />
    <glyph glyph-name="C" unicode="C" horiz-adv-x="1499" 
d="M90 705q0 208 85.5 373t246.5 260.5t371 95.5q257 0 420.5 -131t203.5 -359h-274q-34 124 -122.5 189t-227.5 65q-192 0 -306 -136.5t-114 -356.5q0 -216 116 -355t304 -139q146 0 230.5 64t119.5 190h274q-40 -227 -205.5 -358.5t-423.5 -131.5q-213 0 -372.5 95
t-242.5 260t-83 375z" />
    <glyph glyph-name="D" unicode="D" horiz-adv-x="1505" 
d="M166 0v1409h502q181 0 324.5 -52.5t235 -147t139.5 -222.5t48 -282t-48 -282.5t-139.5 -223t-235 -147t-324.5 -52.5h-502zM649 1182h-209v-955h209q128 0 223.5 38t151 105.5t82.5 151t27 183.5t-27 183.5t-82.5 150.5t-151 105t-223.5 38z" />
    <glyph glyph-name="E" unicode="E" horiz-adv-x="1310" 
d="M166 0v1409h1022v-227h-748v-355h602v-217h-602v-383h766v-227h-1040z" />
    <glyph glyph-name="F" unicode="F" horiz-adv-x="1236" 
d="M166 0v1409h997v-227h-723v-432h578v-226h-578v-524h-274z" />
    <glyph glyph-name="G" unicode="G" horiz-adv-x="1587" 
d="M1264 0l-31 170h-4q-141 -195 -436 -195q-157 0 -289.5 55.5t-223 153t-140.5 232t-50 289.5q0 210 88.5 375.5t254 259.5t380.5 94q257 0 424.5 -128.5t204.5 -326.5h-275q-30 96 -119.5 157.5t-234.5 61.5q-199 0 -319.5 -136t-120.5 -357q0 -220 120 -357t316 -137
q165 0 275 88.5t110 241.5v10h-381v209h625v-760h-174z" />
    <glyph glyph-name="H" unicode="H" horiz-adv-x="1544" 
d="M166 0v1409h274v-580h664v580h274v-1409h-274v596h-664v-596h-274z" />
    <glyph glyph-name="I" unicode="I" horiz-adv-x="606" 
d="M166 0v1409h274v-1409h-274z" />
    <glyph glyph-name="J" unicode="J" horiz-adv-x="1138" 
d="M74 424v61h270v-55q0 -117 50 -172t138 -55q187 0 187 237v969h276v-967q0 -467 -463 -467q-213 0 -335.5 109.5t-122.5 339.5z" />
    <glyph glyph-name="K" unicode="K" horiz-adv-x="1425" 
d="M166 0v1409h274v-668l619 668h317l-571 -606l604 -803h-315l-465 616l-189 -200v-416h-274z" />
    <glyph glyph-name="L" unicode="L" horiz-adv-x="1185" 
d="M166 0v1409h274v-1178h674v-231h-948z" />
    <glyph glyph-name="M" unicode="M" horiz-adv-x="1918" 
d="M166 0v1409h369l426 -1034h6l426 1034h360v-1409h-274l20 1032h-8l-428 -1032h-207l-428 1018h-8l20 -1018h-274z" />
    <glyph glyph-name="N" unicode="N" horiz-adv-x="1560" 
d="M166 0v1409h248l706 -942h8l-8 942h275v-1409h-244l-711 942h-8l8 -942h-274z" />
    <glyph glyph-name="O" unicode="O" horiz-adv-x="1615" 
d="M90 705q0 209 88 374.5t252.5 260t378.5 94.5q210 0 374.5 -94.5t253.5 -260t89 -374.5q0 -156 -52.5 -291t-145.5 -232t-227 -152t-292 -55q-214 0 -378.5 95t-252.5 260.5t-88 374.5zM373 705q0 -217 120.5 -355.5t315.5 -138.5q193 0 313.5 139t120.5 355
t-120.5 354.5t-313.5 138.5q-195 0 -315.5 -138t-120.5 -355z" />
    <glyph glyph-name="P" unicode="P" horiz-adv-x="1382" 
d="M166 0v1409h606q247 0 384.5 -127.5t137.5 -337.5q0 -215 -138 -349t-384 -134h-332v-461h-274zM748 1188h-308v-506h308q130 0 199 71t69 187q0 114 -69 181t-199 67z" />
    <glyph glyph-name="Q" unicode="Q" horiz-adv-x="1622" 
d="M90 705q0 209 88 374.5t252.5 260t378.5 94.5q210 0 374.5 -94.5t253.5 -260t89 -374.5q0 -160 -54 -296.5t-153 -234.5l260 -270l-172 -170l-287 303q-146 -62 -311 -62q-214 0 -378.5 95t-252.5 260.5t-88 374.5zM373 705q0 -217 120.5 -355.5t315.5 -138.5
q193 0 313.5 139t120.5 355t-120.5 354.5t-313.5 138.5q-195 0 -315.5 -138t-120.5 -355z" />
    <glyph glyph-name="R" unicode="R" horiz-adv-x="1421" 
d="M166 0v1409h604q251 0 385.5 -115.5t134.5 -322.5q0 -153 -76.5 -264.5t-220.5 -161.5l350 -545h-299l-323 512h-281v-512h-274zM758 1188h-318v-461h318q122 0 188 67t66 175q0 102 -66 160.5t-188 58.5z" />
    <glyph glyph-name="S" unicode="S" horiz-adv-x="1368" 
d="M102 401h269q0 -101 83 -161t220 -60q148 0 229.5 56t81.5 157q0 52 -29.5 88t-79 56.5t-114 34.5t-136 27t-143 29t-136 45t-114 70t-79 109t-29.5 158q0 185 151.5 304.5t401.5 119.5q248 0 395.5 -110t147.5 -296h-269q0 94 -76 147.5t-198 53.5q-123 0 -201 -50.5
t-78 -142.5q0 -51 29.5 -87t80 -56t115.5 -34t136.5 -26.5t143.5 -28.5t137 -45t115.5 -70t80 -110t29.5 -159q0 -202 -156.5 -323.5t-435.5 -121.5q-275 0 -423.5 113.5t-148.5 312.5z" />
    <glyph glyph-name="T" unicode="T" horiz-adv-x="1261" 
d="M16 1180v229h1229v-229h-477v-1180h-274v1180h-478z" />
    <glyph glyph-name="U" unicode="U" horiz-adv-x="1492" 
d="M139 565v844h277v-840q0 -174 83.5 -266t248.5 -92q164 0 246.5 92t82.5 266v840h277v-844q0 -590 -606 -590q-609 0 -609 590z" />
    <glyph glyph-name="V" unicode="V" horiz-adv-x="1372" 
d="M522 0l-506 1409h291l377 -1149h8l385 1149h279l-510 -1409h-324z" />
    <glyph glyph-name="W" unicode="W" horiz-adv-x="2002" 
d="M383 0l-363 1409h295l252 -1114h8l289 1114h285l295 -1114h8l244 1114h286l-356 -1409h-340l-280 1061h-9l-276 -1061h-338z" />
    <glyph glyph-name="X" unicode="X" horiz-adv-x="1341" 
d="M16 0l494 719l-477 690h315l324 -485l317 485h303l-469 -686l502 -723h-315l-348 520l-343 -520h-303z" />
    <glyph glyph-name="Y" unicode="Y" horiz-adv-x="1361" 
d="M539 0v541l-519 868h312l346 -606h8l365 606h290l-526 -860v-549h-276z" />
    <glyph glyph-name="Z" unicode="Z" horiz-adv-x="1253" 
d="M100 1184v225h1082v-160l-752 -1024h748v-225h-1108v160l753 1024h-723z" />
    <glyph glyph-name="bracketleft" unicode="[" horiz-adv-x="714" 
d="M393 -262h291v-205h-530v1991h530v-205h-291v-1581z" />
    <glyph glyph-name="backslash" unicode="\" horiz-adv-x="872" 
d="M639 -25l-631 1459h223l631 -1459h-223z" />
    <glyph glyph-name="bracketright" unicode="]" horiz-adv-x="714" 
d="M29 -262h293v1581h-293v205h530v-1991h-530v205z" />
    <glyph glyph-name="asciicircum" unicode="^" horiz-adv-x="1163" 
d="M94 721l373 688h217v-2l8 2l375 -688h-238l-251 481l-252 -481h-232z" />
    <glyph glyph-name="underscore" unicode="_" horiz-adv-x="1024" 
d="M0 -147h1024v-211h-1024v211z" />
    <glyph glyph-name="grave" unicode="`" horiz-adv-x="1200" 
d="M512 1163l-303 336h276l207 -336h-180z" />
    <glyph glyph-name="a" unicode="a" horiz-adv-x="1140" 
d="M86 258q0 128 82 203t258 102l192 29q78 12 102.5 28t24.5 52q-2 77 -45.5 122.5t-132.5 45.5q-90 0 -140 -43.5t-56 -120.5h-246q10 164 131 256t311 92q220 0 331.5 -93t111.5 -272v-659h-252v119h-13q-45 -69 -126.5 -106.5t-192.5 -37.5q-163 0 -251.5 77t-88.5 206z
M502 160q102 0 172.5 62t70.5 181v89q-23 -35 -98 -48l-153 -24q-148 -25 -148 -135q0 -59 40 -92t116 -33z" />
    <glyph glyph-name="b" unicode="b" horiz-adv-x="1259" 
d="M143 0v1499h265v-307q0 -194 -13 -336h8q42 83 126.5 125.5t201.5 42.5q95 0 177 -34t143 -97.5t96 -162.5t35 -222t-36.5 -224.5t-100 -168.5t-148.5 -103.5t-182 -36.5q-226 0 -312 168h-8v-143h-252zM408 500q0 -149 70 -236.5t184 -87.5q111 0 180 91t69 241
q0 148 -68.5 231.5t-180.5 83.5q-111 0 -181 -83t-73 -226v-14z" />
    <glyph glyph-name="c" unicode="c" horiz-adv-x="1132" 
d="M74 500q0 243 143 383.5t377 140.5q212 0 335.5 -104.5t141.5 -268.5h-260q-11 74 -66.5 123t-150.5 49q-110 0 -179 -90t-69 -233t69 -233.5t179 -90.5q96 0 150 48.5t67 123.5h260q-18 -165 -140.5 -269t-336.5 -104q-241 0 -380.5 138.5t-139.5 386.5z" />
    <glyph glyph-name="d" unicode="d" horiz-adv-x="1259" 
d="M78 492q0 163 63.5 285.5t168.5 184.5t235 62q225 0 311 -168h8q-12 131 -12 336v307h264v-1499h-252v143h-8q-42 -83 -126.5 -125.5t-201.5 -42.5q-94 0 -175.5 34t-143 98t-96.5 163t-35 222zM350 492q0 -149 68 -232.5t182 -83.5q109 0 178.5 83t73.5 224v17
q0 149 -70 236t-182 87q-113 0 -181.5 -90.5t-68.5 -240.5z" />
    <glyph glyph-name="e" unicode="e" horiz-adv-x="1155" 
d="M74 496q0 241 143.5 384.5t374.5 143.5q226 0 357.5 -131t131.5 -367v-73h-737q9 -135 76.5 -210t179.5 -75q90 0 143.5 40t71.5 95h256q-24 -139 -153 -233.5t-322 -94.5q-248 0 -385 135.5t-137 385.5zM592 834q-92 0 -154.5 -56.5t-85.5 -161.5h461q-26 218 -221 218z
" />
    <glyph glyph-name="f" unicode="f" horiz-adv-x="698" 
d="M193 0v803h-189v196h189v119q0 197 89.5 289t295.5 92h141v-205h-98q-91 0 -127.5 -39.5t-36.5 -130.5v-125h229v-196h-229v-803h-264z" />
    <glyph glyph-name="g" unicode="g" horiz-adv-x="1259" 
d="M106 -123h248q3 -72 67 -116t165 -44q138 0 208 79.5t70 256.5v90h-8q-42 -83 -126.5 -125.5t-201.5 -42.5q-94 0 -175.5 34t-143 98t-96.5 163t-35 222q0 163 63.5 285.5t168.5 184.5t235 62q225 0 311 -168h8v143h252v-946q0 -138 -37.5 -239t-108.5 -162t-166 -90
t-218 -29q-218 0 -346 87t-134 257zM350 492q0 -149 68 -232.5t182 -83.5q112 0 182 87.5t70 236.5v14q-4 143 -73.5 226t-178.5 83q-113 0 -181.5 -90.5t-68.5 -240.5z" />
    <glyph glyph-name="h" unicode="h" horiz-adv-x="1226" 
d="M143 0v1499h265v-307q0 -192 -13 -336h8q42 82 122 125t186 43q64 0 119 -13.5t105 -44.5t85 -78t55.5 -119t20.5 -163v-606h-265v573q0 132 -50.5 189t-143.5 57q-100 0 -164.5 -78.5t-64.5 -212.5v-528h-265z" />
    <glyph glyph-name="i" unicode="i" horiz-adv-x="550" 
d="M135 1253v246h281v-246h-281zM143 0v999h265v-999h-265z" />
    <glyph glyph-name="j" unicode="j" horiz-adv-x="550" 
d="M135 1253v246h281v-246h-281zM143 -94v1093h265v-1112q0 -168 -79.5 -253t-271.5 -85h-84v205h54q64 0 90 36.5t26 115.5z" />
    <glyph glyph-name="k" unicode="k" horiz-adv-x="1126" 
d="M143 0v1499h265v-915l374 415h299l-372 -399l409 -600h-303l-280 414l-127 -135v-279h-265z" />
    <glyph glyph-name="l" unicode="l" horiz-adv-x="550" 
d="M143 0v1499h265v-1499h-265z" />
    <glyph glyph-name="m" unicode="m" horiz-adv-x="1863" 
d="M143 0v999h252v-143h8q42 82 121.5 125t182.5 43q242 0 325 -195q100 195 336 195q78 0 142 -22t115 -68.5t79.5 -128t28.5 -191.5v-614h-265v586q0 126 -44.5 179.5t-133.5 53.5q-96 0 -158.5 -79t-62.5 -212v-528h-262v586q0 125 -45.5 179t-132.5 54q-95 0 -158 -77.5
t-63 -211.5v-530h-265z" />
    <glyph glyph-name="n" unicode="n" horiz-adv-x="1226" 
d="M143 0v999h252v-143h8q42 82 122 125t186 43q64 0 119 -13.5t105 -44.5t85 -78t55.5 -119t20.5 -163v-606h-265v573q0 132 -50.5 189t-143.5 57q-101 0 -165 -79t-64 -214v-526h-265z" />
    <glyph glyph-name="o" unicode="o" horiz-adv-x="1214" 
d="M78 500q0 242 147.5 383t382.5 141q241 0 385 -139t144 -385q0 -242 -148 -383.5t-381 -141.5q-242 0 -386 139.5t-144 385.5zM350 500q0 -149 70.5 -236.5t187.5 -87.5t186.5 87.5t69.5 236.5q0 151 -69 236t-187 85t-188 -86.5t-70 -234.5z" />
    <glyph glyph-name="p" unicode="p" horiz-adv-x="1259" 
d="M408 -193v-258h-265v1450h252v-143h8q42 83 126.5 125.5t201.5 42.5q95 0 177 -34t143 -97.5t96 -162.5t35 -222t-36.5 -224.5t-100 -168.5t-148.5 -103.5t-182 -36.5q-226 0 -312 168h-8q13 -142 13 -336zM911 508q0 148 -68.5 231.5t-180.5 83.5q-111 0 -181 -83
t-73 -226v-14q0 -149 70 -236.5t184 -87.5q111 0 180 91t69 241z" />
    <glyph glyph-name="q" unicode="q" horiz-adv-x="1255" 
d="M852 -193q0 205 12 336h-8q-42 -83 -126.5 -125.5t-201.5 -42.5q-94 0 -175.5 34t-143 98t-96.5 163t-35 222q0 163 63.5 285.5t168.5 184.5t235 62q225 0 311 -168h8v143h252v-1450h-264v258zM350 492q0 -149 68 -232.5t182 -83.5q112 0 182 87.5t70 236.5t-70 236
t-182 87q-113 0 -181.5 -90.5t-68.5 -240.5z" />
    <glyph glyph-name="r" unicode="r" horiz-adv-x="808" 
d="M143 0v999h252v-151h4q38 83 105.5 129.5t161.5 46.5q79 0 139 -41l-53 -227q-63 32 -123 32q-108 0 -164.5 -86t-56.5 -225v-477h-265z" />
    <glyph glyph-name="s" unicode="s" horiz-adv-x="1079" 
d="M70 287h247q0 -48 32 -80t77 -44.5t100 -12.5q103 0 157 32t54 92q0 50 -35.5 75t-111.5 38l-182 29q-69 11 -122 29.5t-97.5 50.5t-68.5 83t-24 119q0 154 123 240t318 86q197 0 316.5 -77.5t119.5 -225.5h-244q0 65 -54 97t-140 32q-83 0 -134 -31t-51 -86
q0 -48 35.5 -73.5t122.5 -38.5l180 -29q67 -11 118 -29t97 -49.5t71 -83.5t25 -121q0 -163 -129 -248.5t-344 -85.5q-208 0 -332 79t-124 233z" />
    <glyph glyph-name="t" unicode="t" horiz-adv-x="739" 
d="M180 344v459h-188v196h188v304h262v-304h248v-196h-248v-443q0 -80 31.5 -113.5t108.5 -33.5h108v-213h-160q-194 0 -272 77.5t-78 266.5z" />
    <glyph glyph-name="u" unicode="u" horiz-adv-x="1218" 
d="M127 393v606h264v-573q0 -132 50.5 -189t144.5 -57q99 0 162 78t63 213v528h262v-999h-250v143h-8q-42 -83 -120 -125.5t-183 -42.5q-64 0 -119 13.5t-105 44.5t-85 78t-55.5 119t-20.5 163z" />
    <glyph glyph-name="v" unicode="v" horiz-adv-x="1060" 
d="M377 0l-369 999h287l242 -739h8l239 739h269l-359 -999h-317z" />
    <glyph glyph-name="w" unicode="w" horiz-adv-x="1589" 
d="M303 0l-291 999h264l183 -739h8l203 739h258l202 -739h9l182 739h256l-291 -999h-297l-190 729h-8l-193 -729h-295z" />
    <glyph glyph-name="x" unicode="x" horiz-adv-x="1032" 
d="M16 0l355 504l-346 495h297l208 -317l203 317h275l-349 -493l357 -506h-295l-219 328l-209 -328h-277z" />
    <glyph glyph-name="y" unicode="y" horiz-adv-x="1060" 
d="M377 0l-369 999h287l242 -739h8l239 739h269l-400 -1122q-118 -344 -405 -344h-121v209h61q89 0 148 44t90 142l23 72h-72z" />
    <glyph glyph-name="z" unicode="z" horiz-adv-x="980" 
d="M66 799v200h841v-153l-504 -645h512v-201h-845v143l512 656h-516z" />
    <glyph glyph-name="braceleft" unicode="{" horiz-adv-x="786" 
d="M256 -137v307q0 155 -45.5 212.5t-183.5 57.5v193q138 0 183.5 57.5t45.5 212.5v291q0 175 81 252.5t279 77.5h140v-199h-105q-91 0 -124 -36t-33 -128v-350q0 -113 -46.5 -176.5t-158.5 -93.5v-9q112 -30 158.5 -93.5t46.5 -176.5v-366q0 -92 33 -128t124 -36h105v-199
h-140q-198 0 -279 77.5t-81 252.5z" />
    <glyph glyph-name="bar" unicode="|" horiz-adv-x="583" 
d="M180 -492v2048h223v-2048h-223z" />
    <glyph glyph-name="braceright" unicode="}" horiz-adv-x="786" 
d="M29 -268h106q91 0 123.5 36t32.5 128v366q0 113 46.5 176.5t158.5 93.5v9q-112 30 -158.5 93.5t-46.5 176.5v350q0 92 -32.5 128t-123.5 36h-106v199h141q198 0 279 -77.5t81 -252.5v-291q0 -155 46 -212.5t184 -57.5v-193q-138 0 -184 -57.5t-46 -212.5v-307
q0 -175 -81 -252.5t-279 -77.5h-141v199z" />
    <glyph glyph-name="asciitilde" unicode="~" horiz-adv-x="1163" 
d="M100 358q0 91 23 161.5t63 112t89.5 62.5t105.5 21q63 0 124 -23t101 -50t86 -50t82 -23q100 0 100 154h193q0 -177 -80 -267.5t-196 -90.5q-63 0 -125 23.5t-103 51t-88.5 51t-83.5 23.5q-98 0 -98 -156h-193z" />
    <glyph glyph-name="exclamdown" unicode="&#xa1;" horiz-adv-x="587" 
d="M158 729v270h272v-270h-272zM154 -25l65 605h152l63 -605v-385h-280v385z" />
    <glyph glyph-name="cent" unicode="&#xa2;" horiz-adv-x="1163" 
d="M502 -25v222q-193 31 -303.5 168t-110.5 348q0 209 115.5 347t306.5 169v205h209v-205q162 -27 257 -126.5t111 -238.5h-260q-11 74 -66.5 123t-150.5 49q-112 0 -181 -90t-69 -233t69 -233.5t181 -90.5q96 0 150 48.5t67 123.5h260q-16 -142 -112.5 -241.5
t-263.5 -124.5v-220h-209z" />
    <glyph glyph-name="sterling" unicode="&#xa3;" horiz-adv-x="1163" 
d="M123 651v152h162q-62 162 -62 270q0 165 111 263t301 98q183 0 281.5 -92.5t109.5 -268.5h-242q-7 92 -45 134t-110 42q-64 0 -107 -42.5t-43 -116.5q0 -46 11.5 -99.5t24 -89.5t36.5 -98h313v-152h-262q27 -106 27 -172q0 -104 -31 -209q70 -49 118 -73.5t93 -24.5
q115 0 121 186h200q-3 -66 -12.5 -120.5t-31.5 -104.5t-55 -84t-83.5 -54t-116.5 -20q-83 0 -154.5 38t-152.5 106q-102 -144 -272 -144q-109 0 -178.5 55.5t-69.5 155.5q0 107 69.5 170.5t184.5 63.5q54 0 127 -25v45q0 86 -41 211h-221zM250 104q88 0 119 140
q-66 39 -117 39q-39 0 -64.5 -26.5t-25.5 -63.5q0 -39 23 -64t65 -25z" />
    <glyph glyph-name="currency" unicode="&#xa4;" horiz-adv-x="1163" 
d="M283 287l-117 114l121 123q-54 89 -54 181q0 95 56 178l-121 123l117 114l123 -125q76 45 174 45q96 0 172 -45l125 125l116 -114l-121 -123q56 -83 56 -178q0 -94 -56 -181l123 -123l-116 -114l-127 127q-73 -45 -172 -45q-98 0 -174 45zM582 526q75 0 122.5 48.5
t47.5 130.5t-47.5 130t-122.5 48t-122.5 -48t-47.5 -130t47.5 -130.5t122.5 -48.5z" />
    <glyph glyph-name="yen" unicode="&#xa5;" horiz-adv-x="1163" 
d="M168 477v137h281l-447 795h303l279 -539h8l287 539h282l-446 -795h280v-137h-282v-133h282v-137h-282v-207h-262v207h-283v137h283v133h-283z" />
    <glyph glyph-name="brokenbar" unicode="&#xa6;" horiz-adv-x="583" 
d="M180 688v721h223v-721h-223zM180 -336v721h223v-721h-223z" />
    <glyph glyph-name="section" unicode="&#xa7;" horiz-adv-x="1179" 
d="M113 -143h243q6 -74 68.5 -112t153.5 -38q105 0 162 42.5t57 119.5q0 66 -44 102t-141 64l-204 57q-308 88 -308 352q0 106 62 193t172 131q-197 96 -197 299q0 165 122.5 266t342.5 101q201 0 327 -84t138 -240h-244q-7 74 -68.5 112t-152.5 38q-105 0 -163 -42.5
t-58 -119.5q0 -66 44 -102t142 -64l203 -58q309 -88 309 -352q0 -106 -62.5 -193.5t-170.5 -131.5q196 -97 196 -297q0 -165 -123 -266t-341 -101q-202 0 -327.5 84t-137.5 240zM651 670l-121 32q-91 -22 -140.5 -79t-49.5 -127q0 -79 44.5 -125t143.5 -74l113 -33
q94 21 146.5 78.5t52.5 128.5q0 79 -44.5 125t-144.5 74z" />
    <glyph glyph-name="dieresis" unicode="&#xa8;" horiz-adv-x="1200" 
d="M702 1223v237h242v-237h-242zM256 1223v237h240v-237h-240z" />
    <glyph glyph-name="copyright" unicode="&#xa9;" horiz-adv-x="1589" 
d="M70 713q0 204 93 368.5t259 258.5t373 94q152 0 286.5 -55t231 -150.5t152 -229.5t55.5 -286q0 -204 -93 -373t-259.5 -267t-372.5 -98t-372.5 98t-259.5 267t-93 373zM236 713q0 -165 70 -302t199 -217.5t290 -80.5q158 0 286.5 80.5t200.5 218t72 301.5
q0 250 -156.5 412.5t-402.5 162.5t-402.5 -162.5t-156.5 -412.5zM438 713q0 154 98.5 257t262.5 103q127 0 211.5 -67t103.5 -179h-174q-34 97 -141 97q-78 0 -126 -60.5t-48 -150.5q0 -91 48 -152t126 -61q107 0 141 96h174q-19 -111 -103 -177.5t-212 -66.5
q-165 0 -263 103t-98 258z" />
    <glyph glyph-name="ordfeminine" unicode="&#xaa;" horiz-adv-x="827" 
d="M307 688q-114 0 -175.5 54t-61.5 145q0 188 237 217l131 16q56 7 73 20t17 44q0 43 -28 70.5t-84 27.5q-116 0 -125 -108h-193q4 66 31 116t71 79t98 43.5t118 14.5q321 0 321 -270v-452h-200v79h-9q-67 -96 -221 -96zM528 973v63q-16 -24 -63 -30l-92 -13
q-94 -10 -94 -84q0 -40 26.5 -62t73.5 -22q62 0 105.5 38t43.5 110z" />
    <glyph glyph-name="guillemotleft" unicode="&#xab;" horiz-adv-x="1150" 
d="M545 516l291 418h215l-230 -418l230 -418h-215zM389 98l-291 418l291 418h217l-231 -418l231 -418h-217z" />
    <glyph glyph-name="logicalnot" unicode="&#xac;" horiz-adv-x="1163" 
d="M119 420v205h925v-568h-217v363h-708z" />
    <glyph glyph-name="uni00AD" unicode="&#xad;" horiz-adv-x="811" 
d="M109 403v226h593v-226h-593z" />
    <glyph glyph-name="registered" unicode="&#xae;" horiz-adv-x="1589" 
d="M70 713q0 204 93 368.5t259 258.5t373 94q152 0 286.5 -55t231 -150.5t152 -229.5t55.5 -286q0 -204 -93 -373t-259.5 -267t-372.5 -98t-372.5 98t-259.5 267t-93 373zM236 713q0 -165 70 -302t199 -217.5t290 -80.5q158 0 286.5 80.5t200.5 218t72 301.5
q0 250 -156.5 412.5t-402.5 162.5t-402.5 -162.5t-156.5 -412.5zM494 360v705h344q133 0 203.5 -60.5t70.5 -168.5q0 -71 -39.5 -128t-109.5 -85l174 -263h-195l-147 240h-121v-240h-180zM827 920h-153v-179h153q50 0 77.5 24t27.5 66q0 41 -28 65t-77 24z" />
    <glyph glyph-name="macron" unicode="&#xaf;" horiz-adv-x="1200" 
d="M291 1243v176h610v-176h-610z" />
    <glyph glyph-name="degree" unicode="&#xb0;" horiz-adv-x="813" 
d="M406 817q-141 0 -232.5 86t-91.5 221q0 137 91.5 223.5t232.5 86.5t233 -86.5t92 -223.5q0 -135 -92 -221t-233 -86zM406 1272q-59 0 -99.5 -40.5t-40.5 -107.5q0 -66 40.5 -106.5t99.5 -40.5q60 0 99.5 40.5t39.5 106.5q0 67 -39.5 107.5t-99.5 40.5z" />
    <glyph glyph-name="plusminus" unicode="&#xb1;" horiz-adv-x="1163" 
d="M123 670v204h350v328h217v-328h359v-204h-359v-328h-217v328h-350zM115 0v205h934v-205h-934z" />
    <glyph glyph-name="acute" unicode="&#xb4;" horiz-adv-x="1200" 
d="M508 1163l205 336h278l-303 -336h-180z" />
    <glyph glyph-name="mu" unicode="&#xb5;" horiz-adv-x="1220" 
d="M831 0v143h-8q-83 -168 -299 -168q-82 0 -149 37q24 -193 24 -338v-125h-262v1450h262v-573q0 -132 50.5 -189t146.5 -57q101 0 162 80t61 215v524h264v-999h-252z" />
    <glyph glyph-name="paragraph" unicode="&#xb6;" horiz-adv-x="1286" 
d="M893 0v1409h237v-1409h-237zM506 0v510q-199 25 -311.5 141.5t-112.5 306.5q0 206 138 328.5t378 122.5h145v-1409h-237z" />
    <glyph glyph-name="periodcentered" unicode="&#xb7;" horiz-adv-x="577" 
d="M141 379v278h297v-278h-297z" />
    <glyph glyph-name="cedilla" unicode="&#xb8;" horiz-adv-x="1200" 
d="M496 -180l63 180h84v-78q89 -3 138.5 -52t49.5 -124q0 -88 -60.5 -142.5t-178.5 -54.5h-137v127h108q47 0 71.5 16.5t24.5 57.5q0 70 -96 70h-67z" />
    <glyph glyph-name="ordmasculine" unicode="&#xba;" horiz-adv-x="880" 
d="M438 688q-176 0 -277.5 99.5t-101.5 269.5q0 168 103.5 269t275.5 101q177 0 279 -100t102 -270q0 -169 -103 -269t-278 -100zM438 854q77 0 120.5 56t43.5 147q0 92 -43.5 147.5t-120.5 55.5q-76 0 -119 -55.5t-43 -147.5q0 -91 43.5 -147t118.5 -56z" />
    <glyph glyph-name="guillemotright" unicode="&#xbb;" horiz-adv-x="1150" 
d="M545 98l229 418l-229 418h215l291 -418l-291 -418h-215zM98 98l232 418l-232 418h215l293 -418l-293 -418h-215z" />
    <glyph glyph-name="onequarter" unicode="&#xbc;" horiz-adv-x="1660" 
d="M952 119v114l385 476h176v-441h95v-149h-95v-119h-204v119h-357zM469 -25l713 1459h166l-713 -1459h-166zM160 1092l-82 137l305 180h125v-547h188v-157h-594v157h197v307zM1149 268h160v203z" />
    <glyph glyph-name="onehalf" unicode="&#xbd;" horiz-adv-x="1660" 
d="M969 0q0 80 19 141.5t56 103.5t76.5 69t93.5 51l35 18q75 32 109.5 57.5t34.5 55.5q0 79 -105 79q-52 0 -83 -28t-34 -84h-194q3 128 91.5 193t217.5 65q140 0 223.5 -59t83.5 -160q0 -87 -52.5 -138t-162.5 -100l-37 -16q-129 -58 -129 -90h377v-158h-620zM424 -25
q341 703 713 1459h166l-713 -1459h-166zM160 1092l-82 137l305 180h125v-547h188v-157h-594v157h197v307z" />
    <glyph glyph-name="threequarters" unicode="&#xbe;" horiz-adv-x="1660" 
d="M952 119v114l385 476h176v-441h95v-149h-95v-119h-204v119h-357zM72 922h188q0 -49 31 -77t84 -28q54 0 85.5 24.5t31.5 69.5q0 44 -33 68.5t-90 24.5h-43v122h43q52 0 80 22t28 62q0 86 -102 86q-47 0 -75 -26t-28 -70h-184q3 108 82 166.5t211 58.5t212.5 -54.5
t80.5 -145.5q0 -60 -33 -102t-86 -54v-6q63 -14 101 -57.5t38 -108.5q0 -102 -83 -155.5t-236 -53.5q-297 0 -303 234zM432 -25q372 757 713 1459h166l-713 -1459h-166zM1149 268h160v203z" />
    <glyph glyph-name="questiondown" unicode="&#xbf;" horiz-adv-x="1058" 
d="M412 729v270h272v-270h-272zM55 -51q0 69 20.5 125t53 94t71.5 70t78.5 60t72 57.5t53 70.5t20.5 90v59h248v-49q0 -75 -19.5 -136t-50.5 -101t-68.5 -73t-75.5 -60t-69 -53.5t-50.5 -62.5t-19.5 -79q0 -79 55 -130.5t148 -51.5q118 0 176 67t58 170h252
q0 -90 -28.5 -168.5t-85 -142.5t-152.5 -101.5t-220 -37.5q-210 0 -338.5 102t-128.5 281z" />
    <glyph glyph-name="Agrave" unicode="&#xc0;" horiz-adv-x="1404" 
d="M16 0l525 1409h323l525 -1409h-291l-109 315h-583l-111 -315h-279zM705 1149h-9l-215 -612h432zM612 1573l-303 336h277l207 -336h-181z" />
    <glyph glyph-name="Aacute" unicode="&#xc1;" horiz-adv-x="1404" 
d="M16 0l525 1409h323l525 -1409h-291l-109 315h-583l-111 -315h-279zM705 1149h-9l-215 -612h432zM608 1573l205 336h279l-304 -336h-180z" />
    <glyph glyph-name="Acircumflex" unicode="&#xc2;" horiz-adv-x="1404" 
d="M16 0l525 1409h323l525 -1409h-291l-109 315h-583l-111 -315h-279zM705 1149h-9l-215 -612h432zM338 1573l262 336h201l262 -336h-217l-146 203l-145 -203h-217z" />
    <glyph glyph-name="Atilde" unicode="&#xc3;" horiz-adv-x="1404" 
d="M16 0l525 1409h323l525 -1409h-291l-109 315h-583l-111 -315h-279zM705 1149h-9l-215 -612h432zM342 1612q2 119 56.5 186.5t154.5 67.5q52 0 111 -22.5t109.5 -45t82.5 -22.5q37 0 56 28.5t22 69.5h125q-3 -121 -57 -188.5t-154 -67.5q-53 0 -112 23t-109 46t-82 23
q-37 0 -56 -28.5t-22 -69.5h-125z" />
    <glyph glyph-name="Adieresis" unicode="&#xc4;" horiz-adv-x="1404" 
d="M16 0l525 1409h323l525 -1409h-291l-109 315h-583l-111 -315h-279zM705 1149h-9l-215 -612h432zM803 1632v238h241v-238h-241zM356 1632v238h240v-238h-240z" />
    <glyph glyph-name="Aring" unicode="&#xc5;" horiz-adv-x="1404" 
d="M16 0l525 1409h323l525 -1409h-291l-109 315h-583l-111 -315h-279zM705 1149h-9l-215 -612h432zM700 1546q-93 0 -156 58.5t-63 148.5q0 92 63 150.5t156 58.5q91 0 155.5 -58.5t64.5 -150.5q0 -90 -63.5 -148.5t-156.5 -58.5zM700 1655q41 0 70 28t29 70t-29.5 71
t-69.5 29t-69 -29t-29 -71t29 -70t69 -28z" />
    <glyph glyph-name="AE" unicode="&#xc6;" horiz-adv-x="2287" 
d="M10 0l1018 1409h1137v-227h-750v-355h606v-217h-606v-383h770v-227h-1044v315h-592l-223 -315h-316zM1133 1135l-428 -603h436v603h-8z" />
    <glyph glyph-name="Ccedilla" unicode="&#xc7;" horiz-adv-x="1499" 
d="M688 -180l55 157q-301 15 -477 216.5t-176 511.5q0 208 85.5 373t246.5 260.5t371 95.5q257 0 420.5 -131t203.5 -359h-274q-34 124 -122.5 189t-227.5 65q-192 0 -306 -136.5t-114 -356.5q0 -216 116 -355t304 -139q146 0 230.5 64t119.5 190h274
q-39 -217 -190.5 -346.5t-390.5 -141.5v-55q89 -3 138.5 -52t49.5 -124q0 -88 -61 -142.5t-179 -54.5h-137v127h109q47 0 71.5 16.5t24.5 57.5q0 70 -96 70h-68z" />
    <glyph glyph-name="Egrave" unicode="&#xc8;" horiz-adv-x="1310" 
d="M166 0v1409h1022v-227h-748v-355h602v-217h-602v-383h766v-227h-1040zM590 1573l-303 336h276l207 -336h-180z" />
    <glyph glyph-name="Eacute" unicode="&#xc9;" horiz-adv-x="1310" 
d="M166 0v1409h1022v-227h-748v-355h602v-217h-602v-383h766v-227h-1040zM586 1573l205 336h278l-303 -336h-180z" />
    <glyph glyph-name="Ecircumflex" unicode="&#xca;" horiz-adv-x="1310" 
d="M166 0v1409h1022v-227h-748v-355h602v-217h-602v-383h766v-227h-1040zM315 1573l263 336h200l262 -336h-217l-145 203l-146 -203h-217z" />
    <glyph glyph-name="Edieresis" unicode="&#xcb;" horiz-adv-x="1310" 
d="M166 0v1409h1022v-227h-748v-355h602v-217h-602v-383h766v-227h-1040zM780 1632v238h242v-238h-242zM334 1632v238h239v-238h-239z" />
    <glyph glyph-name="Igrave" unicode="&#xcc;" horiz-adv-x="606" 
d="M166 0v1409h274v-1409h-274zM215 1573l-303 336h276l207 -336h-180z" />
    <glyph glyph-name="Iacute" unicode="&#xcd;" horiz-adv-x="606" 
d="M166 0v1409h274v-1409h-274zM211 1573l205 336h278l-303 -336h-180z" />
    <glyph glyph-name="Icircumflex" unicode="&#xce;" horiz-adv-x="606" 
d="M166 0v1409h274v-1409h-274zM-59 1573l262 336h200l263 -336h-217l-146 203l-145 -203h-217z" />
    <glyph glyph-name="Idieresis" unicode="&#xcf;" horiz-adv-x="606" 
d="M166 0v1409h274v-1409h-274zM406 1632v238h241v-238h-241zM-41 1632v238h240v-238h-240z" />
    <glyph glyph-name="Eth" unicode="&#xd0;" horiz-adv-x="1505" 
d="M8 623v168h158v618h502q181 0 324.5 -52.5t235 -147t139.5 -222.5t48 -282t-48 -282.5t-139.5 -223t-235 -147t-324.5 -52.5h-502v623h-158zM649 1182h-209v-391h305v-168h-305v-396h209q128 0 223.5 38t151 105.5t82.5 151t27 183.5t-27 183.5t-82.5 150.5t-151 105
t-223.5 38z" />
    <glyph glyph-name="Ntilde" unicode="&#xd1;" horiz-adv-x="1560" 
d="M166 0v1409h248l706 -942h8l-8 942h275v-1409h-244l-711 942h-8l8 -942h-274zM422 1612q2 119 56.5 186.5t154.5 67.5q52 0 111 -22.5t109.5 -45t82.5 -22.5q37 0 56 28.5t22 69.5h125q-3 -121 -57 -188.5t-154 -67.5q-53 0 -112 23t-109 46t-82 23q-37 0 -56 -28.5
t-22 -69.5h-125z" />
    <glyph glyph-name="Ograve" unicode="&#xd2;" horiz-adv-x="1615" 
d="M90 705q0 209 88 374.5t252.5 260t378.5 94.5q210 0 374.5 -94.5t253.5 -260t89 -374.5q0 -156 -52.5 -291t-145.5 -232t-227 -152t-292 -55q-214 0 -378.5 95t-252.5 260.5t-88 374.5zM373 705q0 -217 120.5 -355.5t315.5 -138.5q193 0 313.5 139t120.5 355
t-120.5 354.5t-313.5 138.5q-195 0 -315.5 -138t-120.5 -355zM721 1573l-303 336h276l207 -336h-180z" />
    <glyph glyph-name="Oacute" unicode="&#xd3;" horiz-adv-x="1615" 
d="M90 705q0 209 88 374.5t252.5 260t378.5 94.5q210 0 374.5 -94.5t253.5 -260t89 -374.5q0 -156 -52.5 -291t-145.5 -232t-227 -152t-292 -55q-214 0 -378.5 95t-252.5 260.5t-88 374.5zM373 705q0 -217 120.5 -355.5t315.5 -138.5q193 0 313.5 139t120.5 355
t-120.5 354.5t-313.5 138.5q-195 0 -315.5 -138t-120.5 -355zM717 1573l205 336h278l-303 -336h-180z" />
    <glyph glyph-name="Ocircumflex" unicode="&#xd4;" horiz-adv-x="1615" 
d="M90 705q0 209 88 374.5t252.5 260t378.5 94.5q210 0 374.5 -94.5t253.5 -260t89 -374.5q0 -156 -52.5 -291t-145.5 -232t-227 -152t-292 -55q-214 0 -378.5 95t-252.5 260.5t-88 374.5zM373 705q0 -217 120.5 -355.5t315.5 -138.5q193 0 313.5 139t120.5 355
t-120.5 354.5t-313.5 138.5q-195 0 -315.5 -138t-120.5 -355zM446 1573l263 336h200l262 -336h-217l-145 203l-145 -203h-218z" />
    <glyph glyph-name="Otilde" unicode="&#xd5;" horiz-adv-x="1615" 
d="M90 705q0 209 88 374.5t252.5 260t378.5 94.5q210 0 374.5 -94.5t253.5 -260t89 -374.5q0 -156 -52.5 -291t-145.5 -232t-227 -152t-292 -55q-214 0 -378.5 95t-252.5 260.5t-88 374.5zM373 705q0 -217 120.5 -355.5t315.5 -138.5q193 0 313.5 139t120.5 355
t-120.5 354.5t-313.5 138.5q-195 0 -315.5 -138t-120.5 -355zM451 1612q2 119 56.5 186.5t154.5 67.5q52 0 111 -22.5t109.5 -45t82.5 -22.5q36 0 55 28.5t22 69.5h125q-3 -121 -57 -188.5t-154 -67.5q-53 0 -112 23t-109 46t-82 23q-37 0 -56 -28.5t-22 -69.5h-124z" />
    <glyph glyph-name="Odieresis" unicode="&#xd6;" horiz-adv-x="1615" 
d="M90 705q0 209 88 374.5t252.5 260t378.5 94.5q210 0 374.5 -94.5t253.5 -260t89 -374.5q0 -156 -52.5 -291t-145.5 -232t-227 -152t-292 -55q-214 0 -378.5 95t-252.5 260.5t-88 374.5zM373 705q0 -217 120.5 -355.5t315.5 -138.5q193 0 313.5 139t120.5 355
t-120.5 354.5t-313.5 138.5q-195 0 -315.5 -138t-120.5 -355zM911 1632v238h242v-238h-242zM465 1632v238h240v-238h-240z" />
    <glyph glyph-name="multiply" unicode="&#xd7;" horiz-adv-x="1163" 
d="M137 821l148 146l297 -301l297 301l147 -146l-299 -301l303 -305l-147 -145l-301 303l-301 -303l-148 145l303 305z" />
    <glyph glyph-name="Oslash" unicode="&#xd8;" horiz-adv-x="1615" 
d="M119 -25l170 205q-96 99 -147.5 233.5t-51.5 291.5q0 209 89 374.5t253.5 260t376.5 94.5q233 0 410 -119l98 119h182l-172 -209q199 -209 199 -520q0 -208 -90 -374.5t-254 -261t-373 -94.5q-240 0 -414 117l-94 -117h-182zM373 705q0 -183 88 -314l598 727
q-110 80 -250 80q-195 0 -315.5 -138t-120.5 -355zM1243 705q0 177 -88 311l-598 -727q111 -78 252 -78q193 0 313.5 139t120.5 355z" />
    <glyph glyph-name="Ugrave" unicode="&#xd9;" horiz-adv-x="1492" 
d="M139 565v844h277v-840q0 -174 83.5 -266t248.5 -92q164 0 246.5 92t82.5 266v840h277v-844q0 -590 -606 -590q-609 0 -609 590zM659 1573l-303 336h277l207 -336h-181z" />
    <glyph glyph-name="Uacute" unicode="&#xda;" horiz-adv-x="1492" 
d="M139 565v844h277v-840q0 -174 83.5 -266t248.5 -92q164 0 246.5 92t82.5 266v840h277v-844q0 -590 -606 -590q-609 0 -609 590zM655 1573l205 336h279l-303 -336h-181z" />
    <glyph glyph-name="Ucircumflex" unicode="&#xdb;" horiz-adv-x="1492" 
d="M139 565v844h277v-840q0 -174 83.5 -266t248.5 -92q164 0 246.5 92t82.5 266v840h277v-844q0 -590 -606 -590q-609 0 -609 590zM385 1573l262 336h201l262 -336h-217l-145 203l-146 -203h-217z" />
    <glyph glyph-name="Udieresis" unicode="&#xdc;" horiz-adv-x="1492" 
d="M139 565v844h277v-840q0 -174 83.5 -266t248.5 -92q164 0 246.5 92t82.5 266v840h277v-844q0 -590 -606 -590q-609 0 -609 590zM850 1632v238h242v-238h-242zM403 1632v238h240v-238h-240z" />
    <glyph glyph-name="Yacute" unicode="&#xdd;" horiz-adv-x="1361" 
d="M539 0v541l-519 868h312l346 -606h8l365 606h290l-526 -860v-549h-276zM590 1573l205 336h278l-303 -336h-180z" />
    <glyph glyph-name="Thorn" unicode="&#xde;" horiz-adv-x="1382" 
d="M166 0v1409h274v-217h332q247 0 384.5 -128.5t137.5 -338.5q0 -215 -138 -348t-384 -133h-332v-244h-274zM748 971h-308v-508h308q129 0 198.5 71.5t69.5 186.5q0 116 -69 183t-199 67z" />
    <glyph glyph-name="germandbls" unicode="&#xdf;" horiz-adv-x="1257" 
d="M143 0v1026q0 242 134.5 370t365.5 128q112 0 197.5 -27.5t135 -74.5t73.5 -103.5t24 -120.5q0 -57 -19.5 -106t-47.5 -81.5t-56 -61t-47.5 -58.5t-19.5 -60q0 -31 23.5 -61t58.5 -53.5t76.5 -57t76.5 -70t58.5 -94.5t23.5 -128q0 -176 -114.5 -271.5t-286.5 -95.5h-217
v205h190q78 0 122 36t44 103q0 38 -17 69t-43.5 54t-59 45t-65.5 47.5t-59.5 56.5t-43.5 77.5t-17 103.5q0 58 20 106t48 80.5t56 61.5t48 64t20 73q0 62 -48.5 103.5t-141.5 41.5q-104 0 -165.5 -70.5t-61.5 -220.5v-1036h-265z" />
    <glyph glyph-name="agrave" unicode="&#xe0;" horiz-adv-x="1140" 
d="M86 258q0 128 82 203t258 102l192 29q78 12 102.5 28t24.5 52q-2 77 -45.5 122.5t-132.5 45.5q-90 0 -140 -43.5t-56 -120.5h-246q10 164 131 256t311 92q220 0 331.5 -93t111.5 -272v-659h-252v119h-13q-45 -69 -126.5 -106.5t-192.5 -37.5q-163 0 -251.5 77t-88.5 206z
M502 160q102 0 172.5 62t70.5 181v89q-23 -35 -98 -48l-153 -24q-148 -25 -148 -135q0 -59 40 -92t116 -33zM492 1163l-304 336h277l207 -336h-180z" />
    <glyph glyph-name="aacute" unicode="&#xe1;" horiz-adv-x="1140" 
d="M86 258q0 128 82 203t258 102l192 29q78 12 102.5 28t24.5 52q-2 77 -45.5 122.5t-132.5 45.5q-90 0 -140 -43.5t-56 -120.5h-246q10 164 131 256t311 92q220 0 331.5 -93t111.5 -272v-659h-252v119h-13q-45 -69 -126.5 -106.5t-192.5 -37.5q-163 0 -251.5 77t-88.5 206z
M502 160q102 0 172.5 62t70.5 181v89q-23 -35 -98 -48l-153 -24q-148 -25 -148 -135q0 -59 40 -92t116 -33zM455 1163l204 336h279l-303 -336h-180z" />
    <glyph glyph-name="acircumflex" unicode="&#xe2;" horiz-adv-x="1140" 
d="M86 258q0 128 82 203t258 102l192 29q78 12 102.5 28t24.5 52q-2 77 -45.5 122.5t-132.5 45.5q-90 0 -140 -43.5t-56 -120.5h-246q10 164 131 256t311 92q220 0 331.5 -93t111.5 -272v-659h-252v119h-13q-45 -69 -126.5 -106.5t-192.5 -37.5q-163 0 -251.5 77t-88.5 206z
M502 160q102 0 172.5 62t70.5 181v89q-23 -35 -98 -48l-153 -24q-148 -25 -148 -135q0 -59 40 -92t116 -33zM201 1163l262 336h201l262 -336h-217l-146 203l-145 -203h-217z" />
    <glyph glyph-name="atilde" unicode="&#xe3;" horiz-adv-x="1140" 
d="M86 258q0 128 82 203t258 102l192 29q78 12 102.5 28t24.5 52q-2 77 -45.5 122.5t-132.5 45.5q-90 0 -140 -43.5t-56 -120.5h-246q10 164 131 256t311 92q220 0 331.5 -93t111.5 -272v-659h-252v119h-13q-45 -69 -126.5 -106.5t-192.5 -37.5q-163 0 -251.5 77t-88.5 206z
M502 160q102 0 172.5 62t70.5 181v89q-23 -35 -98 -48l-153 -24q-148 -25 -148 -135q0 -59 40 -92t116 -33zM205 1202q2 119 56.5 186.5t154.5 67.5q52 0 111 -22.5t109.5 -45t82.5 -22.5q37 0 56 28.5t22 69.5h125q-3 -121 -57 -188.5t-154 -67.5q-53 0 -112 23t-109 46
t-82 23q-37 0 -56 -28.5t-22 -69.5h-125z" />
    <glyph glyph-name="adieresis" unicode="&#xe4;" horiz-adv-x="1140" 
d="M86 258q0 128 82 203t258 102l192 29q78 12 102.5 28t24.5 52q-2 77 -45.5 122.5t-132.5 45.5q-90 0 -140 -43.5t-56 -120.5h-246q10 164 131 256t311 92q220 0 331.5 -93t111.5 -272v-659h-252v119h-13q-45 -69 -126.5 -106.5t-192.5 -37.5q-163 0 -251.5 77t-88.5 206z
M502 160q102 0 172.5 62t70.5 181v89q-23 -35 -98 -48l-153 -24q-148 -25 -148 -135q0 -59 40 -92t116 -33zM666 1223v237h241v-237h-241zM219 1223v237h240v-237h-240z" />
    <glyph glyph-name="aring" unicode="&#xe5;" horiz-adv-x="1140" 
d="M86 258q0 128 82 203t258 102l192 29q78 12 102.5 28t24.5 52q-2 77 -45.5 122.5t-132.5 45.5q-90 0 -140 -43.5t-56 -120.5h-246q10 164 131 256t311 92q220 0 331.5 -93t111.5 -272v-659h-252v119h-13q-45 -69 -126.5 -106.5t-192.5 -37.5q-163 0 -251.5 77t-88.5 206z
M502 160q102 0 172.5 62t70.5 181v89q-23 -35 -98 -48l-153 -24q-148 -25 -148 -135q0 -59 40 -92t116 -33zM563 1137q-93 0 -156 58t-63 148q0 92 63 150.5t156 58.5q91 0 155 -58.5t64 -150.5q0 -90 -63 -148t-156 -58zM563 1245q41 0 70 28t29 70t-29.5 71.5t-69.5 29.5
t-69 -29.5t-29 -71.5t29 -70t69 -28z" />
    <glyph glyph-name="ae" unicode="&#xe6;" horiz-adv-x="1777" 
d="M125 676q6 91 44 159.5t99.5 109t136.5 60t162 19.5q236 0 336 -121q124 121 326 121q216 0 345.5 -132t129.5 -366v-73h-707q9 -138 72 -211.5t168 -73.5q156 0 199 135h256q-24 -139 -150 -233.5t-309 -94.5q-265 0 -391 193q-116 -193 -393 -193q-177 0 -270 76.5
t-93 206.5q0 254 340 305l192 29q78 12 102.5 28.5t24.5 55.5q0 71 -44.5 117.5t-133.5 46.5q-85 0 -137.5 -42t-58.5 -122h-246zM502 160q103 0 173 61t70 182v89q-23 -35 -98 -48l-153 -24q-148 -23 -148 -135q0 -61 41.5 -93t114.5 -32zM1229 834q-89 0 -146.5 -58
t-78.5 -164h430q-19 222 -205 222z" />
    <glyph glyph-name="ccedilla" unicode="&#xe7;" horiz-adv-x="1132" 
d="M489 -180l56 157q-220 14 -345.5 150.5t-125.5 372.5q0 243 143 383.5t377 140.5q212 0 335.5 -104.5t141.5 -268.5h-260q-11 74 -66.5 123t-150.5 49q-110 0 -179 -90t-69 -233t69 -233.5t179 -90.5q96 0 150 48.5t67 123.5h260q-18 -156 -129 -258.5t-305 -112.5v-55
q89 -3 138.5 -52t49.5 -124q0 -88 -60.5 -142.5t-178.5 -54.5h-137v127h108q47 0 71.5 16.5t24.5 57.5q0 70 -96 70h-68z" />
    <glyph glyph-name="egrave" unicode="&#xe8;" horiz-adv-x="1155" 
d="M74 496q0 241 143.5 384.5t374.5 143.5q226 0 357.5 -131t131.5 -367v-73h-737q9 -135 76.5 -210t179.5 -75q90 0 143.5 40t71.5 95h256q-24 -139 -153 -233.5t-322 -94.5q-248 0 -385 135.5t-137 385.5zM592 834q-92 0 -154.5 -56.5t-85.5 -161.5h461q-26 218 -221 218z
M504 1163l-303 336h276l207 -336h-180z" />
    <glyph glyph-name="eacute" unicode="&#xe9;" horiz-adv-x="1155" 
d="M74 496q0 241 143.5 384.5t374.5 143.5q226 0 357.5 -131t131.5 -367v-73h-737q9 -135 76.5 -210t179.5 -75q90 0 143.5 40t71.5 95h256q-24 -139 -153 -233.5t-322 -94.5q-248 0 -385 135.5t-137 385.5zM592 834q-92 0 -154.5 -56.5t-85.5 -161.5h461q-26 218 -221 218z
M500 1163l205 336h278l-303 -336h-180z" />
    <glyph glyph-name="ecircumflex" unicode="&#xea;" horiz-adv-x="1155" 
d="M74 496q0 241 143.5 384.5t374.5 143.5q226 0 357.5 -131t131.5 -367v-73h-737q9 -135 76.5 -210t179.5 -75q90 0 143.5 40t71.5 95h256q-24 -139 -153 -233.5t-322 -94.5q-248 0 -385 135.5t-137 385.5zM592 834q-92 0 -154.5 -56.5t-85.5 -161.5h461q-26 218 -221 218z
M229 1163l263 336h200l262 -336h-217l-145 203l-146 -203h-217z" />
    <glyph glyph-name="edieresis" unicode="&#xeb;" horiz-adv-x="1155" 
d="M74 496q0 241 143.5 384.5t374.5 143.5q226 0 357.5 -131t131.5 -367v-73h-737q9 -135 76.5 -210t179.5 -75q90 0 143.5 40t71.5 95h256q-24 -139 -153 -233.5t-322 -94.5q-248 0 -385 135.5t-137 385.5zM592 834q-92 0 -154.5 -56.5t-85.5 -161.5h461q-26 218 -221 218z
M694 1223v237h242v-237h-242zM248 1223v237h239v-237h-239z" />
    <glyph glyph-name="igrave" unicode="&#xec;" horiz-adv-x="550" 
d="M143 0v999h265v-999h-265zM188 1163l-303 336h277l207 -336h-181z" />
    <glyph glyph-name="iacute" unicode="&#xed;" horiz-adv-x="550" 
d="M143 0v999h265v-999h-265zM184 1163l205 336h279l-303 -336h-181z" />
    <glyph glyph-name="icircumflex" unicode="&#xee;" horiz-adv-x="550" 
d="M143 0v999h265v-999h-265zM-86 1163l262 336h201l262 -336h-217l-146 203l-145 -203h-217z" />
    <glyph glyph-name="idieresis" unicode="&#xef;" horiz-adv-x="550" 
d="M143 0v999h265v-999h-265zM379 1223v237h242v-237h-242zM-68 1223v237h240v-237h-240z" />
    <glyph glyph-name="eth" unicode="&#xf0;" horiz-adv-x="1247" 
d="M436 1030l-80 115l160 110q-83 39 -223 84l67 185q216 -63 351 -135l188 131l80 -113l-141 -98q158 -115 236.5 -293t78.5 -463v-4q0 -280 -143 -427t-389 -147q-245 0 -388 134.5t-143 357.5q0 144 66 257t178.5 173.5t251.5 60.5q81 0 155 -26t121 -78h10
q-31 107 -84.5 185.5t-138.5 138.5zM358 467q0 -128 72.5 -209.5t190.5 -81.5t190 81.5t72 209.5q0 131 -72 211t-190 80t-190.5 -81.5t-72.5 -209.5z" />
    <glyph glyph-name="ntilde" unicode="&#xf1;" horiz-adv-x="1226" 
d="M143 0v999h252v-143h8q42 82 122 125t186 43q64 0 119 -13.5t105 -44.5t85 -78t55.5 -119t20.5 -163v-606h-265v573q0 132 -50.5 189t-143.5 57q-101 0 -165 -79t-64 -214v-526h-265zM260 1202q2 119 56.5 186.5t154.5 67.5q52 0 111 -22.5t109.5 -45t82.5 -22.5
q37 0 56 28.5t22 69.5h125q-3 -121 -57 -188.5t-154 -67.5q-53 0 -112 23t-109 46t-82 23q-37 0 -56 -28.5t-22 -69.5h-125z" />
    <glyph glyph-name="ograve" unicode="&#xf2;" horiz-adv-x="1214" 
d="M78 500q0 242 147.5 383t382.5 141q241 0 385 -139t144 -385q0 -242 -148 -383.5t-381 -141.5q-242 0 -386 139.5t-144 385.5zM350 500q0 -149 70.5 -236.5t187.5 -87.5t186.5 87.5t69.5 236.5q0 151 -69 236t-187 85t-188 -86.5t-70 -234.5zM520 1163l-303 336h277
l206 -336h-180z" />
    <glyph glyph-name="oacute" unicode="&#xf3;" horiz-adv-x="1214" 
d="M78 500q0 242 147.5 383t382.5 141q241 0 385 -139t144 -385q0 -242 -148 -383.5t-381 -141.5q-242 0 -386 139.5t-144 385.5zM350 500q0 -149 70.5 -236.5t187.5 -87.5t186.5 87.5t69.5 236.5q0 151 -69 236t-187 85t-188 -86.5t-70 -234.5zM516 1163l205 336h278
l-303 -336h-180z" />
    <glyph glyph-name="ocircumflex" unicode="&#xf4;" horiz-adv-x="1214" 
d="M78 500q0 242 147.5 383t382.5 141q241 0 385 -139t144 -385q0 -242 -148 -383.5t-381 -141.5q-242 0 -386 139.5t-144 385.5zM350 500q0 -149 70.5 -236.5t187.5 -87.5t186.5 87.5t69.5 236.5q0 151 -69 236t-187 85t-188 -86.5t-70 -234.5zM246 1163l262 336h201
l262 -336h-217l-146 203l-145 -203h-217z" />
    <glyph glyph-name="otilde" unicode="&#xf5;" horiz-adv-x="1214" 
d="M78 500q0 242 147.5 383t382.5 141q241 0 385 -139t144 -385q0 -242 -148 -383.5t-381 -141.5q-242 0 -386 139.5t-144 385.5zM350 500q0 -149 70.5 -236.5t187.5 -87.5t186.5 87.5t69.5 236.5q0 151 -69 236t-187 85t-188 -86.5t-70 -234.5zM250 1202q2 119 56.5 186.5
t154.5 67.5q52 0 111 -22.5t109.5 -45t82.5 -22.5q37 0 56 28.5t22 69.5h125q-3 -121 -57 -188.5t-154 -67.5q-53 0 -112 23t-109 46t-82 23q-37 0 -56 -28.5t-22 -69.5h-125z" />
    <glyph glyph-name="odieresis" unicode="&#xf6;" horiz-adv-x="1214" 
d="M78 500q0 242 147.5 383t382.5 141q241 0 385 -139t144 -385q0 -242 -148 -383.5t-381 -141.5q-242 0 -386 139.5t-144 385.5zM350 500q0 -149 70.5 -236.5t187.5 -87.5t186.5 87.5t69.5 236.5q0 151 -69 236t-187 85t-188 -86.5t-70 -234.5zM711 1223v237h241v-237h-241
zM264 1223v237h240v-237h-240z" />
    <glyph glyph-name="divide" unicode="&#xf7;" horiz-adv-x="1163" 
d="M465 778v240h233v-240h-233zM115 420v205h934v-205h-934zM465 25v239h233v-239h-233z" />
    <glyph glyph-name="oslash" unicode="&#xf8;" horiz-adv-x="1206" 
d="M100 -25l117 142q-143 140 -143 383q0 237 148 380.5t382 143.5q170 0 301 -78l64 78h153l-125 -150q136 -142 136 -374q0 -237 -147.5 -381t-381.5 -144q-165 0 -293 70l-57 -70h-154zM346 500q0 -110 37 -183l375 451q-62 53 -154 53q-117 0 -187.5 -87.5t-70.5 -233.5
zM862 500q0 92 -33 170l-370 -447q59 -47 145 -47q117 0 187.5 89t70.5 235z" />
    <glyph glyph-name="ugrave" unicode="&#xf9;" horiz-adv-x="1218" 
d="M127 393v606h264v-573q0 -132 50.5 -189t144.5 -57q99 0 162 78t63 213v528h262v-999h-250v143h-8q-42 -83 -120 -125.5t-183 -42.5q-64 0 -119 13.5t-105 44.5t-85 78t-55.5 119t-20.5 163zM524 1163l-303 336h277l207 -336h-181z" />
    <glyph glyph-name="uacute" unicode="&#xfa;" horiz-adv-x="1218" 
d="M127 393v606h264v-573q0 -132 50.5 -189t144.5 -57q99 0 162 78t63 213v528h262v-999h-250v143h-8q-42 -83 -120 -125.5t-183 -42.5q-64 0 -119 13.5t-105 44.5t-85 78t-55.5 119t-20.5 163zM520 1163l205 336h279l-304 -336h-180z" />
    <glyph glyph-name="ucircumflex" unicode="&#xfb;" horiz-adv-x="1218" 
d="M127 393v606h264v-573q0 -132 50.5 -189t144.5 -57q99 0 162 78t63 213v528h262v-999h-250v143h-8q-42 -83 -120 -125.5t-183 -42.5q-64 0 -119 13.5t-105 44.5t-85 78t-55.5 119t-20.5 163zM250 1163l262 336h201l262 -336h-217l-146 203l-145 -203h-217z" />
    <glyph glyph-name="udieresis" unicode="&#xfc;" horiz-adv-x="1218" 
d="M127 393v606h264v-573q0 -132 50.5 -189t144.5 -57q99 0 162 78t63 213v528h262v-999h-250v143h-8q-42 -83 -120 -125.5t-183 -42.5q-64 0 -119 13.5t-105 44.5t-85 78t-55.5 119t-20.5 163zM715 1223v237h241v-237h-241zM268 1223v237h240v-237h-240z" />
    <glyph glyph-name="yacute" unicode="&#xfd;" horiz-adv-x="1060" 
d="M377 0l-369 999h287l242 -739h8l239 739h269l-400 -1122q-118 -344 -405 -344h-121v209h61q89 0 148 44t90 142l23 72h-72zM436 1163l205 336h279l-304 -336h-180z" />
    <glyph glyph-name="thorn" unicode="&#xfe;" horiz-adv-x="1259" 
d="M1182 508q0 -123 -36.5 -224.5t-100 -168.5t-148.5 -103.5t-182 -36.5q-226 0 -312 168h-8q13 -146 13 -336v-258h-265v1950h265v-307q0 -192 -13 -336h8q42 83 126.5 125.5t201.5 42.5q95 0 177 -34t143 -97.5t96 -162.5t35 -222zM911 508q0 148 -68.5 231.5
t-180.5 83.5q-111 0 -181 -83t-73 -226v-14q0 -149 70 -236.5t184 -87.5q111 0 180 91t69 241z" />
    <glyph glyph-name="ydieresis" unicode="&#xff;" horiz-adv-x="1060" 
d="M377 0l-369 999h287l242 -739h8l239 739h269l-400 -1122q-118 -344 -405 -344h-121v209h61q89 0 148 44t90 142l23 72h-72zM631 1223v237h241v-237h-241zM184 1223v237h240v-237h-240z" />
    <glyph glyph-name="Amacron" unicode="&#x100;" horiz-adv-x="1404" 
d="M16 0l525 1409h323l525 -1409h-291l-109 315h-583l-111 -315h-279zM705 1149h-9l-215 -612h432zM391 1653v176h610v-176h-610z" />
    <glyph glyph-name="amacron" unicode="&#x101;" horiz-adv-x="1140" 
d="M86 258q0 128 82 203t258 102l192 29q78 12 102.5 28t24.5 52q-2 77 -45.5 122.5t-132.5 45.5q-90 0 -140 -43.5t-56 -120.5h-246q10 164 131 256t311 92q220 0 331.5 -93t111.5 -272v-659h-252v119h-13q-45 -69 -126.5 -106.5t-192.5 -37.5q-163 0 -251.5 77t-88.5 206z
M502 160q102 0 172.5 62t70.5 181v89q-23 -35 -98 -48l-153 -24q-148 -25 -148 -135q0 -59 40 -92t116 -33zM254 1243v176h610v-176h-610z" />
    <glyph glyph-name="Abreve" unicode="&#x102;" horiz-adv-x="1404" 
d="M16 0l525 1409h323l525 -1409h-291l-109 315h-583l-111 -315h-279zM705 1149h-9l-215 -612h432zM700 1585q-126 0 -215 74.5t-102 236.5h145q12 -78 56 -119.5t116 -41.5q70 0 115 42.5t57 118.5h146q-6 -84 -35.5 -146.5t-74.5 -97t-97 -51t-111 -16.5z" />
    <glyph glyph-name="abreve" unicode="&#x103;" horiz-adv-x="1140" 
d="M86 258q0 128 82 203t258 102l192 29q78 12 102.5 28t24.5 52q-2 77 -45.5 122.5t-132.5 45.5q-90 0 -140 -43.5t-56 -120.5h-246q10 164 131 256t311 92q220 0 331.5 -93t111.5 -272v-659h-252v119h-13q-45 -69 -126.5 -106.5t-192.5 -37.5q-163 0 -251.5 77t-88.5 206z
M502 160q102 0 172.5 62t70.5 181v89q-23 -35 -98 -48l-153 -24q-148 -25 -148 -135q0 -59 40 -92t116 -33zM563 1176q-126 0 -215 74.5t-102 236.5h145q12 -78 56 -120t116 -42q70 0 115 43t57 119h146q-6 -84 -35.5 -146.5t-74.5 -97t-97 -51t-111 -16.5z" />
    <glyph glyph-name="Aogonek" unicode="&#x104;" horiz-adv-x="1404" 
d="M1094 -262q0 68 39 128.5t127 133.5h-162l-109 315h-583l-111 -315h-279l525 1409h323l525 -1409q-123 -129 -123 -215t104 -86h60v-150h-82q-254 0 -254 189zM705 1149h-9l-215 -612h432z" />
    <glyph glyph-name="aogonek" unicode="&#x105;" horiz-adv-x="1140" 
d="M711 -262q0 68 39 128.5t127 133.5h-119v119h-13q-45 -69 -126.5 -106.5t-192.5 -37.5q-163 0 -251.5 77t-88.5 206q0 128 82 203t258 102l192 29q78 12 102.5 28t24.5 52q-2 77 -45.5 122.5t-132.5 45.5q-90 0 -140 -43.5t-56 -120.5h-246q10 164 131 256t311 92
q220 0 331.5 -93t111.5 -272v-659h-4q-123 -129 -123 -215t104 -86h60v-150h-82q-254 0 -254 189zM502 160q102 0 172.5 62t70.5 181v89q-23 -35 -98 -48l-153 -24q-148 -25 -148 -135q0 -59 40 -92t116 -33z" />
    <glyph glyph-name="Cacute" unicode="&#x106;" horiz-adv-x="1499" 
d="M90 705q0 208 85.5 373t246.5 260.5t371 95.5q257 0 420.5 -131t203.5 -359h-274q-34 124 -122.5 189t-227.5 65q-192 0 -306 -136.5t-114 -356.5q0 -216 116 -355t304 -139q146 0 230.5 64t119.5 190h274q-40 -227 -205.5 -358.5t-423.5 -131.5q-213 0 -372.5 95
t-242.5 260t-83 375zM700 1573l205 336h279l-303 -336h-181z" />
    <glyph glyph-name="cacute" unicode="&#x107;" horiz-adv-x="1132" 
d="M74 500q0 243 143 383.5t377 140.5q212 0 335.5 -104.5t141.5 -268.5h-260q-11 74 -66.5 123t-150.5 49q-110 0 -179 -90t-69 -233t69 -233.5t179 -90.5q96 0 150 48.5t67 123.5h260q-18 -165 -140.5 -269t-336.5 -104q-241 0 -380.5 138.5t-139.5 386.5zM502 1163
l205 336h278l-303 -336h-180z" />
    <glyph glyph-name="Ccircumflex" unicode="&#x108;" horiz-adv-x="1499" 
d="M90 705q0 208 85.5 373t246.5 260.5t371 95.5q257 0 420.5 -131t203.5 -359h-274q-34 124 -122.5 189t-227.5 65q-192 0 -306 -136.5t-114 -356.5q0 -216 116 -355t304 -139q146 0 230.5 64t119.5 190h274q-40 -227 -205.5 -358.5t-423.5 -131.5q-213 0 -372.5 95
t-242.5 260t-83 375zM430 1573l262 336h201l262 -336h-217l-145 203l-146 -203h-217z" />
    <glyph glyph-name="ccircumflex" unicode="&#x109;" horiz-adv-x="1132" 
d="M74 500q0 243 143 383.5t377 140.5q212 0 335.5 -104.5t141.5 -268.5h-260q-11 74 -66.5 123t-150.5 49q-110 0 -179 -90t-69 -233t69 -233.5t179 -90.5q96 0 150 48.5t67 123.5h260q-18 -165 -140.5 -269t-336.5 -104q-241 0 -380.5 138.5t-139.5 386.5zM231 1163
l263 336h200l262 -336h-217l-145 203l-145 -203h-218z" />
    <glyph glyph-name="Cdotaccent" unicode="&#x10a;" horiz-adv-x="1499" 
d="M90 705q0 208 85.5 373t246.5 260.5t371 95.5q257 0 420.5 -131t203.5 -359h-274q-34 124 -122.5 189t-227.5 65q-192 0 -306 -136.5t-114 -356.5q0 -216 116 -355t304 -139q146 0 230.5 64t119.5 190h274q-40 -227 -205.5 -358.5t-423.5 -131.5q-213 0 -372.5 95
t-242.5 260t-83 375zM672 1632v238h241v-238h-241z" />
    <glyph glyph-name="cdotaccent" unicode="&#x10b;" horiz-adv-x="1132" 
d="M74 500q0 243 143 383.5t377 140.5q212 0 335.5 -104.5t141.5 -268.5h-260q-11 74 -66.5 123t-150.5 49q-110 0 -179 -90t-69 -233t69 -233.5t179 -90.5q96 0 150 48.5t67 123.5h260q-18 -165 -140.5 -269t-336.5 -104q-241 0 -380.5 138.5t-139.5 386.5zM473 1223v237
h242v-237h-242z" />
    <glyph glyph-name="Ccaron" unicode="&#x10c;" horiz-adv-x="1499" 
d="M90 705q0 208 85.5 373t246.5 260.5t371 95.5q257 0 420.5 -131t203.5 -359h-274q-34 124 -122.5 189t-227.5 65q-192 0 -306 -136.5t-114 -356.5q0 -216 116 -355t304 -139q146 0 230.5 64t119.5 190h274q-40 -227 -205.5 -358.5t-423.5 -131.5q-213 0 -372.5 95
t-242.5 260t-83 375zM692 1573l-262 336h217l146 -203l145 203h217l-262 -336h-201z" />
    <glyph glyph-name="ccaron" unicode="&#x10d;" horiz-adv-x="1132" 
d="M74 500q0 243 143 383.5t377 140.5q212 0 335.5 -104.5t141.5 -268.5h-260q-11 74 -66.5 123t-150.5 49q-110 0 -179 -90t-69 -233t69 -233.5t179 -90.5q96 0 150 48.5t67 123.5h260q-18 -165 -140.5 -269t-336.5 -104q-241 0 -380.5 138.5t-139.5 386.5zM494 1163
l-263 336h218l145 -203l145 203h217l-262 -336h-200z" />
    <glyph glyph-name="Dcaron" unicode="&#x10e;" horiz-adv-x="1505" 
d="M166 0v1409h502q181 0 324.5 -52.5t235 -147t139.5 -222.5t48 -282t-48 -282.5t-139.5 -223t-235 -147t-324.5 -52.5h-502zM649 1182h-209v-955h209q128 0 223.5 38t151 105.5t82.5 151t27 183.5t-27 183.5t-82.5 150.5t-151 105t-223.5 38zM598 1573l-262 336h217
l145 -203l146 203h217l-262 -336h-201z" />
    <glyph glyph-name="dcaron" unicode="&#x10f;" horiz-adv-x="1259" 
d="M78 492q0 163 63.5 285.5t168.5 184.5t235 62q225 0 311 -168h8q-12 133 -12 336v307h264v-1499h-252v143h-8q-42 -83 -126.5 -125.5t-201.5 -42.5q-94 0 -175.5 34t-143 98t-96.5 163t-35 222zM350 492q0 -149 68 -232.5t182 -83.5q112 0 182 87.5t70 236.5v14
q-4 143 -73.5 226t-178.5 83q-113 0 -181.5 -90.5t-68.5 -240.5zM1292 1057l72 223h-104v219h249v-196l-104 -246h-113z" />
    <glyph glyph-name="Dcroat" unicode="&#x110;" horiz-adv-x="1505" 
d="M8 623v168h158v618h502q181 0 324.5 -52.5t235 -147t139.5 -222.5t48 -282t-48 -282.5t-139.5 -223t-235 -147t-324.5 -52.5h-502v623h-158zM649 1182h-209v-391h305v-168h-305v-396h209q128 0 223.5 38t151 105.5t82.5 151t27 183.5t-27 183.5t-82.5 150.5t-151 105
t-223.5 38z" />
    <glyph glyph-name="dcroat" unicode="&#x111;" horiz-adv-x="1259" 
d="M561 1204v144h291v151h264v-151h144v-144h-144v-1204h-252v143h-8q-42 -83 -126.5 -125.5t-201.5 -42.5q-94 0 -175.5 34t-143 98t-96.5 163t-35 222q0 163 63.5 285.5t168.5 184.5t235 62q225 0 311 -168h8q-12 133 -12 336v12h-291zM350 492q0 -149 68 -232.5
t182 -83.5q112 0 182 87.5t70 236.5v14q-4 143 -73.5 226t-178.5 83q-113 0 -181.5 -90.5t-68.5 -240.5z" />
    <glyph glyph-name="Emacron" unicode="&#x112;" horiz-adv-x="1310" 
d="M166 0v1409h1022v-227h-748v-355h602v-217h-602v-383h766v-227h-1040zM369 1653v176h610v-176h-610z" />
    <glyph glyph-name="emacron" unicode="&#x113;" horiz-adv-x="1155" 
d="M74 496q0 241 143.5 384.5t374.5 143.5q226 0 357.5 -131t131.5 -367v-73h-737q9 -135 76.5 -210t179.5 -75q90 0 143.5 40t71.5 95h256q-24 -139 -153 -233.5t-322 -94.5q-248 0 -385 135.5t-137 385.5zM592 834q-92 0 -154.5 -56.5t-85.5 -161.5h461q-26 218 -221 218z
M283 1243v176h610v-176h-610z" />
    <glyph glyph-name="Ebreve" unicode="&#x114;" horiz-adv-x="1310" 
d="M166 0v1409h1022v-227h-748v-355h602v-217h-602v-383h766v-227h-1040zM678 1585q-59 0 -111 16.5t-97 51t-74.5 97t-35.5 146.5h146q12 -78 56 -119.5t116 -41.5q70 0 115 42.5t57 118.5h145q-13 -162 -102 -236.5t-215 -74.5z" />
    <glyph glyph-name="ebreve" unicode="&#x115;" horiz-adv-x="1155" 
d="M74 496q0 241 143.5 384.5t374.5 143.5q226 0 357.5 -131t131.5 -367v-73h-737q9 -135 76.5 -210t179.5 -75q90 0 143.5 40t71.5 95h256q-24 -139 -153 -233.5t-322 -94.5q-248 0 -385 135.5t-137 385.5zM592 834q-92 0 -154.5 -56.5t-85.5 -161.5h461q-26 218 -221 218z
M592 1176q-59 0 -111 16.5t-97 51t-74.5 97t-35.5 146.5h146q12 -78 56 -120t116 -42q70 0 115 43t57 119h145q-13 -162 -102 -236.5t-215 -74.5z" />
    <glyph glyph-name="Edotaccent" unicode="&#x116;" horiz-adv-x="1310" 
d="M166 0v1409h1022v-227h-748v-355h602v-217h-602v-383h766v-227h-1040zM557 1632v238h242v-238h-242z" />
    <glyph glyph-name="edotaccent" unicode="&#x117;" horiz-adv-x="1155" 
d="M74 496q0 241 143.5 384.5t374.5 143.5q226 0 357.5 -131t131.5 -367v-73h-737q9 -135 76.5 -210t179.5 -75q90 0 143.5 40t71.5 95h256q-24 -139 -153 -233.5t-322 -94.5q-248 0 -385 135.5t-137 385.5zM592 834q-92 0 -154.5 -56.5t-85.5 -161.5h461q-26 218 -221 218z
M471 1223v237h242v-237h-242z" />
    <glyph glyph-name="Eogonek" unicode="&#x118;" horiz-adv-x="1310" 
d="M166 0v1409h1022v-227h-748v-355h602v-217h-602v-383h766v-227q-123 -129 -123 -215t105 -86h59v-150h-82q-254 0 -254 189q0 68 39 128.5t127 133.5h-911z" />
    <glyph glyph-name="eogonek" unicode="&#x119;" horiz-adv-x="1155" 
d="M444 -250q0 122 164 225h-12q-248 0 -385 135.5t-137 385.5q0 241 143.5 384.5t374.5 143.5q226 0 357.5 -131t131.5 -367v-73h-737q9 -135 76.5 -210t179.5 -75q90 0 143.5 40t71.5 95h256q-13 -76 -62.5 -143t-125.5 -113q-130 -79 -195 -139.5t-65 -116.5
q0 -92 102 -92h61v-150h-81q-261 0 -261 201zM592 834q-92 0 -154.5 -56.5t-85.5 -161.5h461q-26 218 -221 218z" />
    <glyph glyph-name="Ecaron" unicode="&#x11a;" horiz-adv-x="1310" 
d="M166 0v1409h1022v-227h-748v-355h602v-217h-602v-383h766v-227h-1040zM578 1573l-263 336h217l146 -203l145 203h217l-262 -336h-200z" />
    <glyph glyph-name="ecaron" unicode="&#x11b;" horiz-adv-x="1155" 
d="M74 496q0 241 143.5 384.5t374.5 143.5q226 0 357.5 -131t131.5 -367v-73h-737q9 -135 76.5 -210t179.5 -75q90 0 143.5 40t71.5 95h256q-24 -139 -153 -233.5t-322 -94.5q-248 0 -385 135.5t-137 385.5zM592 834q-92 0 -154.5 -56.5t-85.5 -161.5h461q-26 218 -221 218z
M492 1163l-263 336h217l146 -203l145 203h217l-262 -336h-200z" />
    <glyph glyph-name="Gcircumflex" unicode="&#x11c;" horiz-adv-x="1587" 
d="M1264 0l-31 170h-4q-141 -195 -436 -195q-157 0 -289.5 55.5t-223 153t-140.5 232t-50 289.5q0 210 88.5 375.5t254 259.5t380.5 94q257 0 424.5 -128.5t204.5 -326.5h-275q-30 96 -119.5 157.5t-234.5 61.5q-199 0 -319.5 -136t-120.5 -357q0 -220 120 -357t316 -137
q165 0 275 88.5t110 241.5v10h-381v209h625v-760h-174zM451 1573l262 336h200l263 -336h-218l-145 203l-145 -203h-217z" />
    <glyph glyph-name="gcircumflex" unicode="&#x11d;" horiz-adv-x="1259" 
d="M106 -123h248q3 -72 67 -116t165 -44q138 0 208 79.5t70 256.5v90h-8q-42 -83 -126.5 -125.5t-201.5 -42.5q-94 0 -175.5 34t-143 98t-96.5 163t-35 222q0 163 63.5 285.5t168.5 184.5t235 62q225 0 311 -168h8v143h252v-946q0 -138 -37.5 -239t-108.5 -162t-166 -90
t-218 -29q-218 0 -346 87t-134 257zM350 492q0 -149 68 -232.5t182 -83.5q112 0 182 87.5t70 236.5v14q-4 143 -73.5 226t-178.5 83q-113 0 -181.5 -90.5t-68.5 -240.5zM238 1163l262 336h200l263 -336h-218l-145 203l-145 -203h-217z" />
    <glyph glyph-name="Gbreve" unicode="&#x11e;" horiz-adv-x="1587" 
d="M1264 0l-31 170h-4q-141 -195 -436 -195q-157 0 -289.5 55.5t-223 153t-140.5 232t-50 289.5q0 210 88.5 375.5t254 259.5t380.5 94q257 0 424.5 -128.5t204.5 -326.5h-275q-30 96 -119.5 157.5t-234.5 61.5q-199 0 -319.5 -136t-120.5 -357q0 -220 120 -357t316 -137
q165 0 275 88.5t110 241.5v10h-381v209h625v-760h-174zM813 1585q-126 0 -215 74.5t-102 236.5h145q12 -78 56 -119.5t116 -41.5q70 0 115 42.5t57 118.5h145q-13 -162 -102 -236.5t-215 -74.5z" />
    <glyph glyph-name="gbreve" unicode="&#x11f;" horiz-adv-x="1259" 
d="M106 -123h248q3 -72 67 -116t165 -44q138 0 208 79.5t70 256.5v90h-8q-42 -83 -126.5 -125.5t-201.5 -42.5q-94 0 -175.5 34t-143 98t-96.5 163t-35 222q0 163 63.5 285.5t168.5 184.5t235 62q225 0 311 -168h8v143h252v-946q0 -138 -37.5 -239t-108.5 -162t-166 -90
t-218 -29q-218 0 -346 87t-134 257zM350 492q0 -149 68 -232.5t182 -83.5q112 0 182 87.5t70 236.5v14q-4 143 -73.5 226t-178.5 83q-113 0 -181.5 -90.5t-68.5 -240.5zM600 1176q-126 0 -215 74.5t-102 236.5h145q12 -78 56 -120t116 -42q70 0 115 43t57 119h146
q-6 -84 -35.5 -146.5t-74.5 -97t-97 -51t-111 -16.5z" />
    <glyph glyph-name="Gdotaccent" unicode="&#x120;" horiz-adv-x="1587" 
d="M1264 0l-31 170h-4q-141 -195 -436 -195q-157 0 -289.5 55.5t-223 153t-140.5 232t-50 289.5q0 210 88.5 375.5t254 259.5t380.5 94q257 0 424.5 -128.5t204.5 -326.5h-275q-30 96 -119.5 157.5t-234.5 61.5q-199 0 -319.5 -136t-120.5 -357q0 -220 120 -357t316 -137
q165 0 275 88.5t110 241.5v10h-381v209h625v-760h-174zM692 1632v238h242v-238h-242z" />
    <glyph glyph-name="gdotaccent" unicode="&#x121;" horiz-adv-x="1259" 
d="M106 -123h248q3 -72 67 -116t165 -44q138 0 208 79.5t70 256.5v90h-8q-42 -83 -126.5 -125.5t-201.5 -42.5q-94 0 -175.5 34t-143 98t-96.5 163t-35 222q0 163 63.5 285.5t168.5 184.5t235 62q225 0 311 -168h8v143h252v-946q0 -138 -37.5 -239t-108.5 -162t-166 -90
t-218 -29q-218 0 -346 87t-134 257zM350 492q0 -149 68 -232.5t182 -83.5q112 0 182 87.5t70 236.5v14q-4 143 -73.5 226t-178.5 83q-113 0 -181.5 -90.5t-68.5 -240.5zM479 1223v237h242v-237h-242z" />
    <glyph glyph-name="Gcommaaccent" unicode="&#x122;" horiz-adv-x="1587" 
d="M1264 0l-31 170h-4q-141 -195 -436 -195q-157 0 -289.5 55.5t-223 153t-140.5 232t-50 289.5q0 210 88.5 375.5t254 259.5t380.5 94q257 0 424.5 -128.5t204.5 -326.5h-275q-30 96 -119.5 157.5t-234.5 61.5q-199 0 -319.5 -136t-120.5 -357q0 -220 120 -357t316 -137
q165 0 275 88.5t110 241.5v10h-381v209h625v-760h-174zM672 -125h241v-180l-102 -221h-109l72 194h-102v207z" />
    <glyph glyph-name="gcommaaccent" unicode="&#x123;" horiz-adv-x="1259" 
d="M106 -123h248q3 -72 67 -116t165 -44q138 0 208 79.5t70 256.5v90h-8q-42 -83 -126.5 -125.5t-201.5 -42.5q-94 0 -175.5 34t-143 98t-96.5 163t-35 222q0 163 63.5 285.5t168.5 184.5t235 62q225 0 311 -168h8v143h252v-946q0 -138 -37.5 -239t-108.5 -162t-166 -90
t-218 -29q-218 0 -346 87t-134 257zM350 492q0 -149 68 -232.5t182 -83.5q112 0 182 87.5t70 236.5v14q-4 143 -73.5 226t-178.5 83q-113 0 -181.5 -90.5t-68.5 -240.5zM479 1163v180l103 224h106l-70 -197h103v-207h-242z" />
    <glyph glyph-name="Hcircumflex" unicode="&#x124;" horiz-adv-x="1544" 
d="M166 0v1409h274v-580h664v580h274v-1409h-274v596h-664v-596h-274zM410 1573l262 336h200l263 -336h-217l-146 203l-145 -203h-217z" />
    <glyph glyph-name="hcircumflex" unicode="&#x125;" horiz-adv-x="1226" 
d="M143 0v1499h265v-307q0 -192 -13 -336h8q42 82 122 125t186 43q64 0 119 -13.5t105 -44.5t85 -78t55.5 -119t20.5 -163v-606h-265v573q0 132 -50.5 189t-143.5 57q-100 0 -164.5 -78.5t-64.5 -212.5v-528h-265zM-86 1651l262 336h201l262 -336h-217l-146 202l-145 -202
h-217z" />
    <glyph glyph-name="Hbar" unicode="&#x126;" horiz-adv-x="1544" 
d="M4 1044v166h162v199h274v-199h664v199h274v-199h162v-166h-162v-1044h-274v596h-664v-596h-274v1044h-162zM440 1044v-215h664v215h-664z" />
    <glyph glyph-name="hbar" unicode="&#x127;" horiz-adv-x="1226" 
d="M0 1204v144h143v151h265v-151h290v-144h-290v-12q0 -192 -13 -336h8q42 82 122 125t186 43q64 0 119 -13.5t105 -44.5t85 -78t55.5 -119t20.5 -163v-606h-265v573q0 132 -50.5 189t-143.5 57q-101 0 -165 -79.5t-64 -215.5v-524h-265v1204h-143z" />
    <glyph glyph-name="Itilde" unicode="&#x128;" horiz-adv-x="606" 
d="M166 0v1409h274v-1409h-274zM-55 1612q2 119 56.5 186.5t154.5 67.5q52 0 111 -22.5t109.5 -45t82.5 -22.5q37 0 56 28.5t22 69.5h125q-3 -121 -57 -188.5t-154 -67.5q-53 0 -112 23t-109.5 46t-82.5 23q-36 0 -55 -28.5t-22 -69.5h-125z" />
    <glyph glyph-name="itilde" unicode="&#x129;" horiz-adv-x="550" 
d="M143 0v999h265v-999h-265zM-82 1202q2 119 56.5 186.5t154.5 67.5q52 0 111 -22.5t109.5 -45t82.5 -22.5q37 0 56 28.5t22 69.5h125q-3 -121 -57 -188.5t-154 -67.5q-53 0 -112 23t-109 46t-82 23q-37 0 -56 -28.5t-22 -69.5h-125z" />
    <glyph glyph-name="Imacron" unicode="&#x12a;" horiz-adv-x="606" 
d="M166 0v1409h274v-1409h-274zM-6 1653v176h610v-176h-610z" />
    <glyph glyph-name="imacron" unicode="&#x12b;" horiz-adv-x="550" 
d="M143 0v999h265v-999h-265zM-33 1243v176h611v-176h-611z" />
    <glyph glyph-name="Ibreve" unicode="&#x12c;" horiz-adv-x="606" 
d="M166 0v1409h274v-1409h-274zM303 1585q-126 0 -215 74.5t-102 236.5h145q12 -78 56 -119.5t116 -41.5q70 0 115 42.5t57 118.5h146q-6 -84 -35.5 -146.5t-74.5 -97t-97 -51t-111 -16.5z" />
    <glyph glyph-name="ibreve" unicode="&#x12d;" horiz-adv-x="550" 
d="M143 0v999h265v-999h-265zM276 1176q-126 0 -215 74.5t-102 236.5h145q12 -78 56 -120t116 -42q70 0 115.5 43t57.5 119h145q-6 -84 -35.5 -146.5t-74.5 -97t-97 -51t-111 -16.5z" />
    <glyph glyph-name="Iogonek" unicode="&#x12e;" horiz-adv-x="606" 
d="M166 0v1409h274v-1409h-6q-123 -129 -123 -215t105 -86h59v-150h-82q-254 0 -254 189q0 68 39 128.5t127 133.5h-139z" />
    <glyph glyph-name="iogonek" unicode="&#x12f;" horiz-adv-x="550" 
d="M143 0v999h265v-999q-123 -129 -123 -215t104 -86h60v-150h-82q-254 0 -254 189q0 68 39 128.5t127 133.5h-136zM135 1253v246h281v-246h-281z" />
    <glyph glyph-name="Idotaccent" unicode="&#x130;" horiz-adv-x="606" 
d="M166 0v1409h274v-1409h-274zM182 1632v238h242v-238h-242z" />
    <glyph glyph-name="dotlessi" unicode="&#x131;" horiz-adv-x="550" 
d="M143 0v999h265v-999h-265z" />
    <glyph glyph-name="IJ" unicode="&#x132;" horiz-adv-x="1748" 
d="M166 0v1409h274v-1409h-274zM684 424v61h270v-61q0 -115 50.5 -168t138.5 -53q186 0 186 233v973h275v-967q0 -467 -461 -467q-104 0 -186 25.5t-144 78.5t-95.5 140.5t-33.5 204.5z" />
    <glyph glyph-name="ij" unicode="&#x133;" horiz-adv-x="1103" 
d="M135 1253v246h281v-246h-281zM143 0v999h265v-999h-265zM688 1253v246h279v-246h-279zM696 -94v1093h262v-1112q0 -83 -17 -142.5t-56.5 -105t-108.5 -68t-168 -22.5h-84v205h54q65 0 91.5 36.5t26.5 115.5z" />
    <glyph glyph-name="Jcircumflex" unicode="&#x134;" horiz-adv-x="1138" 
d="M74 424v61h270v-55q0 -117 50 -172t138 -55q187 0 187 237v969h276v-967q0 -467 -463 -467q-213 0 -335.5 109.5t-122.5 339.5zM500 1573l262 336h201l262 -336h-217l-146 203l-145 -203h-217z" />
    <glyph glyph-name="jcircumflex" unicode="&#x135;" horiz-adv-x="550" 
d="M143 -94v1093h265v-1112q0 -168 -79.5 -253t-271.5 -85h-84v205h54q64 0 90 36.5t26 115.5zM-86 1163l262 336h201l262 -336h-217l-146 203l-145 -203h-217z" />
    <glyph glyph-name="Kcommaaccent" unicode="&#x136;" horiz-adv-x="1425" 
d="M166 0v1409h274v-668l619 668h317l-571 -606l604 -803h-315l-465 616l-189 -200v-416h-274zM612 -125h242v-180l-102 -221h-109l72 194h-103v207z" />
    <glyph glyph-name="kcommaaccent" unicode="&#x137;" horiz-adv-x="1126" 
d="M143 0v1499h265v-915l374 415h299l-372 -399l409 -600h-303l-280 414l-127 -135v-279h-265zM473 -125h242v-180l-103 -221h-108l71 194h-102v207z" />
    <glyph glyph-name="Lacute" unicode="&#x139;" horiz-adv-x="1185" 
d="M166 0v1409h274v-1178h674v-231h-948zM209 1573l205 336h278l-303 -336h-180z" />
    <glyph glyph-name="lacute" unicode="&#x13a;" horiz-adv-x="550" 
d="M143 0v1499h265v-1499h-265zM184 1651l205 336h279l-303 -336h-181z" />
    <glyph glyph-name="Lcommaaccent" unicode="&#x13b;" horiz-adv-x="1185" 
d="M166 0v1409h274v-1178h674v-231h-948zM512 -125h242v-180l-103 -221h-108l71 194h-102v207z" />
    <glyph glyph-name="lcommaaccent" unicode="&#x13c;" horiz-adv-x="550" 
d="M143 0v1499h265v-1499h-265zM156 -125h241v-180l-102 -221h-109l72 194h-102v207z" />
    <glyph glyph-name="Lcaron" unicode="&#x13d;" horiz-adv-x="1185" 
d="M166 0v1409h274v-1178h674v-231h-948zM725 967l72 223h-105v219h250v-197l-104 -245h-113z" />
    <glyph glyph-name="lcaron" unicode="&#x13e;" horiz-adv-x="550" 
d="M584 1057l71 223h-104v219h250v-196l-105 -246h-112zM143 0v1499h265v-1499h-265z" />
    <glyph glyph-name="Ldot" unicode="&#x13f;" horiz-adv-x="1185" 
d="M166 0v1409h274v-1178h674v-231h-948zM664 623v245h249v-245h-249z" />
    <glyph glyph-name="ldot" unicode="&#x140;" horiz-adv-x="784" 
d="M143 0v1499h265v-1499h-265zM547 549v246h250v-246h-250z" />
    <glyph glyph-name="Lslash" unicode="&#x141;" horiz-adv-x="1185" 
d="M49 373l-96 135l213 149v752h274v-557l238 170l98 -135l-336 -238v-418h674v-231h-948v455z" />
    <glyph glyph-name="lslash" unicode="&#x142;" horiz-adv-x="550" 
d="M-49 498l192 172v829h265v-594l104 94l92 -112l-196 -176v-711h-265v473l-98 -88z" />
    <glyph glyph-name="Nacute" unicode="&#x143;" horiz-adv-x="1560" 
d="M166 0v1409h248l706 -942h8l-8 942h275v-1409h-244l-711 942h-8l8 -942h-274zM688 1573l205 336h278l-303 -336h-180z" />
    <glyph glyph-name="nacute" unicode="&#x144;" horiz-adv-x="1226" 
d="M143 0v999h252v-143h8q42 82 122 125t186 43q64 0 119 -13.5t105 -44.5t85 -78t55.5 -119t20.5 -163v-606h-265v573q0 132 -50.5 189t-143.5 57q-101 0 -165 -79t-64 -214v-526h-265zM526 1163l205 336h279l-303 -336h-181z" />
    <glyph glyph-name="Ncommaaccent" unicode="&#x145;" horiz-adv-x="1560" 
d="M166 0v1409h248l706 -942h8l-8 942h275v-1409h-244l-711 942h-8l8 -942h-274zM659 -125h242v-180l-102 -221h-109l72 194h-103v207z" />
    <glyph glyph-name="ncommaaccent" unicode="&#x146;" horiz-adv-x="1226" 
d="M143 0v999h252v-143h8q42 82 122 125t186 43q64 0 119 -13.5t105 -44.5t85 -78t55.5 -119t20.5 -163v-606h-265v573q0 132 -50.5 189t-143.5 57q-101 0 -165 -79t-64 -214v-526h-265zM489 -125h242v-180l-102 -221h-109l72 194h-103v207z" />
    <glyph glyph-name="Ncaron" unicode="&#x147;" horiz-adv-x="1560" 
d="M166 0v1409h248l706 -942h8l-8 942h275v-1409h-244l-711 942h-8l8 -942h-274zM680 1573l-262 336h217l145 -203l146 203h217l-262 -336h-201z" />
    <glyph glyph-name="ncaron" unicode="&#x148;" horiz-adv-x="1226" 
d="M143 0v999h252v-143h8q42 82 122 125t186 43q64 0 119 -13.5t105 -44.5t85 -78t55.5 -119t20.5 -163v-606h-265v573q0 132 -50.5 189t-143.5 57q-101 0 -165 -79t-64 -214v-526h-265zM518 1163l-262 336h217l145 -203l146 203h217l-262 -336h-201z" />
    <glyph glyph-name="napostrophe" unicode="&#x149;" horiz-adv-x="1226" 
d="M143 0v999h252v-143h8q42 82 122 125t186 43q64 0 119 -13.5t105 -44.5t85 -78t55.5 -119t20.5 -163v-606h-265v573q0 132 -50.5 189t-143.5 57q-101 0 -165 -79t-64 -214v-526h-265zM160 1163l71 197h-102v207h242v-183l-103 -221h-108z" />
    <glyph glyph-name="Eng" unicode="&#x14a;" horiz-adv-x="1560" 
d="M166 0v1409h248l710 -942h9l-13 942h275v-1452q0 -224 -89.5 -316t-301.5 -92h-121v218h82q87 0 128.5 45.5t41.5 152.5v55l-699 922h-8l12 -942h-274z" />
    <glyph glyph-name="eng" unicode="&#x14b;" horiz-adv-x="1226" 
d="M831 -94v667q0 132 -50.5 189t-143.5 57q-101 0 -165 -79t-64 -214v-526h-265v999h252v-143h8q42 82 122 125t186 43q64 0 119 -13.5t105 -44.5t85 -78t55.5 -119t20.5 -163v-719q0 -168 -79.5 -253t-271.5 -85h-86v205h54q65 0 91.5 36.5t26.5 115.5z" />
    <glyph glyph-name="Omacron" unicode="&#x14c;" horiz-adv-x="1615" 
d="M90 705q0 209 88 374.5t252.5 260t378.5 94.5q210 0 374.5 -94.5t253.5 -260t89 -374.5q0 -156 -52.5 -291t-145.5 -232t-227 -152t-292 -55q-214 0 -378.5 95t-252.5 260.5t-88 374.5zM373 705q0 -217 120.5 -355.5t315.5 -138.5q193 0 313.5 139t120.5 355
t-120.5 354.5t-313.5 138.5q-195 0 -315.5 -138t-120.5 -355zM500 1653v176h610v-176h-610z" />
    <glyph glyph-name="omacron" unicode="&#x14d;" horiz-adv-x="1214" 
d="M78 500q0 242 147.5 383t382.5 141q241 0 385 -139t144 -385q0 -242 -148 -383.5t-381 -141.5q-242 0 -386 139.5t-144 385.5zM350 500q0 -149 70.5 -236.5t187.5 -87.5t186.5 87.5t69.5 236.5q0 151 -69 236t-187 85t-188 -86.5t-70 -234.5zM299 1243v176h610v-176h-610
z" />
    <glyph glyph-name="Obreve" unicode="&#x14e;" horiz-adv-x="1615" 
d="M90 705q0 209 88 374.5t252.5 260t378.5 94.5q210 0 374.5 -94.5t253.5 -260t89 -374.5q0 -156 -52.5 -291t-145.5 -232t-227 -152t-292 -55q-214 0 -378.5 95t-252.5 260.5t-88 374.5zM373 705q0 -217 120.5 -355.5t315.5 -138.5q193 0 313.5 139t120.5 355
t-120.5 354.5t-313.5 138.5q-195 0 -315.5 -138t-120.5 -355zM809 1585q-126 0 -215 74.5t-102 236.5h145q12 -78 56 -119.5t116 -41.5q70 0 115 42.5t57 118.5h145q-13 -162 -102 -236.5t-215 -74.5z" />
    <glyph glyph-name="obreve" unicode="&#x14f;" horiz-adv-x="1214" 
d="M78 500q0 242 147.5 383t382.5 141q241 0 385 -139t144 -385q0 -242 -148 -383.5t-381 -141.5q-242 0 -386 139.5t-144 385.5zM350 500q0 -149 70.5 -236.5t187.5 -87.5t186.5 87.5t69.5 236.5q0 151 -69 236t-187 85t-188 -86.5t-70 -234.5zM608 1176q-126 0 -215 74.5
t-102 236.5h145q12 -78 56 -120t116 -42q70 0 115 43t57 119h146q-6 -84 -35.5 -146.5t-74.5 -97t-97 -51t-111 -16.5z" />
    <glyph glyph-name="Ohungarumlaut" unicode="&#x150;" horiz-adv-x="1615" 
d="M90 705q0 209 88 374.5t252.5 260t378.5 94.5q210 0 374.5 -94.5t253.5 -260t89 -374.5q0 -156 -52.5 -291t-145.5 -232t-227 -152t-292 -55q-214 0 -378.5 95t-252.5 260.5t-88 374.5zM373 705q0 -217 120.5 -355.5t315.5 -138.5q193 0 313.5 139t120.5 355
t-120.5 354.5t-313.5 138.5q-195 0 -315.5 -138t-120.5 -355zM920 1573l204 336h279l-303 -336h-180zM514 1573l205 336h276l-301 -336h-180z" />
    <glyph glyph-name="ohungarumlaut" unicode="&#x151;" horiz-adv-x="1214" 
d="M78 500q0 242 147.5 383t382.5 141q241 0 385 -139t144 -385q0 -242 -148 -383.5t-381 -141.5q-242 0 -386 139.5t-144 385.5zM350 500q0 -149 70.5 -236.5t187.5 -87.5t186.5 87.5t69.5 236.5q0 151 -69 236t-187 85t-188 -86.5t-70 -234.5zM719 1163l205 336h278
l-303 -336h-180zM313 1163l205 336h277l-301 -336h-181z" />
    <glyph glyph-name="OE" unicode="&#x152;" horiz-adv-x="2203" 
d="M840 0q-182 0 -325.5 52.5t-236 147t-140.5 223t-48 282.5t48 282t140.5 222.5t236 147t325.5 52.5h1241v-227h-758v-355h614v-217h-614v-383h778v-227h-1261zM373 705q0 -100 26.5 -183.5t82.5 -151t152 -105.5t224 -38h191v955h-191q-128 0 -224 -38t-152 -105
t-82.5 -150.5t-26.5 -183.5z" />
    <glyph glyph-name="oe" unicode="&#x153;" horiz-adv-x="1931" 
d="M74 500q0 238 147 381t383 143q258 0 387 -172q133 172 375 172q227 0 359.5 -131.5t132.5 -366.5v-73h-740q9 -135 76.5 -210t179.5 -75q91 0 144 39.5t71 95.5h256q-24 -139 -152.5 -233.5t-322.5 -94.5q-255 0 -385 168q-133 -168 -381 -168q-242 0 -386 143t-144 382
zM346 500q0 -147 70 -235.5t188 -88.5t188 88.5t70 235.5q0 149 -69.5 236t-188.5 87q-118 0 -188 -88t-70 -235zM1366 834q-92 0 -154.5 -58.5t-85.5 -163.5h461q-13 114 -67.5 168t-153.5 54z" />
    <glyph glyph-name="Racute" unicode="&#x154;" horiz-adv-x="1421" 
d="M166 0v1409h604q251 0 385.5 -115.5t134.5 -322.5q0 -153 -76.5 -264.5t-220.5 -161.5l350 -545h-299l-323 512h-281v-512h-274zM758 1188h-318v-461h318q122 0 188 67t66 175q0 102 -66 160.5t-188 58.5zM578 1573l204 336h279l-303 -336h-180z" />
    <glyph glyph-name="racute" unicode="&#x155;" horiz-adv-x="808" 
d="M143 0v999h252v-151h4q38 83 105.5 129.5t161.5 46.5q79 0 139 -41l-53 -227q-63 32 -123 32q-108 0 -164.5 -86t-56.5 -225v-477h-265zM381 1163l205 336h278l-303 -336h-180z" />
    <glyph glyph-name="Rcommaaccent" unicode="&#x156;" horiz-adv-x="1421" 
d="M166 0v1409h604q251 0 385.5 -115.5t134.5 -322.5q0 -153 -76.5 -264.5t-220.5 -161.5l350 -545h-299l-323 512h-281v-512h-274zM758 1188h-318v-461h318q122 0 188 67t66 175q0 102 -66 160.5t-188 58.5zM586 -125h241v-180l-102 -221h-109l72 194h-102v207z" />
    <glyph glyph-name="rcommaaccent" unicode="&#x157;" horiz-adv-x="808" 
d="M143 0v999h252v-151h4q38 83 105.5 129.5t161.5 46.5q79 0 139 -41l-53 -227q-63 32 -123 32q-108 0 -164.5 -86t-56.5 -225v-477h-265zM152 -125h241v-180l-102 -221h-109l72 194h-102v207z" />
    <glyph glyph-name="Rcaron" unicode="&#x158;" horiz-adv-x="1421" 
d="M166 0v1409h604q251 0 385.5 -115.5t134.5 -322.5q0 -153 -76.5 -264.5t-220.5 -161.5l350 -545h-299l-323 512h-281v-512h-274zM758 1188h-318v-461h318q122 0 188 67t66 175q0 102 -66 160.5t-188 58.5zM569 1573l-262 336h217l146 -203l145 203h217l-262 -336h-201z
" />
    <glyph glyph-name="rcaron" unicode="&#x159;" horiz-adv-x="808" 
d="M143 0v999h252v-151h4q38 83 105.5 129.5t161.5 46.5q79 0 139 -41l-53 -227q-63 32 -123 32q-108 0 -164.5 -86t-56.5 -225v-477h-265zM373 1163l-262 336h217l145 -203l145 203h218l-263 -336h-200z" />
    <glyph glyph-name="Sacute" unicode="&#x15a;" horiz-adv-x="1368" 
d="M102 401h269q0 -101 83 -161t220 -60q148 0 229.5 56t81.5 157q0 52 -29.5 88t-79 56.5t-114 34.5t-136 27t-143 29t-136 45t-114 70t-79 109t-29.5 158q0 185 151.5 304.5t401.5 119.5q248 0 395.5 -110t147.5 -296h-269q0 94 -76 147.5t-198 53.5q-123 0 -201 -50.5
t-78 -142.5q0 -51 29.5 -87t80 -56t115.5 -34t136.5 -26.5t143.5 -28.5t137 -45t115.5 -70t80 -110t29.5 -159q0 -202 -156.5 -323.5t-435.5 -121.5q-275 0 -423.5 113.5t-148.5 312.5zM586 1573l205 336h278l-303 -336h-180z" />
    <glyph glyph-name="sacute" unicode="&#x15b;" horiz-adv-x="1079" 
d="M70 287h247q0 -48 32 -80t77 -44.5t100 -12.5q103 0 157 32t54 92q0 50 -35.5 75t-111.5 38l-182 29q-69 11 -122 29.5t-97.5 50.5t-68.5 83t-24 119q0 154 123 240t318 86q197 0 316.5 -77.5t119.5 -225.5h-244q0 65 -54 97t-140 32q-83 0 -134 -31t-51 -86
q0 -48 35.5 -73.5t122.5 -38.5l180 -29q67 -11 118 -29t97 -49.5t71 -83.5t25 -121q0 -163 -129 -248.5t-344 -85.5q-208 0 -332 79t-124 233zM444 1163l205 336h279l-303 -336h-181z" />
    <glyph glyph-name="Scircumflex" unicode="&#x15c;" horiz-adv-x="1368" 
d="M102 401h269q0 -101 83 -161t220 -60q148 0 229.5 56t81.5 157q0 52 -29.5 88t-79 56.5t-114 34.5t-136 27t-143 29t-136 45t-114 70t-79 109t-29.5 158q0 185 151.5 304.5t401.5 119.5q248 0 395.5 -110t147.5 -296h-269q0 94 -76 147.5t-198 53.5q-123 0 -201 -50.5
t-78 -142.5q0 -51 29.5 -87t80 -56t115.5 -34t136.5 -26.5t143.5 -28.5t137 -45t115.5 -70t80 -110t29.5 -159q0 -202 -156.5 -323.5t-435.5 -121.5q-275 0 -423.5 113.5t-148.5 312.5zM315 1573l263 336h200l262 -336h-217l-145 203l-146 -203h-217z" />
    <glyph glyph-name="scircumflex" unicode="&#x15d;" horiz-adv-x="1079" 
d="M70 287h247q0 -48 32 -80t77 -44.5t100 -12.5q103 0 157 32t54 92q0 50 -35.5 75t-111.5 38l-182 29q-69 11 -122 29.5t-97.5 50.5t-68.5 83t-24 119q0 154 123 240t318 86q197 0 316.5 -77.5t119.5 -225.5h-244q0 65 -54 97t-140 32q-83 0 -134 -31t-51 -86
q0 -48 35.5 -73.5t122.5 -38.5l180 -29q67 -11 118 -29t97 -49.5t71 -83.5t25 -121q0 -163 -129 -248.5t-344 -85.5q-208 0 -332 79t-124 233zM174 1163l262 336h201l262 -336h-217l-145 203l-146 -203h-217z" />
    <glyph glyph-name="Scedilla" unicode="&#x15e;" horiz-adv-x="1368" 
d="M569 -180l56 157q-252 10 -387.5 122t-135.5 302h269q0 -101 83 -161t220 -60q148 0 229.5 56t81.5 157q0 52 -29.5 88t-79 56.5t-114 34.5t-136 27t-143 29t-136 45t-114 70t-79 109t-29.5 158q0 185 151.5 304.5t401.5 119.5q248 0 395.5 -110t147.5 -296h-269
q0 94 -76 147.5t-198 53.5q-123 0 -201 -50.5t-78 -142.5q0 -51 29.5 -87t80 -56t115.5 -34t136.5 -26.5t143.5 -28.5t137 -45t115.5 -70t80 -110t29.5 -159q0 -194 -145 -314t-404 -129v-55q89 -3 138.5 -52t49.5 -124q0 -88 -60.5 -142.5t-178.5 -54.5h-138v127h109
q47 0 71.5 16.5t24.5 57.5q0 70 -96 70h-68z" />
    <glyph glyph-name="scedilla" unicode="&#x15f;" horiz-adv-x="1079" 
d="M422 -180l55 157q-188 9 -297.5 87t-109.5 223h247q0 -48 32 -80t77 -44.5t100 -12.5q103 0 157 32t54 92q0 50 -35.5 75t-111.5 38l-182 29q-69 11 -122 29.5t-97.5 50.5t-68.5 83t-24 119q0 154 123 240t318 86q197 0 316.5 -77.5t119.5 -225.5h-244q0 65 -54 97
t-140 32q-83 0 -134 -31t-51 -86q0 -48 35.5 -73.5t122.5 -38.5l180 -29q67 -11 118 -29t97 -49.5t71 -83.5t25 -121q0 -155 -116.5 -239.5t-313.5 -92.5v-55q89 -3 139 -52t50 -124q0 -88 -61 -142.5t-179 -54.5h-137v127h108q47 0 72 16.5t25 57.5q0 70 -97 70h-67z" />
    <glyph glyph-name="Scaron" unicode="&#x160;" horiz-adv-x="1368" 
d="M102 401h269q0 -101 83 -161t220 -60q148 0 229.5 56t81.5 157q0 52 -29.5 88t-79 56.5t-114 34.5t-136 27t-143 29t-136 45t-114 70t-79 109t-29.5 158q0 185 151.5 304.5t401.5 119.5q248 0 395.5 -110t147.5 -296h-269q0 94 -76 147.5t-198 53.5q-123 0 -201 -50.5
t-78 -142.5q0 -51 29.5 -87t80 -56t115.5 -34t136.5 -26.5t143.5 -28.5t137 -45t115.5 -70t80 -110t29.5 -159q0 -202 -156.5 -323.5t-435.5 -121.5q-275 0 -423.5 113.5t-148.5 312.5zM578 1573l-263 336h217l146 -203l145 203h217l-262 -336h-200z" />
    <glyph glyph-name="scaron" unicode="&#x161;" horiz-adv-x="1079" 
d="M70 287h247q0 -48 32 -80t77 -44.5t100 -12.5q103 0 157 32t54 92q0 50 -35.5 75t-111.5 38l-182 29q-69 11 -122 29.5t-97.5 50.5t-68.5 83t-24 119q0 154 123 240t318 86q197 0 316.5 -77.5t119.5 -225.5h-244q0 65 -54 97t-140 32q-83 0 -134 -31t-51 -86
q0 -48 35.5 -73.5t122.5 -38.5l180 -29q67 -11 118 -29t97 -49.5t71 -83.5t25 -121q0 -163 -129 -248.5t-344 -85.5q-208 0 -332 79t-124 233zM436 1163l-262 336h217l146 -203l145 203h217l-262 -336h-201z" />
    <glyph glyph-name="Tcommaaccent" unicode="&#x162;" horiz-adv-x="1261" 
d="M528 -180l64 180h-98v1180h-478v229h1229v-229h-477v-1180h-92v-78q89 -3 138.5 -52t49.5 -124q0 -88 -60.5 -142.5t-178.5 -54.5h-138v127h109q47 0 71.5 16.5t24.5 57.5q0 70 -96 70h-68z" />
    <glyph glyph-name="tcommaaccent" unicode="&#x163;" horiz-adv-x="739" 
d="M322 -180l61 194q-109 26 -156 104t-47 226v459h-188v196h188v304h262v-304h248v-196h-248v-443q0 -80 31.5 -113.5t108.5 -33.5h108v-213h-160q-41 0 -59 2v-80q89 -3 138.5 -52t49.5 -124q0 -88 -61 -142.5t-180 -54.5h-137v127h110q46 0 70 16.5t24 57.5q0 70 -94 70
h-69z" />
    <glyph glyph-name="Tcaron" unicode="&#x164;" horiz-adv-x="1261" 
d="M16 1180v229h1229v-229h-477v-1180h-274v1180h-478zM528 1573l-262 336h217l146 -203l145 203h217l-262 -336h-201z" />
    <glyph glyph-name="tcaron" unicode="&#x165;" horiz-adv-x="739" 
d="M180 344v459h-188v196h188v304h262v-304h248v-196h-248v-443q0 -80 31.5 -113.5t108.5 -33.5h108v-213h-160q-194 0 -272 77.5t-78 266.5zM559 1114l72 223h-105v219h250v-196l-104 -246h-113z" />
    <glyph glyph-name="Tbar" unicode="&#x166;" horiz-adv-x="1261" 
d="M16 1180v229h1227v-229h-475v-473h358v-162h-358v-545h-274v545h-359v162h359v473h-478z" />
    <glyph glyph-name="tbar" unicode="&#x167;" horiz-adv-x="739" 
d="M-8 444v142h188v217h-188v196h188v304h262v-304h248v-196h-248v-217h248v-142h-248v-92q0 -75 31.5 -107t108.5 -32h108v-213h-162q-185 0 -266.5 74.5t-81.5 247.5v122h-188z" />
    <glyph glyph-name="Utilde" unicode="&#x168;" horiz-adv-x="1492" 
d="M139 565v844h277v-840q0 -174 83.5 -266t248.5 -92q164 0 246.5 92t82.5 266v840h277v-844q0 -590 -606 -590q-609 0 -609 590zM389 1612q2 119 56.5 186.5t154.5 67.5q52 0 111 -22.5t109.5 -45t82.5 -22.5q37 0 56 28.5t22 69.5h125q-3 -121 -57 -188.5t-154 -67.5
q-53 0 -112 23t-109 46t-82 23q-37 0 -56 -28.5t-22 -69.5h-125z" />
    <glyph glyph-name="utilde" unicode="&#x169;" horiz-adv-x="1218" 
d="M127 393v606h264v-573q0 -132 50.5 -189t144.5 -57q99 0 162 78t63 213v528h262v-999h-250v143h-8q-42 -83 -120 -125.5t-183 -42.5q-64 0 -119 13.5t-105 44.5t-85 78t-55.5 119t-20.5 163zM254 1202q2 119 56.5 186.5t154.5 67.5q52 0 111 -22.5t109.5 -45t82.5 -22.5
q37 0 56 28.5t22 69.5h125q-3 -121 -57 -188.5t-154 -67.5q-53 0 -112 23t-109 46t-82 23q-37 0 -56 -28.5t-22 -69.5h-125z" />
    <glyph glyph-name="Umacron" unicode="&#x16a;" horiz-adv-x="1492" 
d="M139 565v844h277v-840q0 -174 83.5 -266t248.5 -92q164 0 246.5 92t82.5 266v840h277v-844q0 -590 -606 -590q-609 0 -609 590zM438 1653v176h611v-176h-611z" />
    <glyph glyph-name="umacron" unicode="&#x16b;" horiz-adv-x="1218" 
d="M127 393v606h264v-573q0 -132 50.5 -189t144.5 -57q99 0 162 78t63 213v528h262v-999h-250v143h-8q-42 -83 -120 -125.5t-183 -42.5q-64 0 -119 13.5t-105 44.5t-85 78t-55.5 119t-20.5 163zM303 1243v176h610v-176h-610z" />
    <glyph glyph-name="Ubreve" unicode="&#x16c;" horiz-adv-x="1492" 
d="M139 565v844h277v-840q0 -174 83.5 -266t248.5 -92q164 0 246.5 92t82.5 266v840h277v-844q0 -590 -606 -590q-609 0 -609 590zM748 1585q-59 0 -111 16.5t-97 51t-74.5 97t-35.5 146.5h145q12 -78 56.5 -119.5t116.5 -41.5q70 0 115 42.5t57 118.5h145
q-13 -162 -102 -236.5t-215 -74.5z" />
    <glyph glyph-name="ubreve" unicode="&#x16d;" horiz-adv-x="1218" 
d="M127 393v606h264v-573q0 -132 50.5 -189t144.5 -57q99 0 162 78t63 213v528h262v-999h-250v143h-8q-42 -83 -120 -125.5t-183 -42.5q-64 0 -119 13.5t-105 44.5t-85 78t-55.5 119t-20.5 163zM612 1176q-126 0 -215 74.5t-102 236.5h145q12 -78 56 -120t116 -42
q70 0 115 43t57 119h146q-6 -84 -35.5 -146.5t-74.5 -97t-97 -51t-111 -16.5z" />
    <glyph glyph-name="Uring" unicode="&#x16e;" horiz-adv-x="1492" 
d="M139 565v844h277v-840q0 -174 83.5 -266t248.5 -92q164 0 246.5 92t82.5 266v840h277v-844q0 -590 -606 -590q-609 0 -609 590zM748 1546q-93 0 -156.5 58.5t-63.5 148.5q0 92 63.5 150.5t156.5 58.5q91 0 155 -58.5t64 -150.5q0 -90 -63 -148.5t-156 -58.5zM748 1655
q40 0 69 28t29 70t-29 71t-69 29t-69.5 -29t-29.5 -71t29 -70t70 -28z" />
    <glyph glyph-name="uring" unicode="&#x16f;" horiz-adv-x="1218" 
d="M127 393v606h264v-573q0 -132 50.5 -189t144.5 -57q99 0 162 78t63 213v528h262v-999h-250v143h-8q-42 -83 -120 -125.5t-183 -42.5q-64 0 -119 13.5t-105 44.5t-85 78t-55.5 119t-20.5 163zM612 1137q-93 0 -156 58t-63 148q0 92 63 150.5t156 58.5q91 0 155 -58.5
t64 -150.5q0 -90 -63 -148t-156 -58zM612 1245q41 0 70 28t29 70t-29.5 71.5t-69.5 29.5t-69 -29.5t-29 -71.5t29 -70t69 -28z" />
    <glyph glyph-name="Uhungarumlaut" unicode="&#x170;" horiz-adv-x="1492" 
d="M139 565v844h277v-840q0 -174 83.5 -266t248.5 -92q164 0 246.5 92t82.5 266v840h277v-844q0 -590 -606 -590q-609 0 -609 590zM858 1573l205 336h278l-303 -336h-180zM453 1573l204 336h277l-301 -336h-180z" />
    <glyph glyph-name="uhungarumlaut" unicode="&#x171;" horiz-adv-x="1218" 
d="M127 393v606h264v-573q0 -132 50.5 -189t144.5 -57q99 0 162 78t63 213v528h262v-999h-250v143h-8q-42 -83 -120 -125.5t-183 -42.5q-64 0 -119 13.5t-105 44.5t-85 78t-55.5 119t-20.5 163zM723 1163l205 336h278l-303 -336h-180zM317 1163l205 336h277l-301 -336h-181z
" />
    <glyph glyph-name="Uogonek" unicode="&#x172;" horiz-adv-x="1492" 
d="M655 -250q0 127 160 227q-11 0 -33 -1t-34 -1q-609 0 -609 590v844h277v-840q0 -174 83.5 -266t248.5 -92q164 0 246.5 92t82.5 266v840h277v-844q0 -383 -269 -524q-123 -64 -187 -128t-64 -122q0 -92 102 -92h61v-150h-82q-260 0 -260 201z" />
    <glyph glyph-name="uogonek" unicode="&#x173;" horiz-adv-x="1218" 
d="M778 -262q0 68 39 128.5t127 133.5h-121v143h-8q-42 -83 -120 -125.5t-183 -42.5q-64 0 -119 13.5t-105 44.5t-85 78t-55.5 119t-20.5 163v606h264v-573q0 -132 50.5 -189t144.5 -57q99 0 162 78t63 213v528h262v-999q-123 -129 -123 -215t105 -86h59v-150h-82
q-254 0 -254 189z" />
    <glyph glyph-name="Wcircumflex" unicode="&#x174;" horiz-adv-x="2002" 
d="M383 0l-363 1409h295l252 -1114h8l289 1114h285l295 -1114h8l244 1114h286l-356 -1409h-340l-280 1061h-9l-276 -1061h-338zM641 1573l262 336h201l262 -336h-217l-145 203l-146 -203h-217z" />
    <glyph glyph-name="wcircumflex" unicode="&#x175;" horiz-adv-x="1589" 
d="M303 0l-291 999h264l183 -739h8l203 739h258l202 -739h9l182 739h256l-291 -999h-297l-190 729h-8l-193 -729h-295zM432 1163l262 336h201l262 -336h-217l-145 203l-146 -203h-217z" />
    <glyph glyph-name="Ycircumflex" unicode="&#x176;" horiz-adv-x="1361" 
d="M539 0v541l-519 868h312l346 -606h8l365 606h290l-526 -860v-549h-276zM319 1573l263 336h200l262 -336h-217l-145 203l-145 -203h-218z" />
    <glyph glyph-name="ycircumflex" unicode="&#x177;" horiz-adv-x="1060" 
d="M377 0l-369 999h287l242 -739h8l239 739h269l-400 -1122q-118 -344 -405 -344h-121v209h61q89 0 148 44t90 142l23 72h-72zM166 1163l262 336h201l262 -336h-217l-146 203l-145 -203h-217z" />
    <glyph glyph-name="Ydieresis" unicode="&#x178;" horiz-adv-x="1361" 
d="M539 0v541l-519 868h312l346 -606h8l365 606h290l-526 -860v-549h-276zM784 1632v238h242v-238h-242zM338 1632v238h240v-238h-240z" />
    <glyph glyph-name="Zacute" unicode="&#x179;" horiz-adv-x="1253" 
d="M100 1184v225h1082v-160l-752 -1024h748v-225h-1108v160l753 1024h-723zM535 1573l204 336h279l-303 -336h-180z" />
    <glyph glyph-name="zacute" unicode="&#x17a;" horiz-adv-x="980" 
d="M66 799v200h841v-153l-504 -645h512v-201h-845v143l512 656h-516zM395 1163l205 336h279l-304 -336h-180z" />
    <glyph glyph-name="Zdotaccent" unicode="&#x17b;" horiz-adv-x="1253" 
d="M100 1184v225h1082v-160l-752 -1024h748v-225h-1108v160l753 1024h-723zM506 1632v238h242v-238h-242z" />
    <glyph glyph-name="zdotaccent" unicode="&#x17c;" horiz-adv-x="980" 
d="M66 799v200h841v-153l-504 -645h512v-201h-845v143l512 656h-516zM367 1223v237h241v-237h-241z" />
    <glyph glyph-name="Zcaron" unicode="&#x17d;" horiz-adv-x="1253" 
d="M100 1184v225h1082v-160l-752 -1024h748v-225h-1108v160l753 1024h-723zM526 1573l-262 336h217l146 -203l145 203h217l-262 -336h-201z" />
    <glyph glyph-name="zcaron" unicode="&#x17e;" horiz-adv-x="980" 
d="M66 799v200h841v-153l-504 -645h512v-201h-845v143l512 656h-516zM387 1163l-262 336h217l145 -203l146 203h217l-262 -336h-201z" />
    <glyph glyph-name="longs" unicode="&#x17f;" horiz-adv-x="698" 
d="M193 0v803h-189v196h189v134q0 190 88.5 278t285.5 88h152v-205h-98q-94 0 -129 -38t-35 -132v-1124h-264z" />
    <glyph glyph-name="florin" unicode="&#x192;" horiz-adv-x="1163" 
d="M143 567v166h258l35 330q40 371 381 371q159 0 239 -83t70 -255l-6 -78h-223l4 63q6 81 -14.5 120.5t-73.5 39.5t-79.5 -43t-35.5 -135l-34 -330h290v-166h-307l-61 -590q-21 -194 -118.5 -282t-264.5 -88q-158 0 -238.5 83t-68.5 255l4 78h225l-6 -64q-15 -160 90 -160
q51 0 77.5 43t35.5 135l61 590h-240z" />
    <glyph glyph-name="AEacute" unicode="&#x1fc;" horiz-adv-x="2287" 
d="M10 0l1018 1409h1137v-227h-750v-355h606v-217h-606v-383h770v-227h-1044v315h-592l-223 -315h-316zM1133 1135l-428 -603h436v603h-8zM1188 1573l205 336h278l-303 -336h-180z" />
    <glyph glyph-name="aeacute" unicode="&#x1fd;" horiz-adv-x="1777" 
d="M125 676q6 91 44 159.5t99.5 109t136.5 60t162 19.5q236 0 336 -121q124 121 326 121q216 0 345.5 -132t129.5 -366v-73h-707q9 -138 72 -211.5t168 -73.5q156 0 199 135h256q-24 -139 -150 -233.5t-309 -94.5q-265 0 -391 193q-116 -193 -393 -193q-177 0 -270 76.5
t-93 206.5q0 254 340 305l192 29q78 12 102.5 28.5t24.5 55.5q0 71 -44.5 117.5t-133.5 46.5q-85 0 -137.5 -42t-58.5 -122h-246zM502 160q103 0 173 61t70 182v89q-23 -35 -98 -48l-153 -24q-148 -23 -148 -135q0 -61 41.5 -93t114.5 -32zM1229 834q-89 0 -146.5 -58
t-78.5 -164h430q-19 222 -205 222zM782 1163l205 336h279l-303 -336h-181z" />
    <glyph glyph-name="Oslashacute" unicode="&#x1fe;" horiz-adv-x="1615" 
d="M119 -25l170 205q-96 99 -147.5 233.5t-51.5 291.5q0 209 89 374.5t253.5 260t376.5 94.5q233 0 410 -119l98 119h182l-172 -209q199 -209 199 -520q0 -208 -90 -374.5t-254 -261t-373 -94.5q-240 0 -414 117l-94 -117h-182zM373 705q0 -183 88 -314l598 727
q-110 80 -250 80q-195 0 -315.5 -138t-120.5 -355zM1243 705q0 177 -88 311l-598 -727q111 -78 252 -78q193 0 313.5 139t120.5 355zM717 1573l205 336h278l-303 -336h-180z" />
    <glyph glyph-name="oslashacute" unicode="&#x1ff;" horiz-adv-x="1206" 
d="M100 -25l117 142q-143 140 -143 383q0 237 148 380.5t382 143.5q170 0 301 -78l64 78h153l-125 -150q136 -142 136 -374q0 -237 -147.5 -381t-381.5 -144q-165 0 -293 70l-57 -70h-154zM346 500q0 -110 37 -183l375 451q-62 53 -154 53q-117 0 -187.5 -87.5t-70.5 -233.5
zM862 500q0 92 -33 170l-370 -447q59 -47 145 -47q117 0 187.5 89t70.5 235zM512 1163l205 336h278l-303 -336h-180z" />
    <glyph glyph-name="Scommaaccent" unicode="&#x218;" horiz-adv-x="1368" 
d="M102 401h269q0 -101 83 -161t220 -60q148 0 229.5 56t81.5 157q0 52 -29.5 88t-79 56.5t-114 34.5t-136 27t-143 29t-136 45t-114 70t-79 109t-29.5 158q0 185 151.5 304.5t401.5 119.5q248 0 395.5 -110t147.5 -296h-269q0 94 -76 147.5t-198 53.5q-123 0 -201 -50.5
t-78 -142.5q0 -51 29.5 -87t80 -56t115.5 -34t136.5 -26.5t143.5 -28.5t137 -45t115.5 -70t80 -110t29.5 -159q0 -202 -156.5 -323.5t-435.5 -121.5q-275 0 -423.5 113.5t-148.5 312.5zM553 -125h242v-180l-103 -221h-108l71 194h-102v207z" />
    <glyph glyph-name="scommaaccent" unicode="&#x219;" horiz-adv-x="1079" 
d="M70 287h247q0 -48 32 -80t77 -44.5t100 -12.5q103 0 157 32t54 92q0 50 -35.5 75t-111.5 38l-182 29q-69 11 -122 29.5t-97.5 50.5t-68.5 83t-24 119q0 154 123 240t318 86q197 0 316.5 -77.5t119.5 -225.5h-244q0 65 -54 97t-140 32q-83 0 -134 -31t-51 -86
q0 -48 35.5 -73.5t122.5 -38.5l180 -29q67 -11 118 -29t97 -49.5t71 -83.5t25 -121q0 -163 -129 -248.5t-344 -85.5q-208 0 -332 79t-124 233zM406 -125h241v-180l-102 -221h-109l72 194h-102v207z" />
    <glyph glyph-name="uni021A" unicode="&#x21a;" horiz-adv-x="1261" 
d="M16 1180v229h1229v-229h-477v-1180h-274v1180h-478zM512 -125h242v-180l-103 -221h-108l71 194h-102v207z" />
    <glyph glyph-name="uni021B" unicode="&#x21b;" horiz-adv-x="739" 
d="M180 344v459h-188v196h188v304h262v-304h248v-196h-248v-443q0 -80 31.5 -113.5t108.5 -33.5h108v-213h-160q-194 0 -272 77.5t-78 266.5zM309 -125h242v-180l-102 -221h-109l72 194h-103v207z" />
    <glyph glyph-name="circumflex" unicode="&#x2c6;" horiz-adv-x="1200" 
d="M238 1163l262 336h200l263 -336h-218l-145 203l-145 -203h-217z" />
    <glyph glyph-name="caron" unicode="&#x2c7;" horiz-adv-x="1200" 
d="M500 1163l-262 336h217l145 -203l145 203h218l-263 -336h-200z" />
    <glyph glyph-name="uni02C9" unicode="&#x2c9;" horiz-adv-x="1200" 
d="M291 1243v176h610v-176h-610z" />
    <glyph glyph-name="breve" unicode="&#x2d8;" horiz-adv-x="1200" 
d="M600 1176q-126 0 -215 74.5t-102 236.5h145q12 -78 56 -120t116 -42q70 0 115 43t57 119h146q-6 -84 -35.5 -146.5t-74.5 -97t-97 -51t-111 -16.5z" />
    <glyph glyph-name="dotaccent" unicode="&#x2d9;" horiz-adv-x="1200" 
d="M479 1223v237h242v-237h-242z" />
    <glyph glyph-name="ring" unicode="&#x2da;" horiz-adv-x="1200" 
d="M600 1137q-93 0 -156 58t-63 148q0 92 63 150.5t156 58.5q91 0 155 -58.5t64 -150.5q0 -90 -63 -148t-156 -58zM600 1245q40 0 69 28t29 70t-29 71.5t-69 29.5t-69 -29.5t-29 -71.5t29 -70t69 -28z" />
    <glyph glyph-name="ogonek" unicode="&#x2db;" horiz-adv-x="1200" 
d="M436 -262q0 68 39 128.5t127 133.5h129q-123 -129 -123 -215t105 -86h59v-150h-82q-254 0 -254 189z" />
    <glyph glyph-name="tilde" unicode="&#x2dc;" horiz-adv-x="1200" 
d="M242 1202q2 119 56.5 186.5t154.5 67.5q52 0 111 -22.5t109.5 -45t82.5 -22.5q37 0 56 28.5t22 69.5h124q-3 -121 -56.5 -188.5t-153.5 -67.5q-53 0 -112 23t-109.5 46t-82.5 23q-36 0 -55 -28.5t-22 -69.5h-125z" />
    <glyph glyph-name="hungarumlaut" unicode="&#x2dd;" horiz-adv-x="1200" 
d="M711 1163l204 336h279l-303 -336h-180zM305 1163l205 336h276l-301 -336h-180z" />
    <glyph glyph-name="uni0394" unicode="&#x394;" horiz-adv-x="1353" 
d="M27 0l508 1409h284l506 -1409h-1298zM674 1124h-8l-312 -911h631z" />
    <glyph glyph-name="uni03A9" unicode="&#x3a9;" horiz-adv-x="1425" 
d="M821 0v477q108 29 186 128.5t78 246.5q0 171 -103.5 274t-268.5 103t-269 -103t-104 -274q0 -147 78.5 -246.5t185.5 -128.5v-477h-495v197h278v161q-143 68 -227 198.5t-84 299.5q0 121 45.5 227t127.5 183.5t202 122.5t262 45t262 -45t202 -122.5t127.5 -183.5
t45.5 -227q0 -169 -84.5 -299.5t-227.5 -198.5v-161h279v-197h-496z" />
    <glyph glyph-name="uni03BC" unicode="&#x3bc;" horiz-adv-x="1220" 
d="M831 0v143h-8q-83 -168 -299 -168q-82 0 -149 37q24 -193 24 -338v-125h-262v1450h262v-573q0 -132 50.5 -189t146.5 -57q101 0 162 80t61 215v524h264v-999h-252z" />
    <glyph glyph-name="pi" unicode="&#x3c0;" horiz-adv-x="1249" 
d="M154 0v999h942v-999h-262v795h-418v-795h-262z" />
    <glyph glyph-name="Wgrave" unicode="&#x1e80;" horiz-adv-x="2002" 
d="M383 0l-363 1409h295l252 -1114h8l289 1114h285l295 -1114h8l244 1114h286l-356 -1409h-340l-280 1061h-9l-276 -1061h-338zM915 1573l-303 336h277l207 -336h-181z" />
    <glyph glyph-name="wgrave" unicode="&#x1e81;" horiz-adv-x="1589" 
d="M303 0l-291 999h264l183 -739h8l203 739h258l202 -739h9l182 739h256l-291 -999h-297l-190 729h-8l-193 -729h-295zM707 1163l-304 336h277l207 -336h-180z" />
    <glyph glyph-name="Wacute" unicode="&#x1e82;" horiz-adv-x="2002" 
d="M383 0l-363 1409h295l252 -1114h8l289 1114h285l295 -1114h8l244 1114h286l-356 -1409h-340l-280 1061h-9l-276 -1061h-338zM911 1573l205 336h279l-303 -336h-181z" />
    <glyph glyph-name="wacute" unicode="&#x1e83;" horiz-adv-x="1589" 
d="M303 0l-291 999h264l183 -739h8l203 739h258l202 -739h9l182 739h256l-291 -999h-297l-190 729h-8l-193 -729h-295zM702 1163l205 336h279l-303 -336h-181z" />
    <glyph glyph-name="Wdieresis" unicode="&#x1e84;" horiz-adv-x="2002" 
d="M383 0l-363 1409h295l252 -1114h8l289 1114h285l295 -1114h8l244 1114h286l-356 -1409h-340l-280 1061h-9l-276 -1061h-338zM1106 1632v238h242v-238h-242zM659 1632v238h240v-238h-240z" />
    <glyph glyph-name="wdieresis" unicode="&#x1e85;" horiz-adv-x="1589" 
d="M303 0l-291 999h264l183 -739h8l203 739h258l202 -739h9l182 739h256l-291 -999h-297l-190 729h-8l-193 -729h-295zM897 1223v237h242v-237h-242zM451 1223v237h239v-237h-239z" />
    <glyph glyph-name="Ygrave" unicode="&#x1ef2;" horiz-adv-x="1361" 
d="M539 0v541l-519 868h312l346 -606h8l365 606h290l-526 -860v-549h-276zM594 1573l-303 336h276l207 -336h-180z" />
    <glyph glyph-name="ygrave" unicode="&#x1ef3;" horiz-adv-x="1060" 
d="M377 0l-369 999h287l242 -739h8l239 739h269l-400 -1122q-118 -344 -405 -344h-121v209h61q89 0 148 44t90 142l23 72h-72zM440 1163l-303 336h277l207 -336h-181z" />
    <glyph glyph-name="endash" unicode="&#x2013;" horiz-adv-x="1138" 
d="M109 403v226h921v-226h-921z" />
    <glyph glyph-name="emdash" unicode="&#x2014;" horiz-adv-x="1720" 
d="M109 403v226h1503v-226h-1503z" />
    <glyph glyph-name="quoteleft" unicode="&#x2018;" horiz-adv-x="538" 
d="M135 834v245l94 330h123l-67 -313h116v-262h-266z" />
    <glyph glyph-name="quoteright" unicode="&#x2019;" horiz-adv-x="538" 
d="M186 834l66 313h-117v262h266v-246l-92 -329h-123z" />
    <glyph glyph-name="quotesinglbase" unicode="&#x201a;" horiz-adv-x="538" 
d="M252 0h-117v262h266v-246l-92 -329h-123z" />
    <glyph glyph-name="quotedblleft" unicode="&#x201c;" horiz-adv-x="958" 
d="M135 834v245l94 330h123l-67 -313h116v-262h-266zM557 834v245l94 330h123l-67 -313h116v-262h-266z" />
    <glyph glyph-name="quotedblright" unicode="&#x201d;" horiz-adv-x="958" 
d="M186 834l66 313h-117v262h266v-246l-92 -329h-123zM608 834l66 313h-117v262h266v-246l-94 -329h-121z" />
    <glyph glyph-name="quotedblbase" unicode="&#x201e;" horiz-adv-x="958" 
d="M252 0h-117v262h266v-246l-92 -329h-123zM674 0h-117v262h266v-246l-94 -329h-121z" />
    <glyph glyph-name="dagger" unicode="&#x2020;" horiz-adv-x="960" 
d="M90 877v188h279v344h223v-344h278v-188h-278v-877h-223v877h-279z" />
    <glyph glyph-name="daggerdbl" unicode="&#x2021;" horiz-adv-x="960" 
d="M90 899v188h279v322h223v-322h278v-188h-278v-397h278v-189h-278v-313h-223v313h-279v189h279v397h-279z" />
    <glyph glyph-name="bullet" unicode="&#x2022;" horiz-adv-x="999" 
d="M500 164q-149 0 -251 101.5t-102 250.5t102 250.5t251 101.5t250.5 -101.5t101.5 -250.5t-101.5 -250.5t-250.5 -101.5z" />
    <glyph glyph-name="ellipsis" unicode="&#x2026;" horiz-adv-x="1718" 
d="M1280 0v287h297v-287h-297zM711 0v287h297v-287h-297zM141 0v287h297v-287h-297z" />
    <glyph glyph-name="perthousand" unicode="&#x2030;" horiz-adv-x="2412" 
d="M375 688q-161 0 -245.5 102.5t-84.5 266.5t84.5 266t245.5 102q162 0 246 -101.5t84 -266.5t-84 -267t-246 -102zM2036 -16q-161 0 -245.5 102t-84.5 266t84.5 266.5t245.5 102.5q162 0 245.5 -102t83.5 -267t-83.5 -266.5t-245.5 -101.5zM1286 -16q-161 0 -245.5 102
t-84.5 266t84.5 266.5t245.5 102.5t244.5 -102t83.5 -267t-83.5 -266.5t-244.5 -101.5zM391 -25l713 1459h166l-713 -1459h-166zM1286 141q127 0 127 211t-127 211q-64 0 -96.5 -55t-32.5 -156t32.5 -156t96.5 -55zM2036 141q64 0 96.5 55t32.5 156q0 211 -129 211
q-127 0 -127 -211q0 -101 32.5 -156t94.5 -55zM375 846q64 0 96.5 55t32.5 156q0 211 -129 211q-127 0 -127 -211q0 -101 32.5 -156t94.5 -55z" />
    <glyph glyph-name="guilsinglleft" unicode="&#x2039;" horiz-adv-x="708" 
d="M393 98l-295 418l295 418h215l-229 -418l229 -418h-215z" />
    <glyph glyph-name="guilsinglright" unicode="&#x203a;" horiz-adv-x="708" 
d="M98 98l232 418l-232 418h215l295 -418l-295 -418h-215z" />
    <glyph glyph-name="fraction" unicode="&#x2044;" horiz-adv-x="159" 
d="M-360 -25q308 626 712 1459h166l-713 -1459h-165z" />
    <glyph glyph-name="uni2070" unicode="&#x2070;" 
d="M375 999q-161 0 -245.5 102.5t-84.5 266.5t84.5 266.5t245.5 102.5q162 0 246 -102t84 -267t-84 -267t-246 -102zM375 1157q64 0 96.5 55t32.5 156q0 211 -129 211q-127 0 -127 -211q0 -101 32.5 -156t94.5 -55z" />
    <glyph glyph-name="uni2074" unicode="&#x2074;" 
d="M41 1135v114l385 475h176v-440h96v-149h-96v-119h-205v119h-356zM240 1284h157v201z" />
    <glyph glyph-name="uni2075" unicode="&#x2075;" 
d="M80 1204h199q5 -33 30.5 -55.5t69.5 -22.5t73 28.5t29 80.5q0 51 -29 77.5t-73 26.5q-70 0 -96 -59l-189 18l29 422h518v-153h-350l-12 -150h6q45 49 147 49q106 0 176 -54.5t70 -172.5q0 -113 -83 -176.5t-210 -63.5q-146 0 -220.5 55.5t-84.5 149.5z" />
    <glyph glyph-name="uni2076" unicode="&#x2076;" 
d="M668 1528h-193q-2 33 -25 54.5t-59 21.5q-24 0 -42.5 -8t-36 -28t-28 -60.5t-14.5 -100.5q22 26 68.5 42.5t99.5 16.5q106 0 176 -54.5t70 -172.5q0 -113 -83 -176.5t-210 -63.5q-325 0 -325 353q0 201 88.5 293t240.5 92q131 0 199.5 -56t73.5 -153zM385 1339
q-44 0 -73 -26t-29 -78t29 -80.5t73 -28.5q45 0 73.5 28.5t28.5 80.5t-28.5 78t-73.5 26z" />
    <glyph glyph-name="uni2077" unicode="&#x2077;" 
d="M152 1016l303 534h-389v170h626v-121l-327 -583h-213z" />
    <glyph glyph-name="uni2078" unicode="&#x2078;" 
d="M57 1200q0 68 38.5 114t101.5 58v8q-53 12 -86 54t-33 102q0 91 80.5 146t216.5 55t217.5 -55t81.5 -146q0 -60 -33 -102t-86 -54v-8q62 -12 100.5 -58.5t38.5 -113.5q0 -97 -83 -149t-236 -52q-152 0 -235 52t-83 149zM260 1223q0 -45 31.5 -70t83.5 -25q53 0 85 25
t32 70q0 44 -32 68t-85 24q-52 0 -83.5 -24.5t-31.5 -67.5zM272 1522q0 -39 27.5 -61.5t75.5 -22.5q49 0 75.5 22t26.5 62q0 41 -26.5 63.5t-75.5 22.5q-48 0 -75.5 -22.5t-27.5 -63.5z" />
    <glyph glyph-name="uni2079" unicode="&#x2079;" 
d="M74 1208h194q1 -32 28 -53.5t64 -21.5q48 0 75.5 41.5t33.5 152.5q-13 -26 -58.5 -41.5t-99.5 -15.5q-52 0 -95.5 11t-80 35t-57.5 67.5t-21 101.5q0 115 83.5 183.5t211.5 68.5q324 0 324 -353q0 -385 -320 -385q-132 0 -204 56t-78 153zM358 1397q44 0 73.5 26.5
t29.5 77.5q0 52 -29.5 80.5t-73.5 28.5q-45 0 -73.5 -28.5t-28.5 -80.5t28.5 -78t73.5 -26z" />
    <glyph glyph-name="parenleft.superior" unicode="&#x207d;" horiz-adv-x="491" 
d="M287 868q-66 79 -115 215.5t-49 284.5t49 284.5t115 215.5h188q-61 -75 -112.5 -215t-51.5 -285t51.5 -285t112.5 -215h-188z" />
    <glyph glyph-name="parenright.superior" unicode="&#x207e;" horiz-adv-x="491" 
d="M16 868q61 75 112.5 215t51.5 285t-51.5 285t-112.5 215h189q66 -79 115 -215.5t49 -284.5t-49 -284.5t-115 -215.5h-189z" />
    <glyph glyph-name="n.superior" unicode="&#x207f;" horiz-adv-x="874" 
d="M94 1016v704h203v-102h6q59 121 221 121q114 0 188 -68t74 -211v-444h-208v395q0 160 -127 160q-66 0 -106 -48t-40 -134v-373h-211z" />
    <glyph glyph-name="uni2080" unicode="&#x2080;" 
d="M375 -328q-161 0 -245.5 102.5t-84.5 266.5t84.5 266.5t245.5 102.5q162 0 246 -102t84 -267t-84 -267t-246 -102zM375 -170q64 0 96.5 55t32.5 156q0 211 -129 211q-127 0 -127 -211q0 -101 32.5 -156t94.5 -55z" />
    <glyph glyph-name="uni2081" unicode="&#x2081;" 
d="M160 76l-82 137l305 180h125v-547h188v-157h-594v157h197v308z" />
    <glyph glyph-name="uni2082" unicode="&#x2082;" 
d="M57 -311q0 80 19.5 141.5t56.5 103t77 68.5t95 51l35 19q75 32 109 57t34 55q0 80 -104 80q-52 0 -83 -28t-34 -84h-196q3 87 48 147t111.5 85.5t149.5 25.5q141 0 225 -59.5t84 -160.5q0 -46 -14.5 -81.5t-45.5 -63.5t-66 -48t-89 -44l-37 -16q-129 -57 -129 -91h377
v-157h-623z" />
    <glyph glyph-name="uni2083" unicode="&#x2083;" 
d="M72 -94h188q0 -49 31 -77t84 -28t85 25t32 70q0 44 -32.5 68t-90.5 24h-43v123h43q52 0 80 22t28 62q0 86 -102 86q-47 0 -75 -26.5t-28 -70.5h-184q3 108 82 167t211 59t212.5 -55t80.5 -146q0 -60 -33 -102t-86 -54v-6q63 -14 101 -57.5t38 -108.5q0 -102 -83 -155.5
t-236 -53.5q-297 0 -303 234z" />
    <glyph glyph-name="uni2084" unicode="&#x2084;" 
d="M41 -193v115l385 475h176v-440h96v-150h-96v-118h-205v118h-356zM240 -43h157v201z" />
    <glyph glyph-name="uni2085" unicode="&#x2085;" 
d="M80 -123h199q5 -33 30.5 -55.5t69.5 -22.5t73 28.5t29 80.5q0 51 -29 77.5t-73 26.5q-70 0 -96 -59l-189 18l29 422h518v-153h-350l-12 -150h6q45 49 147 49q106 0 176 -54.5t70 -172.5q0 -113 -83 -176.5t-210 -63.5q-146 0 -220.5 55.5t-84.5 149.5z" />
    <glyph glyph-name="uni2086" unicode="&#x2086;" 
d="M668 201h-193q-2 33 -25 54t-59 21q-52 0 -83 -41t-38 -155q22 26 68.5 42.5t99.5 16.5q106 0 176 -54.5t70 -172.5q0 -113 -83 -176.5t-210 -63.5q-325 0 -325 353q0 201 88.5 293t240.5 92q131 0 199.5 -56t73.5 -153zM385 12q-44 0 -73 -26t-29 -78t29 -80.5t73 -28.5
q45 0 73.5 28.5t28.5 80.5t-28.5 78t-73.5 26z" />
    <glyph glyph-name="uni2087" unicode="&#x2087;" 
d="M152 -311l303 534h-389v170h626v-121l-327 -583h-213z" />
    <glyph glyph-name="uni2088" unicode="&#x2088;" 
d="M57 -127q0 68 38.5 114t101.5 58v8q-53 12 -86 54t-33 102q0 91 80.5 146t216.5 55t217.5 -55t81.5 -146q0 -60 -33 -102t-86 -54v-8q62 -12 100.5 -58.5t38.5 -113.5q0 -97 -83 -149t-236 -52q-152 0 -235 52t-83 149zM260 -104q0 -45 31.5 -70t83.5 -25q53 0 85 25
t32 70q0 44 -32 68t-85 24q-52 0 -83.5 -24.5t-31.5 -67.5zM272 195q0 -39 27.5 -61.5t75.5 -22.5q49 0 75.5 22t26.5 62q0 41 -26.5 63.5t-75.5 22.5q-48 0 -75.5 -22.5t-27.5 -63.5z" />
    <glyph glyph-name="uni2089" unicode="&#x2089;" 
d="M74 -119h194q1 -32 28 -54t64 -22q48 0 75.5 41.5t33.5 153.5q-13 -26 -58.5 -41.5t-99.5 -15.5q-52 0 -95.5 11t-80 35t-57.5 67.5t-21 101.5q0 115 83.5 183.5t211.5 68.5q324 0 324 -353q0 -385 -320 -385q-132 0 -204 56t-78 153zM358 70q44 0 73.5 26.5t29.5 77.5
q0 52 -29.5 80.5t-73.5 28.5q-45 0 -73.5 -28.5t-28.5 -80.5t28.5 -78t73.5 -26z" />
    <glyph glyph-name="parenleft.inferior" unicode="&#x208d;" horiz-adv-x="491" 
d="M287 -459q-66 79 -115 215.5t-49 284.5t49 284.5t115 215.5h188q-61 -75 -112.5 -215t-51.5 -285t51.5 -285t112.5 -215h-188z" />
    <glyph glyph-name="parenright.inferior" unicode="&#x208e;" horiz-adv-x="491" 
d="M16 -459q61 75 112.5 215t51.5 285t-51.5 285t-112.5 215h189q66 -79 115 -215.5t49 -284.5t-49 -284.5t-115 -215.5h-189z" />
    <glyph glyph-name="Euro" unicode="&#x20ac;" horiz-adv-x="1163" 
d="M18 784l39 138h105q39 237 167 374.5t347 137.5q384 0 459 -400h-248q-27 96 -74.5 141.5t-130.5 45.5q-202 0 -252 -299h375l-39 -138h-350v-149h342l-41 -139h-287q47 -308 252 -308q75 0 122 39.5t75 124.5h249q-85 -377 -452 -377q-221 0 -350 140t-166 381h-180
l40 139h127q-2 23 -2 70q0 52 2 79h-129z" />
    <glyph glyph-name="afii61289" unicode="&#x2113;" horiz-adv-x="843" 
d="M264 53q-78 83 -78 285v151l-4 3l-121 -84l-24 49q78 63 149 125v278q0 209 37 321.5t113 182.5q76 68 174 68q96 0 151.5 -70.5t55.5 -192.5q0 -65 -17 -127.5t-50.5 -117.5t-66.5 -99t-82 -90t-79.5 -72t-75.5 -61v-223q0 -283 186 -283q69 0 127 41t115 123l45 -33
q-50 -119 -139 -185.5t-207 -66.5q-134 0 -209 78zM350 700q108 93 178 213.5t70 257.5q0 92 -29.5 139.5t-83.5 47.5q-69 0 -104 -86.5t-35 -280.5v-289z" />
    <glyph glyph-name="afii61352" unicode="&#x2116;" horiz-adv-x="2486" 
d="M150 0v1409h253l701 -944h8l-8 944h276v-1409h-250l-704 942h-8l8 -942h-276zM1628 1057q0 169 103 269.5t276 100.5q176 0 278.5 -100t102.5 -270q0 -169 -104 -269t-277 -100q-176 0 -277.5 99.5t-101.5 269.5zM1630 0v154h754v-154h-754zM1630 356v154h754v-154h-754z
M1843 1057q0 -94 44 -150.5t120 -56.5t120 56.5t44 150.5q0 96 -44 151.5t-120 55.5t-120 -56.5t-44 -150.5z" />
    <glyph glyph-name="trademark" unicode="&#x2122;" horiz-adv-x="1695" 
d="M750 705v704h264l168 -455h8l166 455h266v-704h-190l8 477h-8l-175 -477h-145l-174 477h-8l8 -477h-188zM8 1249v160h654v-160h-230v-544h-190v544h-234z" />
    <glyph glyph-name="Omega" unicode="&#x2126;" horiz-adv-x="1425" 
d="M821 0v477q108 29 186 128.5t78 246.5q0 171 -103.5 274t-268.5 103t-269 -103t-104 -274q0 -147 78.5 -246.5t185.5 -128.5v-477h-495v197h278v161q-143 68 -227 198.5t-84 299.5q0 121 45.5 227t127.5 183.5t202 122.5t262 45t262 -45t202 -122.5t127.5 -183.5
t45.5 -227q0 -169 -84.5 -299.5t-227.5 -198.5v-161h279v-197h-496z" />
    <glyph glyph-name="estimated" unicode="&#x212e;" horiz-adv-x="1740" 
d="M377 231q95 -99 223 -155t274 -56q155 0 291 63t232 177h119q-112 -131 -282 -208t-362 -77q-166 0 -316 57.5t-259 155t-173.5 232.5t-64.5 285q0 198 109 366t296 265.5t408 97.5q219 0 406 -97.5t296 -265.5t109 -366v-21h-1312q-15 0 -15 -8v-397q0 -23 21 -48z
M371 727h1007q8 0 8 12v396q0 29 -20 49q-95 97 -223 151t-269 54q-144 0 -272 -56.5t-223 -154.5q-23 -23 -23 -54v-385q0 -12 15 -12z" />
    <glyph glyph-name="uni2153" unicode="&#x2153;" horiz-adv-x="1660" 
d="M981 217h188q0 -49 32 -76.5t85 -27.5q52 0 83.5 24.5t31.5 69.5q0 44 -32.5 68t-90.5 24h-43v123h43q54 0 82.5 22t28.5 62q0 41 -27 63.5t-76 22.5t-75.5 -25.5t-26.5 -70.5h-187q3 108 82 166.5t211 58.5q133 0 213 -55t80 -146q0 -60 -33 -101.5t-86 -53.5v-7
q63 -14 101.5 -57.5t38.5 -107.5q0 -102 -83 -155.5t-235 -53.5q-299 0 -305 233zM436 -25q341 703 713 1459h164l-713 -1459h-164zM160 1092l-82 137l305 180h125v-547h188v-157h-594v157h197v307z" />
    <glyph glyph-name="uni2154" unicode="&#x2154;" horiz-adv-x="1660" 
d="M57 705q0 80 19.5 141.5t56.5 103t77 68.5t95 51l35 18q74 32 108.5 57.5t34.5 55.5q0 80 -104 80q-52 0 -83 -28.5t-34 -84.5h-196q3 87 48 147t111.5 85.5t149.5 25.5q141 0 225 -59t84 -160q0 -46 -14.5 -81.5t-45.5 -63.5t-66 -48t-89 -44l-37 -17q-129 -57 -129 -90
h377v-157h-623zM981 217h188q0 -49 32 -76.5t85 -27.5q52 0 83.5 24.5t31.5 69.5q0 44 -32.5 68t-90.5 24h-43v123h43q54 0 82.5 22t28.5 62q0 41 -27 63.5t-76 22.5t-75.5 -25.5t-26.5 -70.5h-187q3 108 82 166.5t211 58.5q133 0 213 -55t80 -146q0 -60 -33 -101.5
t-86 -53.5v-7q63 -14 101.5 -57.5t38.5 -107.5q0 -102 -83 -155.5t-235 -53.5q-299 0 -305 233zM432 -25q341 703 713 1459h166l-713 -1459h-166z" />
    <glyph glyph-name="uni2155" unicode="&#x2155;" horiz-adv-x="1660" 
d="M989 188h201q5 -32 30 -54.5t68 -22.5q44 0 73.5 28t29.5 80q0 51 -29.5 78t-73.5 27q-70 0 -96 -60l-186 19l28 422h516v-154h-350l-12 -150h6q46 50 147 50q105 0 175.5 -55t70.5 -173q0 -113 -83 -176t-210 -63q-145 0 -220 55.5t-85 148.5zM420 -25l713 1459h165
l-712 -1459h-166zM160 1092l-82 137l305 180h125v-547h188v-157h-594v157h197v307z" />
    <glyph glyph-name="uni2156" unicode="&#x2156;" horiz-adv-x="1660" 
d="M57 705q0 80 19.5 141.5t56.5 103t77 68.5t95 51l35 18q74 32 108.5 57.5t34.5 55.5q0 80 -104 80q-52 0 -83 -28.5t-34 -84.5h-196q3 87 48 147t111.5 85.5t149.5 25.5q141 0 225 -59t84 -160q0 -46 -14.5 -81.5t-45.5 -63.5t-66 -48t-89 -44l-37 -17q-129 -57 -129 -90
h377v-157h-623zM989 188h201q5 -32 30 -54.5t68 -22.5q44 0 73.5 28t29.5 80q0 51 -29.5 78t-73.5 27q-70 0 -96 -60l-186 19l28 422h516v-154h-350l-12 -150h6q46 50 147 50q105 0 175.5 -55t70.5 -173q0 -113 -83 -176t-210 -63q-145 0 -220 55.5t-85 148.5zM416 -25
l712 1459h166l-712 -1459h-166z" />
    <glyph glyph-name="uni2157" unicode="&#x2157;" horiz-adv-x="1660" 
d="M989 188h201q5 -32 30 -54.5t68 -22.5q44 0 73.5 28t29.5 80q0 51 -29.5 78t-73.5 27q-70 0 -96 -60l-186 19l28 422h516v-154h-350l-12 -150h6q46 50 147 50q105 0 175.5 -55t70.5 -173q0 -113 -83 -176t-210 -63q-145 0 -220 55.5t-85 148.5zM72 922h188q0 -49 31 -77
t84 -28q54 0 85.5 24.5t31.5 69.5q0 44 -33 68.5t-90 24.5h-43v122h43q52 0 80 22t28 62q0 86 -102 86q-47 0 -75 -26t-28 -70h-184q3 108 82 166.5t211 58.5t212.5 -54.5t80.5 -145.5q0 -60 -33 -102t-86 -54v-6q63 -14 101 -57.5t38 -108.5q0 -102 -83 -155.5t-236 -53.5
q-297 0 -303 234zM389 -25q341 703 713 1459h164l-713 -1459h-164z" />
    <glyph glyph-name="uni2158" unicode="&#x2158;" horiz-adv-x="1660" 
d="M989 188h201q5 -32 30 -54.5t68 -22.5q44 0 73.5 28t29.5 80q0 51 -29.5 78t-73.5 27q-70 0 -96 -60l-186 19l28 422h516v-154h-350l-12 -150h6q46 50 147 50q105 0 175.5 -55t70.5 -173q0 -113 -83 -176t-210 -63q-145 0 -220 55.5t-85 148.5zM41 823v115l385 475h176
v-440h96v-150h-96v-118h-205v118h-356zM395 -25q372 757 713 1459h166l-713 -1459h-166zM240 973h157v201z" />
    <glyph glyph-name="uni2159" unicode="&#x2159;" horiz-adv-x="1660" 
d="M1579 512h-195q-2 33 -23.5 54.5t-57.5 21.5q-52 0 -84 -42t-37 -157h6q20 28 64 45t98 17q104 0 174.5 -55t70.5 -173q0 -113 -83.5 -176t-211.5 -63q-323 0 -323 352q0 201 88.5 293t239.5 92q131 0 199.5 -56t74.5 -153zM440 -25q341 703 713 1459h166l-713 -1459
h-166zM160 1092l-82 137l305 180h125v-547h188v-157h-594v157h197v307zM1294 324q-43 0 -72.5 -26.5t-29.5 -78.5t29 -80t73 -28q45 0 74 28t29 80t-29 78.5t-74 26.5z" />
    <glyph glyph-name="uni215A" unicode="&#x215a;" horiz-adv-x="1660" 
d="M1579 512h-195q-2 33 -23.5 54.5t-57.5 21.5q-52 0 -84 -42t-37 -157h6q20 28 64 45t98 17q104 0 174.5 -55t70.5 -173q0 -113 -83.5 -176t-211.5 -63q-323 0 -323 352q0 201 88.5 293t239.5 92q131 0 199.5 -56t74.5 -153zM80 893h199q5 -33 30.5 -55.5t69.5 -22.5
t73 28.5t29 80.5q0 51 -29 77.5t-73 26.5q-70 0 -96 -59l-189 18l29 422h518v-154h-350l-12 -149h6q45 49 147 49q106 0 176 -54.5t70 -172.5q0 -113 -83 -176.5t-210 -63.5q-146 0 -220.5 55.5t-84.5 149.5zM391 -25l713 1459h166l-713 -1459h-166zM1294 324
q-43 0 -72.5 -26.5t-29.5 -78.5t29 -80t73 -28q45 0 74 28t29 80t-29 78.5t-74 26.5z" />
    <glyph glyph-name="uni215B" unicode="&#x215b;" horiz-adv-x="1660" 
d="M967 184q0 67 38.5 113.5t100.5 58.5v9q-53 12 -86 53.5t-33 101.5q0 91 81.5 146t217.5 55t216.5 -55t80.5 -146q0 -60 -33 -101.5t-86 -53.5v-9q63 -12 101.5 -58t38.5 -114q0 -97 -82.5 -148.5t-235.5 -51.5t-236 52t-83 148zM432 -25q341 703 713 1459h166
l-713 -1459h-166zM160 1092l-82 137l305 180h125v-547h188v-157h-594v157h197v307zM1169 207q0 -45 31.5 -69.5t85.5 -24.5q52 0 83.5 24.5t31.5 69.5q0 43 -31.5 67.5t-83.5 24.5q-53 0 -85 -24t-32 -68zM1184 506q0 -40 26.5 -62t75.5 -22q48 0 75.5 22.5t27.5 61.5
q0 41 -27.5 63.5t-75.5 22.5q-49 0 -75.5 -22.5t-26.5 -63.5z" />
    <glyph glyph-name="uni215C" unicode="&#x215c;" horiz-adv-x="1660" 
d="M967 184q0 67 38.5 113.5t100.5 58.5v9q-53 12 -86 53.5t-33 101.5q0 91 81.5 146t217.5 55t216.5 -55t80.5 -146q0 -60 -33 -101.5t-86 -53.5v-9q63 -12 101.5 -58t38.5 -114q0 -97 -82.5 -148.5t-235.5 -51.5t-236 52t-83 148zM72 922h188q0 -49 31 -77t84 -28
q54 0 85.5 24.5t31.5 69.5q0 44 -33 68.5t-90 24.5h-43v122h43q52 0 80 22t28 62q0 86 -102 86q-47 0 -75 -26t-28 -70h-184q3 108 82 166.5t211 58.5t212.5 -54.5t80.5 -145.5q0 -60 -33 -102t-86 -54v-6q63 -14 101 -57.5t38 -108.5q0 -102 -83 -155.5t-236 -53.5
q-297 0 -303 234zM395 -25l713 1459h166l-713 -1459h-166zM1169 207q0 -45 31.5 -69.5t85.5 -24.5q52 0 83.5 24.5t31.5 69.5q0 43 -31.5 67.5t-83.5 24.5q-53 0 -85 -24t-32 -68zM1184 506q0 -40 26.5 -62t75.5 -22q48 0 75.5 22.5t27.5 61.5q0 41 -27.5 63.5t-75.5 22.5
q-49 0 -75.5 -22.5t-26.5 -63.5z" />
    <glyph glyph-name="uni215D" unicode="&#x215d;" horiz-adv-x="1660" 
d="M967 184q0 67 38.5 113.5t100.5 58.5v9q-53 12 -86 53.5t-33 101.5q0 91 81.5 146t217.5 55t216.5 -55t80.5 -146q0 -60 -33 -101.5t-86 -53.5v-9q63 -12 101.5 -58t38.5 -114q0 -97 -82.5 -148.5t-235.5 -51.5t-236 52t-83 148zM80 893h199q5 -33 30.5 -55.5t69.5 -22.5
t73 28.5t29 80.5q0 51 -29 77.5t-73 26.5q-70 0 -96 -59l-189 18l29 422h518v-154h-350l-12 -149h6q45 49 147 49q106 0 176 -54.5t70 -172.5q0 -113 -83 -176.5t-210 -63.5q-146 0 -220.5 55.5t-84.5 149.5zM391 -25l713 1459h166l-713 -1459h-166zM1169 207
q0 -45 31.5 -69.5t85.5 -24.5q52 0 83.5 24.5t31.5 69.5q0 43 -31.5 67.5t-83.5 24.5q-53 0 -85 -24t-32 -68zM1184 506q0 -40 26.5 -62t75.5 -22q48 0 75.5 22.5t27.5 61.5q0 41 -27.5 63.5t-75.5 22.5q-49 0 -75.5 -22.5t-26.5 -63.5z" />
    <glyph glyph-name="uni215E" unicode="&#x215e;" horiz-adv-x="1660" 
d="M967 184q0 67 38.5 113.5t100.5 58.5v9q-53 12 -86 53.5t-33 101.5q0 91 81.5 146t217.5 55t216.5 -55t80.5 -146q0 -60 -33 -101.5t-86 -53.5v-9q63 -12 101.5 -58t38.5 -114q0 -97 -82.5 -148.5t-235.5 -51.5t-236 52t-83 148zM334 -25l713 1459h165l-712 -1459h-166z
M152 705l303 534h-389v170h626v-121l-327 -583h-213zM1169 207q0 -45 31.5 -69.5t85.5 -24.5q52 0 83.5 24.5t31.5 69.5q0 43 -31.5 67.5t-83.5 24.5q-53 0 -85 -24t-32 -68zM1184 506q0 -40 26.5 -62t75.5 -22q48 0 75.5 22.5t27.5 61.5q0 41 -27.5 63.5t-75.5 22.5
q-49 0 -75.5 -22.5t-26.5 -63.5z" />
    <glyph glyph-name="uni2190" unicode="&#x2190;" horiz-adv-x="1351" 
d="M721 119l-137 -129l-527 526l527 526l137 -129l-305 -303q131 8 336 8h542v-204h-542q-205 0 -336 8z" />
    <glyph glyph-name="uni2191" unicode="&#x2191;" horiz-adv-x="1351" 
d="M287 471l-129 137l526 527l526 -527l-129 -137l-301 305q8 -177 8 -336v-542h-206v542q0 203 8 336z" />
    <glyph glyph-name="uni2192" unicode="&#x2192;" horiz-adv-x="1351" 
d="M768 -10l-137 129l303 303q-131 -8 -334 -8h-543v204h543q203 0 334 -8l-303 303l137 129l526 -526z" />
    <glyph glyph-name="uni2193" unicode="&#x2193;" horiz-adv-x="1351" 
d="M1073 561l129 -137l-526 -526l-526 526l129 137l303 -305q-9 147 -9 336v543h205v-543q0 -205 -8 -336z" />
    <glyph glyph-name="uni2196" unicode="&#x2196;" horiz-adv-x="1351" 
d="M188 977h746v-186h-420q59 -53 238 -232l385 -383l-144 -147l-383 385q-124 119 -235 245v-428h-187v746z" />
    <glyph glyph-name="uni2197" unicode="&#x2197;" horiz-adv-x="1351" 
d="M391 791v186h746v-746h-187v428q-111 -126 -235 -245l-383 -385l-144 147l385 383q5 5 54 55.5t93.5 94t88.5 82.5h-418z" />
    <glyph glyph-name="uni2198" unicode="&#x2198;" horiz-adv-x="1351" 
d="M391 29v186h418q-91 80 -236 231l-385 383l144 148l383 -385q119 -114 235 -246v428h187v-745h-746z" />
    <glyph glyph-name="uni2199" unicode="&#x2199;" horiz-adv-x="1351" 
d="M514 215h420v-186h-746v745h187v-428q116 132 235 246l383 385l144 -148l-385 -383q-134 -140 -238 -231z" />
    <glyph glyph-name="partialdiff" unicode="&#x2202;" horiz-adv-x="1163" 
d="M33 397q0 98 27 181.5t73.5 142t108.5 100t132 61t144 19.5q104 0 188 -39t119 -104q2 27 2 73q0 209 -64 303.5t-165 94.5q-91 0 -143.5 -47t-71.5 -125h-252q37 174 158 275.5t325 101.5q78 0 146.5 -20.5t129.5 -67t104 -115.5t68 -172t25 -232q0 -137 -17.5 -252.5
t-49 -202t-76.5 -154.5t-97.5 -113.5t-114.5 -75t-125 -42t-132 -12.5q-120 0 -219 48t-161 146t-62 228zM506 180q107 0 183.5 79t76.5 208q0 107 -56.5 168t-156.5 61q-109 0 -184.5 -79t-75.5 -216q0 -104 59.5 -162.5t153.5 -58.5z" />
    <glyph glyph-name="Delta" unicode="&#x2206;" horiz-adv-x="1353" 
d="M27 0l508 1409h284l506 -1409h-1298zM674 1124h-8l-312 -911h631z" />
    <glyph glyph-name="product" unicode="&#x220f;" horiz-adv-x="1517" 
d="M170 0v1409h1178v-1409h-265v1196h-651v-1196h-262z" />
    <glyph glyph-name="summation" unicode="&#x2211;" horiz-adv-x="1126" 
d="M31 0v109l461 583l-445 594v123h1006v-209h-643l374 -491l-393 -500h680v-209h-1040z" />
    <glyph glyph-name="minus" unicode="&#x2212;" horiz-adv-x="1163" 
d="M119 420v205h925v-205h-925z" />
    <glyph glyph-name="uni2215" unicode="&#x2215;" horiz-adv-x="159" 
d="M-360 -25q308 626 712 1459h166l-713 -1459h-165z" />
    <glyph glyph-name="uni2219" unicode="&#x2219;" horiz-adv-x="577" 
d="M141 379v278h297v-278h-297z" />
    <glyph glyph-name="radical" unicode="&#x221a;" horiz-adv-x="1245" 
d="M53 573v205l344 109l226 -600h8l381 1122h252l-490 -1409h-289l-249 633z" />
    <glyph glyph-name="infinity" unicode="&#x221e;" horiz-adv-x="1449" 
d="M393 180q-152 0 -246 94.5t-94 245.5t94 245.5t246 94.5q97 0 184 -55.5t152 -147.5q151 203 328 203q152 0 246 -94.5t94 -245.5t-94 -245.5t-246 -94.5q-98 0 -184 55t-152 146q-153 -201 -328 -201zM840 520q111 -158 221 -158q66 0 106.5 46t40.5 112t-40.5 112
t-106.5 46q-107 0 -221 -158zM389 362q110 0 221 158q-114 158 -221 158q-66 0 -106.5 -46t-40.5 -112t40.5 -112t106.5 -46z" />
    <glyph glyph-name="integral" unicode="&#x222b;" horiz-adv-x="745" 
d="M47 -172h68q82 0 121 40t42.5 112t-2.5 172l-63 1024q-5 92 -0.5 171t29.5 142.5t68 108.5t115 69.5t171 24.5h96v-205h-69q-82 0 -121.5 -40t-43 -112t2.5 -172l65 -1024q6 -95 -0.5 -169.5t-30.5 -141.5t-67.5 -110.5t-115 -69t-169.5 -25.5h-96v205z" />
    <glyph glyph-name="approxequal" unicode="&#x2248;" horiz-adv-x="1163" 
d="M100 573q0 91 23 161.5t63 112t89.5 62.5t105.5 21q63 0 124 -22.5t101 -49.5t86 -49.5t82 -22.5q100 0 100 152h193q0 -177 -80 -266.5t-196 -89.5q-63 0 -125 23.5t-103 51t-88.5 51t-83.5 23.5q-98 0 -98 -158h-193zM100 106q0 91 23 161.5t63 112t89.5 62.5t105.5 21
q63 0 124 -22.5t101 -49.5t86 -49.5t82 -22.5q100 0 100 152h193q0 -177 -80 -266.5t-196 -89.5q-63 0 -125 23t-103 50.5t-88.5 50.5t-83.5 23q-98 0 -98 -156h-193z" />
    <glyph glyph-name="notequal" unicode="&#x2260;" horiz-adv-x="1163" 
d="M115 641v205h534l144 274l153 -82l-100 -192h203v-205h-312l-125 -242h437v-204h-543l-144 -275l-153 82l100 193h-194v204h301l125 242h-426z" />
    <glyph glyph-name="lessequal" unicode="&#x2264;" horiz-adv-x="1163" 
d="M147 670v213l869 346v-225l-615 -226l615 -229v-227zM147 0v205h869v-205h-869z" />
    <glyph glyph-name="greaterequal" unicode="&#x2265;" horiz-adv-x="1163" 
d="M1016 879v-211l-869 -346v223l613 223l-613 231v230zM147 0v205h869v-205h-869z" />
    <glyph glyph-name="uni25A0" unicode="&#x25a0;" horiz-adv-x="1409" 
d="M0 0v1409h1409v-1409h-1409z" />
    <glyph glyph-name="uni25A1" unicode="&#x25a1;" horiz-adv-x="1409" 
d="M0 0v1409h1409v-1409h-1409zM227 213h955v983h-955v-983z" />
    <glyph glyph-name="uni25B6" unicode="&#x25b6;" horiz-adv-x="1028" 
d="M90 -25v1049l914 -524z" />
    <glyph glyph-name="uni25B7" unicode="&#x25b7;" horiz-adv-x="1028" 
d="M90 -25v1049l914 -524zM279 289l376 211l-376 211v-422z" />
    <glyph glyph-name="uni25C0" unicode="&#x25c0;" horiz-adv-x="1028" 
d="M25 500l913 524v-1049z" />
    <glyph glyph-name="uni25C1" unicode="&#x25c1;" horiz-adv-x="1028" 
d="M25 500l913 524v-1049zM373 500l377 -211v422z" />
    <glyph glyph-name="lozenge" unicode="&#x25ca;" horiz-adv-x="1355" 
d="M559 0l-508 705l508 704h240l506 -704l-506 -705h-240zM682 1190h-12l-344 -485l350 -490h8l346 483z" />
    <glyph glyph-name="uni25CB" unicode="&#x25cb;" horiz-adv-x="1130" 
d="M41 500q0 146 68 266t188.5 189t267.5 69q225 0 375 -149t150 -375q0 -146 -68.5 -266t-189 -189.5t-267.5 -69.5q-148 0 -267.5 67.5t-188 188t-68.5 269.5zM266 500q0 -139 85.5 -231.5t213.5 -92.5q132 0 215.5 91.5t83.5 232.5q0 139 -85.5 231t-213.5 92
q-132 0 -215.5 -91t-83.5 -232z" />
    <glyph glyph-name="uni25CF" unicode="&#x25cf;" horiz-adv-x="1130" 
d="M41 500q0 146 68 266t188.5 189t267.5 69q225 0 375 -149t150 -375q0 -146 -68.5 -266t-189 -189.5t-267.5 -69.5q-148 0 -267.5 67.5t-188 188t-68.5 269.5z" />
    <glyph glyph-name="uni25FB" unicode="&#x25fb;" horiz-adv-x="999" 
d="M0 0v999h999v-999h-999zM213 201h573v598h-573v-598z" />
    <glyph glyph-name="uni25FC" unicode="&#x25fc;" horiz-adv-x="999" 
d="M0 0v999h999v-999h-999z" />
    <glyph glyph-name="uni2605" unicode="&#x2605;" horiz-adv-x="1118" 
d="M217 27l139 374l-331 222l10 32l399 -18l109 387h32l107 -387l401 18l11 -32l-334 -222l141 -374l-29 -21l-313 248l-313 -248z" />
    <glyph glyph-name="dotlessi.sc" unicode="&#xe08e;" horiz-adv-x="593" 
d="M166 0v1065h262v-1065h-262z" />
    <glyph glyph-name="g.superior" unicode="&#xe0a3;" horiz-adv-x="903" 
d="M86 932h199q6 -94 145 -94q95 0 136.5 55.5t41.5 179.5v47h-8q-57 -121 -233 -121q-128 0 -217 95t-89 268q0 90 27 163t72 119t102 70.5t119 24.5q162 0 219 -123h8v104h201v-645q0 -213 -96.5 -301t-286.5 -88q-320 0 -340 246zM279 1362q0 -92 43 -146.5t116 -54.5
t117.5 56.5t44.5 150.5v18q-4 86 -48.5 137.5t-113.5 51.5q-74 0 -116.5 -57.5t-42.5 -155.5z" />
    <glyph glyph-name="germandbls.sc" unicode="&#xe0a4;" horiz-adv-x="2269" 
d="M82 307h260q0 -70 58 -108.5t159 -38.5q102 0 159.5 35t57.5 104q0 39 -29 64.5t-76.5 36.5t-108.5 22t-124 19.5t-124 30t-108.5 52.5t-76.5 88.5t-29 135.5q0 152 123.5 247t343.5 95q211 0 327 -88t116 -236h-250q0 65 -54 102t-139 37q-92 0 -146 -32.5t-54 -98.5
q0 -45 37.5 -72.5t97.5 -40t132.5 -22.5t145 -27.5t132.5 -47.5t97.5 -90.5t37.5 -147.5q0 -163 -126.5 -257t-361.5 -94q-229 0 -353 88t-124 244zM1217 307h260q0 -70 58 -108.5t159 -38.5q102 0 159.5 35t57.5 104q0 39 -29 64.5t-76.5 36.5t-108.5 22t-124 19.5t-124 30
t-108.5 52.5t-76.5 88.5t-29 135.5q0 152 123.5 247t343.5 95q211 0 326.5 -88t115.5 -236h-250q0 66 -53.5 102.5t-138.5 36.5q-92 0 -146.5 -32.5t-54.5 -98.5q0 -45 37.5 -72.5t97.5 -40t132.5 -22.5t145 -27.5t132.5 -47.5t97.5 -90.5t37.5 -147.5q0 -163 -126 -257
t-361 -94q-229 0 -353 88t-124 244z" />
    <glyph glyph-name="onesuperior" unicode="&#xe105;" 
d="M160 1403l-82 137l305 180h125v-546h188v-158h-594v158h197v307z" />
    <glyph glyph-name="twosuperior" unicode="&#xe107;" 
d="M57 1016q0 80 19.5 141.5t56.5 103t77 68.5t95 51l35 19q75 32 109 57t34 55q0 80 -104 80q-52 0 -83 -28t-34 -84h-196q3 87 48 147t111.5 85.5t149.5 25.5q141 0 225 -59t84 -160q0 -87 -52.5 -138t-162.5 -100l-37 -16q-129 -57 -129 -90h377v-158h-623z" />
    <glyph glyph-name="threesuperior" unicode="&#xe108;" 
d="M72 1233h188q0 -49 31 -77t84 -28t85 25t32 70q0 44 -32.5 68t-90.5 24h-43v123h43q52 0 80 22t28 62q0 86 -102 86q-47 0 -75 -26.5t-28 -70.5h-184q3 108 82 167t211 59t212.5 -55t80.5 -146q0 -60 -33 -102t-86 -54v-6q63 -14 101 -57.5t38 -108.5q0 -102 -83 -155.5
t-236 -53.5q-297 0 -303 234z" />
    <glyph glyph-name="cent.denominator" unicode="&#xf629;" 
d="M66 348q0 106 63 173.5t178 86.5v113h154v-113q102 -16 159 -73t64 -127h-201q-5 29 -30.5 50t-65.5 21q-55 0 -85 -33.5t-30 -97.5t30 -97.5t85 -33.5q40 0 65.5 22t30.5 52h201q-7 -72 -64 -130.5t-159 -74.5v-102h-154v104q-115 19 -178 86.5t-63 173.5z" />
    <glyph glyph-name="dollar.denominator" unicode="&#xf62a;" 
d="M57 205h189q3 -44 38.5 -69t90.5 -25q52 0 84.5 20t32.5 57q0 27 -23.5 44t-60.5 26t-82 16.5t-90 21t-82 35t-60.5 62.5t-23.5 99q0 86 60 146t169 77v112h154v-112q98 -17 156.5 -72t64.5 -131h-195q-4 36 -33 57t-71 21q-48 0 -78.5 -18t-30.5 -56q0 -28 23.5 -45.5
t61 -27t82.5 -17t90 -21t82.5 -34.5t61 -61t23.5 -97q0 -97 -60 -154.5t-177 -70.5v-127h-154v127q-115 13 -177 70t-65 147z" />
    <glyph glyph-name="hyphen.denominator" unicode="&#xf62b;" horiz-adv-x="587" 
d="M70 274v164h448v-164h-448z" />
    <glyph glyph-name="parenleft.denominator" unicode="&#xf62c;" horiz-adv-x="491" 
d="M287 -147q-66 79 -115 215t-49 284t49 284.5t115 215.5h188q-61 -75 -112.5 -215t-51.5 -285t51.5 -284t112.5 -215h-188z" />
    <glyph glyph-name="parenright.denominator" unicode="&#xf62d;" horiz-adv-x="491" 
d="M16 -147q61 76 112.5 215t51.5 284t-51.5 285t-112.5 215h189q66 -79 115 -215.5t49 -284.5t-49 -284t-115 -215h-189z" />
    <glyph glyph-name="cent.numerator" unicode="&#xf62e;" 
d="M66 1053q0 106 63 173.5t178 86.5v112h154v-112q102 -16 159 -73t64 -128h-201q-5 29 -30.5 50.5t-65.5 21.5q-55 0 -85 -33.5t-30 -97.5t30 -97.5t85 -33.5q40 0 65.5 21.5t30.5 51.5h201q-7 -72 -64 -130t-159 -74v-103h-154v105q-115 19 -178 86.5t-63 173.5z" />
    <glyph glyph-name="dollar.numerator" unicode="&#xf62f;" 
d="M57 909h189q3 -44 38.5 -69t90.5 -25q51 0 84 20.5t33 57.5q0 31 -31.5 49.5t-78 25.5t-101.5 20.5t-101.5 32t-78 63.5t-31.5 112q0 86 60 146t169 77v113h154v-113q98 -17 156.5 -71.5t64.5 -130.5h-195q-4 36 -33 56.5t-71 20.5q-48 0 -78.5 -18t-30.5 -55
q0 -28 23.5 -45.5t61 -27t82.5 -17t90 -21t82.5 -34.5t61 -61t23.5 -97q0 -97 -60 -155t-177 -71v-127h-154v127q-115 13 -177 70t-65 147z" />
    <glyph glyph-name="hyphen.numerator" unicode="&#xf630;" horiz-adv-x="587" 
d="M70 979v164h448v-164h-448z" />
    <glyph glyph-name="parenleft.numerator" unicode="&#xf631;" horiz-adv-x="491" 
d="M287 557q-66 79 -115 215.5t-49 284.5t49 284t115 215h188q-61 -76 -112.5 -215t-51.5 -284t51.5 -285t112.5 -215h-188z" />
    <glyph glyph-name="parenright.numerator" unicode="&#xf632;" horiz-adv-x="491" 
d="M16 557q61 75 112.5 215t51.5 285t-51.5 284t-112.5 215h189q66 -79 115 -215t49 -284t-49 -284.5t-115 -215.5h-189z" />
    <glyph glyph-name="h.superior" unicode="&#xf637;" horiz-adv-x="874" 
d="M94 1016v1057h211v-226q0 -123 -8 -229h6q59 121 221 121q114 0 188 -68t74 -211v-444h-208v395q0 160 -127 160q-64 0 -105 -45.5t-41 -130.5v-379h-211z" />
    <glyph glyph-name="zero.denominator" unicode="&#xf655;" 
d="M375 -16q-161 0 -245.5 102t-84.5 266t84.5 266.5t245.5 102.5q162 0 246 -102t84 -267t-84 -266.5t-246 -101.5zM375 141q64 0 96.5 55t32.5 156q0 211 -129 211q-127 0 -127 -211q0 -101 32.5 -156t94.5 -55z" />
    <glyph glyph-name="one.denominator" unicode="&#xf656;" 
d="M160 387l-82 137l305 181h125v-547h188v-158h-594v158h197v307z" />
    <glyph glyph-name="two.denominator" unicode="&#xf657;" 
d="M57 0q0 80 19.5 141.5t56.5 103.5t77 69t95 51l35 18q74 32 108.5 57.5t34.5 55.5q0 79 -104 79q-52 0 -83 -28t-34 -84h-196q3 87 48 147t111.5 85.5t149.5 25.5q141 0 225 -59t84 -160q0 -87 -52.5 -138t-162.5 -100l-37 -16q-129 -57 -129 -90h377v-158h-623z" />
    <glyph glyph-name="three.denominator" unicode="&#xf658;" 
d="M72 217h188q0 -49 31 -76.5t84 -27.5q54 0 85.5 24.5t31.5 69.5q0 44 -32.5 68t-90.5 24h-43v123h43q52 0 80 22t28 62q0 86 -102 86q-47 0 -75 -26t-28 -70h-184q3 108 82 166.5t211 58.5t212.5 -55t80.5 -146q0 -60 -33 -101.5t-86 -53.5v-7q63 -14 101 -57.5
t38 -107.5q0 -102 -83 -155.5t-236 -53.5q-297 0 -303 233z" />
    <glyph glyph-name="four.denominator" unicode="&#xf659;" 
d="M41 119v114l385 476h176v-441h96v-149h-96v-119h-205v119h-356zM240 268h157v201z" />
    <glyph glyph-name="five.denominator" unicode="&#xf65a;" 
d="M80 188h199q5 -32 30.5 -54.5t69.5 -22.5t73 28t29 80q0 51 -29 78t-73 27q-70 0 -96 -60l-189 19l29 422h518v-154h-350l-12 -150h6q46 50 147 50q105 0 175.5 -55t70.5 -173q0 -113 -83 -176t-210 -63q-146 0 -220.5 55t-84.5 149z" />
    <glyph glyph-name="six.denominator" unicode="&#xf65b;" 
d="M668 512h-193q-2 33 -25 54.5t-59 21.5q-24 0 -42.5 -8t-36 -28t-28 -60.5t-14.5 -100.5q22 26 69 43t99 17q105 0 175.5 -55t70.5 -173q0 -113 -83 -176t-210 -63q-325 0 -325 352q0 201 88.5 293t240.5 92q131 0 199.5 -56t73.5 -153zM385 324q-43 0 -72.5 -26.5
t-29.5 -78.5t29 -80t73 -28q45 0 73.5 28t28.5 80t-28.5 78.5t-73.5 26.5z" />
    <glyph glyph-name="seven.denominator" unicode="&#xf65c;" 
d="M152 0l303 535h-389v170h626v-121l-327 -584h-213z" />
    <glyph glyph-name="eight.denominator" unicode="&#xf65d;" 
d="M57 184q0 68 38.5 114t101.5 58v9q-53 12 -86 53.5t-33 101.5q0 91 80.5 146t216.5 55t217.5 -55t81.5 -146q0 -60 -33 -101.5t-86 -53.5v-9q62 -12 100.5 -58.5t38.5 -113.5q0 -96 -83 -148t-236 -52t-235.5 51.5t-82.5 148.5zM260 207q0 -45 31.5 -69.5t83.5 -24.5
q54 0 85.5 24.5t31.5 69.5q0 44 -32 68t-85 24q-52 0 -83.5 -24.5t-31.5 -67.5zM272 506q0 -39 27.5 -61.5t75.5 -22.5q49 0 75.5 22t26.5 62q0 41 -26.5 63.5t-75.5 22.5q-48 0 -75.5 -22.5t-27.5 -63.5z" />
    <glyph glyph-name="nine.denominator" unicode="&#xf65e;" 
d="M74 193h194q1 -32 28 -54t64 -22q48 0 75.5 41.5t33.5 152.5q-13 -26 -58.5 -41.5t-99.5 -15.5q-52 0 -95.5 11t-80 35t-57.5 67.5t-21 101.5q0 115 83.5 183.5t211.5 68.5q324 0 324 -352q0 -385 -320 -385q-132 0 -204 56t-78 153zM358 381q44 0 73.5 26.5t29.5 77.5
q0 52 -29.5 80.5t-73.5 28.5q-45 0 -73.5 -28.5t-28.5 -80.5t28.5 -78t73.5 -26z" />
    <glyph glyph-name="comma.denominator" unicode="&#xf65f;" horiz-adv-x="413" 
d="M106 0v211h203v-203l-65 -252h-101l50 244h-87z" />
    <glyph glyph-name="period.denominator" unicode="&#xf660;" horiz-adv-x="413" 
d="M106 0v211h203v-211h-203z" />
    <glyph glyph-name="zero.numerator" unicode="&#xf661;" 
d="M375 688q-161 0 -245.5 102.5t-84.5 266.5t84.5 266t245.5 102q162 0 246 -101.5t84 -266.5t-84 -267t-246 -102zM375 846q64 0 96.5 55t32.5 156q0 211 -129 211q-127 0 -127 -211q0 -101 32.5 -156t94.5 -55z" />
    <glyph glyph-name="one.numerator" unicode="&#xf662;" 
d="M160 1092l-82 137l305 180h125v-547h188v-157h-594v157h197v307z" />
    <glyph glyph-name="two.numerator" unicode="&#xf663;" 
d="M57 705q0 80 19.5 141.5t56.5 103t77 68.5t95 51l35 18q74 32 108.5 57.5t34.5 55.5q0 80 -104 80q-52 0 -83 -28.5t-34 -84.5h-196q3 87 48 147t111.5 85.5t149.5 25.5q141 0 225 -59t84 -160q0 -46 -14.5 -81.5t-45.5 -63.5t-66 -48t-89 -44l-37 -17q-129 -57 -129 -90
h377v-157h-623z" />
    <glyph glyph-name="three.numerator" unicode="&#xf664;" 
d="M72 922h188q0 -49 31 -77t84 -28q54 0 85.5 24.5t31.5 69.5q0 44 -33 68.5t-90 24.5h-43v122h43q52 0 80 22t28 62q0 86 -102 86q-47 0 -75 -26t-28 -70h-184q3 108 82 166.5t211 58.5t212.5 -54.5t80.5 -145.5q0 -60 -33 -102t-86 -54v-6q63 -14 101 -57.5t38 -108.5
q0 -102 -83 -155.5t-236 -53.5q-297 0 -303 234z" />
    <glyph glyph-name="four.numerator" unicode="&#xf665;" 
d="M41 823v115l385 475h176v-440h96v-150h-96v-118h-205v118h-356zM240 973h157v201z" />
    <glyph glyph-name="five.numerator" unicode="&#xf666;" 
d="M80 893h199q5 -33 30.5 -55.5t69.5 -22.5t73 28.5t29 80.5q0 51 -29 77.5t-73 26.5q-70 0 -96 -59l-189 18l29 422h518v-154h-350l-12 -149h6q45 49 147 49q106 0 176 -54.5t70 -172.5q0 -113 -83 -176.5t-210 -63.5q-146 0 -220.5 55.5t-84.5 149.5z" />
    <glyph glyph-name="six.numerator" unicode="&#xf667;" 
d="M668 1217h-193q-2 33 -25 54t-59 21q-52 0 -83 -41t-38 -155q22 26 68.5 42.5t99.5 16.5q106 0 176 -54.5t70 -172.5q0 -113 -83 -176.5t-210 -63.5q-325 0 -325 352q0 201 88.5 293t240.5 92q131 0 199.5 -55.5t73.5 -152.5zM385 1028q-44 0 -73 -26t-29 -78t29 -80.5
t73 -28.5q45 0 73.5 28.5t28.5 80.5t-28.5 78t-73.5 26z" />
    <glyph glyph-name="seven.numerator" unicode="&#xf668;" 
d="M152 705l303 534h-389v170h626v-121l-327 -583h-213z" />
    <glyph glyph-name="eight.numerator" unicode="&#xf669;" 
d="M57 889q0 68 38.5 114t101.5 58v8q-53 12 -86 54t-33 102q0 91 80.5 145.5t216.5 54.5t217.5 -54.5t81.5 -145.5q0 -60 -33 -102t-86 -54v-8q62 -12 100.5 -58.5t38.5 -113.5q0 -97 -83 -149t-236 -52q-152 0 -235 52t-83 149zM260 911q0 -45 31.5 -69.5t83.5 -24.5
q54 0 85.5 24.5t31.5 69.5q0 44 -32 68.5t-85 24.5q-52 0 -83.5 -24.5t-31.5 -68.5zM272 1210q0 -39 27.5 -61.5t75.5 -22.5q49 0 75.5 22t26.5 62q0 41 -26.5 63.5t-75.5 22.5q-48 0 -75.5 -22.5t-27.5 -63.5z" />
    <glyph glyph-name="nine.numerator" unicode="&#xf66a;" 
d="M74 897h194q1 -32 28 -54t64 -22q48 0 75.5 41.5t33.5 153.5q-13 -26 -58.5 -42t-99.5 -16q-52 0 -95.5 11.5t-80 35.5t-57.5 67.5t-21 101.5q0 114 83.5 182.5t211.5 68.5q324 0 324 -352q0 -385 -320 -385q-132 0 -204 56t-78 153zM358 1085q44 0 73.5 27t29.5 78
q0 52 -29.5 80t-73.5 28q-45 0 -73.5 -28t-28.5 -80t28.5 -78.5t73.5 -26.5z" />
    <glyph glyph-name="comma.numerator" unicode="&#xf66b;" horiz-adv-x="413" 
d="M106 705v210h203v-202l-65 -252h-101l50 244h-87z" />
    <glyph glyph-name="period.numerator" unicode="&#xf66c;" horiz-adv-x="413" 
d="M106 705v210h203v-210h-203z" />
    <glyph glyph-name="abreve.sc" unicode="&#xf66d;" horiz-adv-x="1167" 
d="M12 0l418 1065h311l414 -1065h-278l-74 211h-449l-75 -211h-267zM578 825l-152 -417h307l-147 417h-8zM584 1241q-59 0 -111 16.5t-97 51t-74.5 97t-35.5 146.5h146q12 -78 56 -119.5t116 -41.5q70 0 115 42.5t57 118.5h145q-13 -162 -102 -236.5t-215 -74.5z" />
    <glyph glyph-name="amacron.sc" unicode="&#xf66e;" horiz-adv-x="1167" 
d="M12 0l418 1065h311l414 -1065h-278l-74 211h-449l-75 -211h-267zM578 825l-152 -417h307l-147 417h-8zM274 1309v176h611v-176h-611z" />
    <glyph glyph-name="aogonek.sc" unicode="&#xf66f;" horiz-adv-x="1167" 
d="M860 -262q0 68 39 128.5t127 133.5h-149l-74 211h-449l-75 -211h-267l418 1065h311l414 -1065q-123 -129 -123 -215t105 -86h59v-150h-82q-254 0 -254 189zM578 825l-152 -417h307l-147 417h-8z" />
    <glyph glyph-name="aeacute.sc" unicode="&#xf670;" horiz-adv-x="1861" 
d="M-8 0l799 1065h944v-201h-588v-229h477v-191h-477v-243h608v-201h-870v209h-451l-149 -209h-293zM877 825l-302 -419h310v419h-8zM926 1229l204 336h279l-303 -336h-180z" />
    <glyph glyph-name="cacute.sc" unicode="&#xf671;" horiz-adv-x="1226" 
d="M78 532q0 248 155 403t416 155q205 0 342 -106.5t168 -281.5h-258q-25 77 -87 121.5t-163 44.5q-138 0 -219.5 -92t-81.5 -244q0 -151 81.5 -243t219.5 -92q189 0 250 165h258q-31 -174 -168 -280.5t-346 -106.5q-174 0 -304 74t-196.5 199.5t-66.5 283.5zM557 1229
l205 336h278l-303 -336h-180z" />
    <glyph glyph-name="ccaron.sc" unicode="&#xf672;" horiz-adv-x="1226" 
d="M78 532q0 248 155 403t416 155q205 0 342 -106.5t168 -281.5h-258q-25 77 -87 121.5t-163 44.5q-138 0 -219.5 -92t-81.5 -244q0 -151 81.5 -243t219.5 -92q189 0 250 165h258q-31 -174 -168 -280.5t-346 -106.5q-174 0 -304 74t-196.5 199.5t-66.5 283.5zM549 1229
l-262 336h217l145 -203l146 203h217l-262 -336h-201z" />
    <glyph glyph-name="ccircumflex.sc" unicode="&#xf673;" horiz-adv-x="1226" 
d="M78 532q0 248 155 403t416 155q205 0 342 -106.5t168 -281.5h-258q-25 77 -87 121.5t-163 44.5q-138 0 -219.5 -92t-81.5 -244q0 -151 81.5 -243t219.5 -92q189 0 250 165h258q-31 -174 -168 -280.5t-346 -106.5q-174 0 -304 74t-196.5 199.5t-66.5 283.5zM287 1229
l262 336h201l262 -336h-217l-146 203l-145 -203h-217z" />
    <glyph glyph-name="cdotaccent.sc" unicode="&#xf674;" horiz-adv-x="1226" 
d="M78 532q0 248 155 403t416 155q205 0 342 -106.5t168 -281.5h-258q-25 77 -87 121.5t-163 44.5q-138 0 -219.5 -92t-81.5 -244q0 -151 81.5 -243t219.5 -92q189 0 250 165h258q-31 -174 -168 -280.5t-346 -106.5q-174 0 -304 74t-196.5 199.5t-66.5 283.5zM528 1288v238
h242v-238h-242z" />
    <glyph glyph-name="dcaron.sc" unicode="&#xf675;" horiz-adv-x="1277" 
d="M166 0v1065h465q269 0 418 -146t149 -387q0 -237 -149.5 -384.5t-419.5 -147.5h-463zM600 856h-172v-647h172q86 0 151 26t102.5 71.5t56 102t18.5 123.5q0 68 -18.5 125t-56 102.5t-102.5 71t-151 25.5zM504 1229l-262 336h217l145 -203l146 203h217l-262 -336h-201z
" />
    <glyph glyph-name="dcroat.sc" unicode="&#xf676;" horiz-adv-x="1277" 
d="M8 459v147h158v459h465q269 0 418 -146t149 -387q0 -237 -149.5 -384.5t-419.5 -147.5h-463v459h-158zM600 856h-172v-250h213v-147h-213v-250h172q86 0 151 26t102.5 71.5t56 102t18.5 123.5q0 68 -18.5 125t-56 102.5t-102.5 71t-151 25.5z" />
    <glyph glyph-name="ebreve.sc" unicode="&#xf677;" horiz-adv-x="1138" 
d="M166 0v1065h850v-201h-588v-229h475v-191h-475v-243h606v-201h-868zM588 1241q-59 0 -111 16.5t-97 51t-74.5 97t-35.5 146.5h146q12 -78 56 -119.5t116 -41.5q70 0 115 42.5t57 118.5h145q-13 -162 -102 -236.5t-215 -74.5z" />
    <glyph glyph-name="ecaron.sc" unicode="&#xf678;" horiz-adv-x="1138" 
d="M166 0v1065h850v-201h-588v-229h475v-191h-475v-243h606v-201h-868zM487 1229l-262 336h217l146 -203l145 203h217l-262 -336h-201z" />
    <glyph glyph-name="edotaccent.sc" unicode="&#xf679;" horiz-adv-x="1138" 
d="M166 0v1065h850v-201h-588v-229h475v-191h-475v-243h606v-201h-868zM467 1288v238h242v-238h-242z" />
    <glyph glyph-name="emacron.sc" unicode="&#xf67a;" horiz-adv-x="1138" 
d="M166 0v1065h850v-201h-588v-229h475v-191h-475v-243h606v-201h-868zM279 1309v176h610v-176h-610z" />
    <glyph glyph-name="eng.sc" unicode="&#xf67b;" horiz-adv-x="1335" 
d="M166 0v1065h227l514 -645h8l-8 645h262v-1108q0 -224 -91 -316t-302 -92h-114v209h83q86 0 127 46t41 153v88l-485 600h-10l10 -645h-262z" />
    <glyph glyph-name="eogonek.sc" unicode="&#xf67c;" horiz-adv-x="1138" 
d="M166 0v1065h850v-201h-588v-229h475v-191h-475v-243h606v-201q-123 -129 -123 -215t105 -86h59v-150h-82q-254 0 -254 189q0 68 39 128.5t127 133.5h-739z" />
    <glyph glyph-name="gbreve.sc" unicode="&#xf67d;" horiz-adv-x="1333" 
d="M682 399v185h508v-584h-168l-21 111h-6q-116 -136 -336 -136q-172 0 -303.5 73.5t-200.5 199.5t-69 284q0 244 163 401t429 157q210 0 348 -103t164 -256h-264q-19 57 -83.5 99t-164.5 42q-146 0 -233 -94t-87 -246q0 -154 86.5 -249t233.5 -95q118 0 196 57.5t82 153.5
h-274zM678 1241q-59 0 -111 16.5t-97 51t-74.5 97t-35.5 146.5h146q12 -78 56 -119.5t116 -41.5q70 0 115 42.5t57 118.5h145q-13 -162 -102 -236.5t-215 -74.5z" />
    <glyph glyph-name="gcircumflex.sc" unicode="&#xf67e;" horiz-adv-x="1333" 
d="M682 399v185h508v-584h-168l-21 111h-6q-116 -136 -336 -136q-172 0 -303.5 73.5t-200.5 199.5t-69 284q0 244 163 401t429 157q210 0 348 -103t164 -256h-264q-19 57 -83.5 99t-164.5 42q-146 0 -233 -94t-87 -246q0 -154 86.5 -249t233.5 -95q118 0 196 57.5t82 153.5
h-274zM315 1229l263 336h200l262 -336h-217l-145 203l-146 -203h-217z" />
    <glyph glyph-name="gcommaaccent.sc" unicode="&#xf67f;" horiz-adv-x="1333" 
d="M682 399v185h508v-584h-168l-21 111h-6q-116 -136 -336 -136q-172 0 -303.5 73.5t-200.5 199.5t-69 284q0 244 163 401t429 157q210 0 348 -103t164 -256h-264q-19 57 -83.5 99t-164.5 42q-146 0 -233 -94t-87 -246q0 -154 86.5 -249t233.5 -95q118 0 196 57.5t82 153.5
h-274zM539 -125h241v-180l-102 -221h-109l72 194h-102v207z" />
    <glyph glyph-name="gdotaccent.sc" unicode="&#xf680;" horiz-adv-x="1333" 
d="M682 399v185h508v-584h-168l-21 111h-6q-116 -136 -336 -136q-172 0 -303.5 73.5t-200.5 199.5t-69 284q0 244 163 401t429 157q210 0 348 -103t164 -256h-264q-19 57 -83.5 99t-164.5 42q-146 0 -233 -94t-87 -246q0 -154 86.5 -249t233.5 -95q118 0 196 57.5t82 153.5
h-274zM557 1288v238h242v-238h-242z" />
    <glyph glyph-name="hbar.sc" unicode="&#xf681;" horiz-adv-x="1335" 
d="M20 786v146h146v133h262v-133h479v133h262v-133h146v-146h-146v-786h-262v428h-479v-428h-262v786h-146zM428 786v-141h479v141h-479z" />
    <glyph glyph-name="hcircumflex.sc" unicode="&#xf682;" horiz-adv-x="1335" 
d="M166 0v1065h262v-420h479v420h262v-1065h-262v428h-479v-428h-262zM305 1229l262 336h201l262 -336h-217l-145 203l-146 -203h-217z" />
    <glyph glyph-name="ibreve.sc" unicode="&#xf683;" horiz-adv-x="593" 
d="M166 0v1065h262v-1065h-262zM295 1241q-59 0 -111 16.5t-97 51t-74.5 97t-35.5 146.5h146q12 -78 56 -119.5t116 -41.5q70 0 115 42.5t57 118.5h145q-13 -162 -102 -236.5t-215 -74.5z" />
    <glyph glyph-name="ij.sc" unicode="&#xf684;" horiz-adv-x="1593" 
d="M166 0v1065h262v-1065h-262zM676 334v45h256v-51q0 -70 34 -107t95 -37q60 0 94.5 38.5t34.5 109.5v733h264v-700q0 -198 -104 -294t-289 -96q-179 0 -282 89t-103 270z" />
    <glyph glyph-name="imacron.sc" unicode="&#xf685;" horiz-adv-x="593" 
d="M166 0v1065h262v-1065h-262zM-14 1309v176h610v-176h-610z" />
    <glyph glyph-name="iogonek.sc" unicode="&#xf686;" horiz-adv-x="593" 
d="M166 0v1065h262v-1065h-2q-123 -129 -123 -215t105 -86h59v-150h-82q-254 0 -254 189q0 68 39 128.5t127 133.5h-131z" />
    <glyph glyph-name="itilde.sc" unicode="&#xf687;" horiz-adv-x="593" 
d="M166 0v1065h262v-1065h-262zM-63 1268q2 119 56 186.5t154 67.5q52 0 111.5 -22.5t110 -45t82.5 -22.5q36 0 55 28.5t22 69.5h125q-3 -121 -57 -188.5t-154 -67.5q-53 0 -112 23t-109 46t-82 23q-37 0 -56 -28.5t-22 -69.5h-124z" />
    <glyph glyph-name="jcircumflex.sc" unicode="&#xf688;" horiz-adv-x="991" 
d="M78 334v45h256v-55q0 -69 34 -104.5t95 -35.5t96 36.5t35 107.5v737h262v-700q0 -198 -104 -294t-289 -96q-179 0 -282 89t-103 270zM367 1229l262 336h200l263 -336h-218l-145 203l-145 -203h-217z" />
    <glyph glyph-name="kcommaaccent.sc" unicode="&#xf689;" horiz-adv-x="1228" 
d="M166 0v1065h262v-481l444 481h304l-441 -463l473 -602h-307l-336 426l-137 -145v-281h-262zM528 -125h242v-180l-102 -221h-109l72 194h-103v207z" />
    <glyph glyph-name="lacute.sc" unicode="&#xf68a;" horiz-adv-x="1007" 
d="M166 0v1065h262v-844h530v-221h-792zM201 1229l205 336h278l-303 -336h-180z" />
    <glyph glyph-name="lcaron.sc" unicode="&#xf68b;" horiz-adv-x="1007" 
d="M166 0v1065h262v-850h530v-215h-792zM664 662l69 196h-100v207h239v-180l-100 -223h-108z" />
    <glyph glyph-name="lcommaaccent.sc" unicode="&#xf68c;" horiz-adv-x="1007" 
d="M166 0v1065h262v-844h530v-221h-792zM442 -125h242v-180l-102 -221h-109l72 194h-103v207z" />
    <glyph glyph-name="ldot.sc" unicode="&#xf68d;" horiz-adv-x="1007" 
d="M166 0v1065h262v-850h530v-215h-792zM586 463v235h241v-235h-241z" />
    <glyph glyph-name="nacute.sc" unicode="&#xf68e;" horiz-adv-x="1335" 
d="M166 0v1065h227l514 -649h8l-8 649h262v-1065h-223l-518 649h-10l10 -649h-262zM575 1229l205 336h279l-303 -336h-181z" />
    <glyph glyph-name="ncaron.sc" unicode="&#xf68f;" horiz-adv-x="1335" 
d="M166 0v1065h227l514 -649h8l-8 649h262v-1065h-223l-518 649h-10l10 -649h-262zM567 1229l-262 336h217l146 -203l145 203h217l-262 -336h-201z" />
    <glyph glyph-name="ncommaaccent.sc" unicode="&#xf690;" horiz-adv-x="1335" 
d="M166 0v1065h227l514 -649h8l-8 649h262v-1065h-223l-518 649h-10l10 -649h-262zM547 -125h241v-180l-102 -221h-108l71 194h-102v207z" />
    <glyph glyph-name="obreve.sc" unicode="&#xf691;" horiz-adv-x="1331" 
d="M78 532q0 158 73.5 285t208 200t306.5 73q259 0 423 -158.5t164 -399.5q0 -242 -163 -399.5t-424 -157.5q-259 0 -423.5 158t-164.5 399zM350 532q0 -147 88 -241t228 -94q142 0 228.5 92.5t86.5 242.5q0 147 -87.5 241.5t-227.5 94.5q-141 0 -228.5 -93.5t-87.5 -242.5z
M666 1241q-59 0 -111 16.5t-97 51t-74.5 97t-35.5 146.5h146q12 -78 56 -119.5t116 -41.5q70 0 115 42.5t57 118.5h145q-13 -162 -102 -236.5t-215 -74.5z" />
    <glyph glyph-name="ohungarumlaut.sc" unicode="&#xf692;" horiz-adv-x="1331" 
d="M78 532q0 158 73.5 285t208 200t306.5 73q259 0 423 -158.5t164 -399.5q0 -242 -163 -399.5t-424 -157.5q-259 0 -423.5 158t-164.5 399zM350 532q0 -147 88 -241t228 -94q142 0 228.5 92.5t86.5 242.5q0 147 -87.5 241.5t-227.5 94.5q-141 0 -228.5 -93.5t-87.5 -242.5z
M776 1229l205 336h279l-304 -336h-180zM371 1229l204 336h277l-301 -336h-180z" />
    <glyph glyph-name="omacron.sc" unicode="&#xf693;" horiz-adv-x="1331" 
d="M78 532q0 158 73.5 285t208 200t306.5 73q259 0 423 -158.5t164 -399.5q0 -242 -163 -399.5t-424 -157.5q-259 0 -423.5 158t-164.5 399zM350 532q0 -147 88 -241t228 -94q142 0 228.5 92.5t86.5 242.5q0 147 -87.5 241.5t-227.5 94.5q-141 0 -228.5 -93.5t-87.5 -242.5z
M356 1309v176h611v-176h-611z" />
    <glyph glyph-name="oslashacute.sc" unicode="&#xf694;" horiz-adv-x="1331" 
d="M111 -25l133 156q-166 160 -166 401q0 158 73.5 285t208 200t306.5 73q174 0 319 -82l70 82h170l-135 -160q163 -154 163 -398q0 -242 -163 -399.5t-424 -157.5q-175 0 -318 78l-65 -78h-172zM350 532q0 -120 58 -206l421 497q-73 45 -163 45q-141 0 -228.5 -93.5
t-87.5 -242.5zM981 532q0 118 -57 203l-420 -497q71 -41 162 -41q142 0 228.5 92.5t86.5 242.5zM573 1229l205 336h279l-303 -336h-181z" />
    <glyph glyph-name="racute.sc" unicode="&#xf695;" horiz-adv-x="1230" 
d="M166 0v1065h543q194 0 298.5 -91t104.5 -251q0 -119 -59 -205.5t-168 -124.5l276 -393h-289l-247 367h-197v-367h-262zM678 864h-250v-299h250q82 0 124 41t42 113q0 67 -43.5 106t-122.5 39zM500 1229l205 336h278l-303 -336h-180z" />
    <glyph glyph-name="rcaron.sc" unicode="&#xf696;" horiz-adv-x="1230" 
d="M166 0v1065h543q194 0 298.5 -91t104.5 -251q0 -119 -59 -205.5t-168 -124.5l276 -393h-289l-247 367h-197v-367h-262zM678 864h-250v-299h250q82 0 124 41t42 113q0 67 -43.5 106t-122.5 39zM492 1229l-263 336h217l146 -203l145 203h217l-262 -336h-200z" />
    <glyph glyph-name="rcommaaccent.sc" unicode="&#xf697;" horiz-adv-x="1230" 
d="M166 0v1065h543q194 0 298.5 -91t104.5 -251q0 -119 -59 -205.5t-168 -124.5l276 -393h-289l-247 367h-197v-367h-262zM678 864h-250v-299h250q82 0 124 41t42 113q0 67 -43.5 106t-122.5 39zM510 -125h242v-180l-103 -221h-108l71 194h-102v207z" />
    <glyph glyph-name="sacute.sc" unicode="&#xf698;" horiz-adv-x="1134" 
d="M82 307h260q0 -70 58 -108.5t159 -38.5q102 0 159.5 35t57.5 104q0 39 -29 64.5t-76.5 36.5t-108.5 22t-124 19.5t-124 30t-108.5 52.5t-76.5 88.5t-29 135.5q0 152 123.5 247t343.5 95q211 0 327 -88t116 -236h-250q0 65 -54 102t-139 37q-92 0 -146 -32.5t-54 -98.5
q0 -45 37.5 -72.5t97.5 -40t132.5 -22.5t145 -27.5t132.5 -47.5t97.5 -90.5t37.5 -147.5q0 -163 -126.5 -257t-361.5 -94q-229 0 -353 88t-124 244zM475 1229l205 336h278l-303 -336h-180z" />
    <glyph glyph-name="scedilla.sc" unicode="&#xf699;" horiz-adv-x="1134" 
d="M455 -180l55 157q-207 9 -317.5 95.5t-110.5 234.5h260q0 -70 58 -108.5t159 -38.5q102 0 159.5 35t57.5 104q0 39 -29 64.5t-76.5 36.5t-108.5 22t-124 19.5t-124 30t-108.5 52.5t-76.5 88.5t-29 135.5q0 152 123.5 247t343.5 95q211 0 327 -88t116 -236h-250
q0 65 -54 102t-139 37q-92 0 -146 -32.5t-54 -98.5q0 -45 37.5 -72.5t97.5 -40t132.5 -22.5t145 -27.5t132.5 -47.5t97.5 -90.5t37.5 -147.5q0 -156 -114.5 -248t-330.5 -101v-55q89 -3 139 -52t50 -124q0 -88 -61 -142.5t-179 -54.5h-137v127h108q47 0 71.5 16.5t24.5 57.5
q0 70 -96 70h-67z" />
    <glyph glyph-name="scircumflex.sc" unicode="&#xf69a;" horiz-adv-x="1134" 
d="M82 307h260q0 -70 58 -108.5t159 -38.5q102 0 159.5 35t57.5 104q0 39 -29 64.5t-76.5 36.5t-108.5 22t-124 19.5t-124 30t-108.5 52.5t-76.5 88.5t-29 135.5q0 152 123.5 247t343.5 95q211 0 327 -88t116 -236h-250q0 65 -54 102t-139 37q-92 0 -146 -32.5t-54 -98.5
q0 -45 37.5 -72.5t97.5 -40t132.5 -22.5t145 -27.5t132.5 -47.5t97.5 -90.5t37.5 -147.5q0 -163 -126.5 -257t-361.5 -94q-229 0 -353 88t-124 244zM205 1229l262 336h201l262 -336h-217l-146 203l-145 -203h-217z" />
    <glyph glyph-name="scommaaccent.sc" unicode="&#xf69b;" horiz-adv-x="1134" 
d="M82 307h260q0 -70 58 -108.5t159 -38.5q102 0 159.5 35t57.5 104q0 39 -29 64.5t-76.5 36.5t-108.5 22t-124 19.5t-124 30t-108.5 52.5t-76.5 88.5t-29 135.5q0 152 123.5 247t343.5 95q211 0 327 -88t116 -236h-250q0 65 -54 102t-139 37q-92 0 -146 -32.5t-54 -98.5
q0 -45 37.5 -72.5t97.5 -40t132.5 -22.5t145 -27.5t132.5 -47.5t97.5 -90.5t37.5 -147.5q0 -163 -126.5 -257t-361.5 -94q-229 0 -353 88t-124 244zM438 -125h242v-180l-102 -221h-109l72 194h-103v207z" />
    <glyph glyph-name="tbar.sc" unicode="&#xf69c;" horiz-adv-x="1101" 
d="M49 850v215h1004v-215h-371v-324h285v-145h-285v-381h-262v381h-277v145h277v324h-371z" />
    <glyph glyph-name="tcaron.sc" unicode="&#xf69d;" horiz-adv-x="1101" 
d="M49 850v215h1004v-215h-371v-850h-262v850h-371zM449 1229l-263 336h217l146 -203l145 203h217l-262 -336h-200z" />
    <glyph glyph-name="tcommaaccent.sc" unicode="&#xf69e;" horiz-adv-x="1101" 
d="M451 -180l63 180h-94v850h-371v215h1004v-215h-371v-850h-84v-78q89 -3 138.5 -52t49.5 -124q0 -88 -60.5 -142.5t-178.5 -54.5h-137v127h108q47 0 71.5 16.5t24.5 57.5q0 70 -96 70h-67z" />
    <glyph glyph-name="ubreve.sc" unicode="&#xf69f;" horiz-adv-x="1269" 
d="M133 434v631h262v-625q0 -114 60.5 -177.5t177.5 -63.5q118 0 179.5 63.5t61.5 177.5v625h263v-631q0 -459 -504 -459q-114 0 -202 23.5t-156.5 75.5t-105 143t-36.5 217zM635 1241q-59 0 -111 16.5t-97 51t-74.5 97t-35.5 146.5h146q12 -78 56 -119.5t116 -41.5
q70 0 115 42.5t57 118.5h145q-13 -162 -102 -236.5t-215 -74.5z" />
    <glyph glyph-name="uhungarumlaut.sc" unicode="&#xf6a0;" horiz-adv-x="1269" 
d="M133 434v631h262v-625q0 -114 60.5 -177.5t177.5 -63.5q118 0 179.5 63.5t61.5 177.5v625h263v-631q0 -459 -504 -459q-114 0 -202 23.5t-156.5 75.5t-105 143t-36.5 217zM745 1229l205 336h279l-303 -336h-181zM340 1229l205 336h276l-301 -336h-180z" />
    <glyph glyph-name="umacron.sc" unicode="&#xf6a1;" horiz-adv-x="1269" 
d="M133 434v631h262v-625q0 -114 60.5 -177.5t177.5 -63.5q118 0 179.5 63.5t61.5 177.5v625h263v-631q0 -459 -504 -459q-114 0 -202 23.5t-156.5 75.5t-105 143t-36.5 217zM326 1309v176h610v-176h-610z" />
    <glyph glyph-name="uogonek.sc" unicode="&#xf6a2;" horiz-adv-x="1269" 
d="M514 -250q0 128 158 227q-6 0 -19.5 -1t-19.5 -1q-115 0 -203.5 23.5t-156.5 75.5t-104 142.5t-36 217.5v631h262v-625q0 -114 60.5 -177.5t177.5 -63.5q118 0 179.5 63.5t61.5 177.5v625h263v-631q0 -157 -56.5 -254t-162.5 -153q-111 -58 -168.5 -119t-57.5 -117
q0 -92 105 -92h61v-150h-82q-262 0 -262 201z" />
    <glyph glyph-name="uring.sc" unicode="&#xf6a3;" horiz-adv-x="1269" 
d="M133 434v631h262v-625q0 -114 60.5 -177.5t177.5 -63.5q118 0 179.5 63.5t61.5 177.5v625h263v-631q0 -459 -504 -459q-114 0 -202 23.5t-156.5 75.5t-105 143t-36.5 217zM635 1202q-93 0 -156 58.5t-63 148.5q0 92 63 150.5t156 58.5q91 0 155 -58.5t64 -150.5
q0 -90 -63 -148.5t-156 -58.5zM635 1311q40 0 69 28t29 70t-29 71t-69 29t-69 -29t-29 -71t29 -70t69 -28z" />
    <glyph glyph-name="utilde.sc" unicode="&#xf6a4;" horiz-adv-x="1269" 
d="M133 434v631h262v-625q0 -114 60.5 -177.5t177.5 -63.5q118 0 179.5 63.5t61.5 177.5v625h263v-631q0 -459 -504 -459q-114 0 -202 23.5t-156.5 75.5t-105 143t-36.5 217zM276 1268q2 119 56.5 186.5t154.5 67.5q52 0 111.5 -22.5t110 -45t82.5 -22.5q36 0 55 28.5
t22 69.5h125q-3 -121 -57 -188.5t-154 -67.5q-53 0 -112 23t-109 46t-82 23q-37 0 -56 -28.5t-22 -69.5h-125z" />
    <glyph glyph-name="wacute.sc" unicode="&#xf6a5;" horiz-adv-x="1660" 
d="M301 0l-276 1065h278l180 -793h9l225 793h239l228 -793h8l168 793h274l-274 -1065h-324l-198 723h-7l-202 -723h-328zM739 1229l205 336h279l-303 -336h-181z" />
    <glyph glyph-name="wcircumflex.sc" unicode="&#xf6a6;" horiz-adv-x="1660" 
d="M301 0l-276 1065h278l180 -793h9l225 793h239l228 -793h8l168 793h274l-274 -1065h-324l-198 723h-7l-202 -723h-328zM469 1229l262 336h201l262 -336h-217l-146 203l-145 -203h-217z" />
    <glyph glyph-name="wdieresis.sc" unicode="&#xf6a7;" horiz-adv-x="1660" 
d="M301 0l-276 1065h278l180 -793h9l225 793h239l228 -793h8l168 793h274l-274 -1065h-324l-198 723h-7l-202 -723h-328zM934 1288v238h242v-238h-242zM487 1288v238h240v-238h-240z" />
    <glyph glyph-name="wgrave.sc" unicode="&#xf6a8;" horiz-adv-x="1660" 
d="M301 0l-276 1065h278l180 -793h9l225 793h239l228 -793h8l168 793h274l-274 -1065h-324l-198 723h-7l-202 -723h-328zM743 1229l-303 336h277l207 -336h-181z" />
    <glyph glyph-name="ycircumflex.sc" unicode="&#xf6a9;" horiz-adv-x="1138" 
d="M434 0v401l-426 664h299l262 -428h6l275 428h280l-432 -657v-408h-264zM207 1229l262 336h201l262 -336h-217l-146 203l-145 -203h-217z" />
    <glyph glyph-name="ygrave.sc" unicode="&#xf6aa;" horiz-adv-x="1138" 
d="M434 0v401l-426 664h299l262 -428h6l275 428h280l-432 -657v-408h-264zM481 1229l-303 336h277l207 -336h-181z" />
    <glyph glyph-name="zacute.sc" unicode="&#xf6ab;" horiz-adv-x="1081" 
d="M92 852v213h907v-150l-561 -702h555v-213h-919v150l565 702h-547zM449 1229l204 336h279l-303 -336h-180z" />
    <glyph glyph-name="zdotaccent.sc" unicode="&#xf6ac;" horiz-adv-x="1081" 
d="M92 852v213h907v-150l-561 -702h555v-213h-919v150l565 702h-547zM420 1288v238h242v-238h-242z" />
    <glyph glyph-name="idotaccent.sc" unicode="&#xf6ad;" horiz-adv-x="593" 
d="M166 0v1065h262v-1065h-262zM174 1288v238h242v-238h-242z" />
    <glyph glyph-name="parenleft.cap" unicode="&#xf6ae;" horiz-adv-x="708" 
d="M440 -127q-121 158 -203.5 374.5t-82.5 457.5t82.5 457t203.5 374h240q-115 -164 -197 -381.5t-82 -449.5t82 -450t197 -382h-240z" />
    <glyph glyph-name="parenright.cap" unicode="&#xf6af;" horiz-adv-x="708" 
d="M29 -127q72 103 130.5 222t103 284.5t44.5 325.5q0 232 -81.5 449.5t-196.5 381.5h239q121 -159 204 -375t83 -456q0 -241 -83 -457.5t-204 -374.5h-239z" />
    <glyph glyph-name="bracketleft.cap" unicode="&#xf6b0;" horiz-adv-x="714" 
d="M154 -127v1663h530v-205h-291v-1253h291v-205h-530z" />
    <glyph glyph-name="bracketright.cap" unicode="&#xf6b1;" horiz-adv-x="714" 
d="M29 78h293v1253h-293v205h530v-1663h-530v205z" />
    <glyph glyph-name="braceleft.cap" unicode="&#xf6b2;" horiz-adv-x="786" 
d="M256 197v180q0 130 -46.5 182.5t-182.5 52.5v193q136 0 182.5 52.5t46.5 182.5v172q0 166 82 245t278 79h140v-201h-101q-93 0 -127 -35.5t-34 -128.5v-202q0 -103 -47 -164.5t-158 -91.5v-8q111 -30 158 -90t47 -162v-215q0 -93 34 -128.5t127 -35.5h101v-201h-140
q-196 0 -278 79t-82 245z" />
    <glyph glyph-name="braceright.cap" unicode="&#xf6b3;" horiz-adv-x="786" 
d="M29 74h102q92 0 126 35.5t34 128.5v215q0 102 47 162t158 90v8q-111 30 -158 91.5t-47 164.5v202q0 93 -34 128.5t-126 35.5h-102v201h141q196 0 278 -79t82 -245v-172q0 -130 47 -182.5t183 -52.5v-193q-136 0 -183 -52.5t-47 -182.5v-180q0 -166 -82 -245t-278 -79
h-141v201z" />
    <glyph glyph-name="exclamdown.cap" unicode="&#xf6b4;" horiz-adv-x="587" 
d="M158 1139v270h272v-270h-272zM150 0v385l69 604h152l67 -604v-385h-288z" />
    <glyph glyph-name="questiondown.cap" unicode="&#xf6b5;" horiz-adv-x="1058" 
d="M412 1139v270h272v-270h-272zM55 358q0 69 20.5 125t53 94t71.5 70t78.5 60.5t72 58t53 70.5t20.5 90v59h248v-49q0 -75 -19.5 -136t-50.5 -101t-68.5 -73t-75.5 -60t-69 -53.5t-50.5 -62.5t-19.5 -79q0 -79 55 -131t148 -52q118 0 176 67.5t58 170.5h252
q0 -90 -28.5 -168.5t-85 -143t-152.5 -102t-220 -37.5q-210 0 -338.5 102t-128.5 281z" />
    <glyph glyph-name="guillemotleft.cap" unicode="&#xf6b6;" horiz-adv-x="1150" 
d="M836 295l-291 418l291 417h215l-230 -417l230 -418h-215zM389 295l-291 418l291 417h217l-231 -417l231 -418h-217z" />
    <glyph glyph-name="guillemotright.cap" unicode="&#xf6b7;" horiz-adv-x="1150" 
d="M545 295l229 418l-229 417h215l291 -417l-291 -418h-215zM98 295l232 418l-232 417h215l293 -417l-293 -418h-215z" />
    <glyph glyph-name="guilsinglleft.cap" unicode="&#xf6b8;" horiz-adv-x="708" 
d="M393 295l-295 418l295 417h215l-229 -417l229 -418h-215z" />
    <glyph glyph-name="guilsinglright.cap" unicode="&#xf6b9;" horiz-adv-x="708" 
d="M98 295l232 418l-232 417h215l295 -417l-295 -418h-215z" />
    <glyph glyph-name="hyphen.cap" unicode="&#xf6ba;" horiz-adv-x="811" 
d="M109 600v225h593v-225h-593z" />
    <glyph glyph-name="endash.cap" unicode="&#xf6bb;" horiz-adv-x="1138" 
d="M109 600v225h921v-225h-921z" />
    <glyph glyph-name="emdash.cap" unicode="&#xf6bc;" horiz-adv-x="1720" 
d="M109 600v225h1503v-225h-1503z" />
    <glyph glyph-name="periodcentered.cap" unicode="&#xf6bd;" horiz-adv-x="577" 
d="M143 575v275h283v-275h-283z" />
    <glyph glyph-name="dotlessj" unicode="&#xf6be;" horiz-adv-x="550" 
d="M143 -94v1093h265v-1112q0 -168 -79.5 -253t-271.5 -85h-84v205h54q64 0 90 36.5t26 115.5z" />
    <glyph glyph-name="space_uni0326" unicode="&#xf6c3;" horiz-adv-x="1200" 
d="M479 -125h242v-180l-103 -221h-108l72 194h-103v207z" />
    <glyph glyph-name="cent.inferior" unicode="&#xf6df;" 
d="M66 37q0 106 63 173.5t178 86.5v113h154v-113q102 -16 159 -73t64 -128h-201q-5 29 -30.5 50.5t-65.5 21.5q-55 0 -85 -33.5t-30 -97.5t30 -97.5t85 -33.5q40 0 65.5 22t30.5 52h201q-7 -72 -64 -130.5t-159 -74.5v-103h-154v105q-115 19 -178 86.5t-63 173.5z" />
    <glyph glyph-name="cent.superior" unicode="&#xf6e0;" 
d="M66 1364q0 106 63 173.5t178 86.5v113h154v-113q102 -16 159 -73t64 -128h-201q-5 29 -30.5 50.5t-65.5 21.5q-55 0 -85 -33.5t-30 -97.5t30 -97.5t85 -33.5q40 0 65.5 22t30.5 52h201q-7 -72 -64 -130.5t-159 -74.5v-103h-154v105q-115 19 -178 86.5t-63 173.5z" />
    <glyph glyph-name="comma.inferior" unicode="&#xf6e1;" horiz-adv-x="413" 
d="M106 -311v211h203v-203l-65 -252h-101l50 244h-87z" />
    <glyph glyph-name="comma.superior" unicode="&#xf6e2;" horiz-adv-x="413" 
d="M106 1016v211h203v-203l-65 -252h-101l50 244h-87z" />
    <glyph glyph-name="dollar.inferior" unicode="&#xf6e3;" 
d="M57 -106h189q3 -44 38.5 -69.5t90.5 -25.5q51 0 84 20.5t33 57.5q0 31 -31.5 49.5t-78 25.5t-101.5 20.5t-101.5 32t-78 63.5t-31.5 112q0 86 60 146t169 77v113h154v-113q98 -17 156.5 -71.5t64.5 -130.5h-195q-4 36 -33 57t-71 21q-48 0 -78.5 -18t-30.5 -56
q0 -28 23.5 -45.5t61 -27t82.5 -17t90 -21t82.5 -34.5t61 -61t23.5 -97q0 -97 -60 -155t-177 -71v-127h-154v127q-115 13 -177 70t-65 148z" />
    <glyph glyph-name="dollar.superior" unicode="&#xf6e4;" 
d="M57 1221h189q3 -44 38.5 -69.5t90.5 -25.5q51 0 84 20.5t33 57.5q0 31 -31.5 49.5t-78 25.5t-101.5 20.5t-101.5 32t-78 63.5t-31.5 112q0 86 60 146.5t169 77.5v112h154v-112q98 -17 156.5 -72t64.5 -131h-195q-4 36 -33 57t-71 21q-48 0 -78.5 -18t-30.5 -56
q0 -28 23.5 -45.5t61 -27t82.5 -17t90 -21t82.5 -34.5t61 -61t23.5 -97q0 -97 -60 -154.5t-177 -70.5v-127h-154v127q-115 13 -177 70t-65 147z" />
    <glyph glyph-name="hyphen.inferior" unicode="&#xf6e5;" horiz-adv-x="587" 
d="M70 -37v164h448v-164h-448z" />
    <glyph glyph-name="hyphen.superior" unicode="&#xf6e6;" horiz-adv-x="587" 
d="M70 1290v164h448v-164h-448z" />
    <glyph glyph-name="period.inferior" unicode="&#xf6e7;" horiz-adv-x="413" 
d="M106 -311v211h203v-211h-203z" />
    <glyph glyph-name="period.superior" unicode="&#xf6e8;" horiz-adv-x="413" 
d="M106 1016v211h203v-211h-203z" />
    <glyph glyph-name="a.superior" unicode="&#xf6e9;" horiz-adv-x="829" 
d="M70 1198q0 188 237 217l131 17q56 7 73 19.5t17 43.5q0 43 -28 70.5t-84 27.5q-116 0 -125 -108h-193q4 66 31.5 116t71.5 79t98 43t117 14q321 0 321 -269v-452h-200v84h-9q-65 -101 -221 -101q-114 0 -175.5 54t-61.5 145zM379 1141q65 0 107 38t42 117v54
q-17 -23 -63 -29l-92 -12q-94 -10 -94 -84q0 -40 26.5 -62t73.5 -22z" />
    <glyph glyph-name="b.superior" unicode="&#xf6ea;" horiz-adv-x="903" 
d="M94 1016v1057h211v-224q0 -122 -8 -233h6q63 123 236 123q128 0 215.5 -95.5t87.5 -269.5q0 -177 -93.5 -276t-226.5 -99q-85 0 -137 30t-82 91h-6v-104h-203zM305 1368q0 -94 44.5 -150.5t117.5 -56.5t116.5 58t43.5 155q0 92 -43.5 146.5t-116.5 54.5t-117.5 -56.5
t-44.5 -150.5z" />
    <glyph glyph-name="d.superior" unicode="&#xf6eb;" horiz-adv-x="903" 
d="M61 1362q0 90 27 163t72 119t102 70.5t119 24.5q87 0 138.5 -30.5t80.5 -92.5h6q-6 111 -6 244v213h209v-1057h-201v104h-8q-56 -121 -233 -121q-128 0 -217 95t-89 268zM279 1362q0 -92 43 -146.5t116 -54.5q69 0 113.5 51.5t48.5 137.5v18q0 94 -44.5 150.5
t-117.5 56.5q-74 0 -116.5 -57.5t-42.5 -155.5z" />
    <glyph glyph-name="e.superior" unicode="&#xf6ec;" horiz-adv-x="854" 
d="M61 1368q0 165 103 267t268 102q167 0 264 -95.5t97 -269.5v-49h-519q9 -85 53 -127.5t117 -42.5q112 0 138 76h198q-18 -101 -108.5 -164.5t-237.5 -63.5q-171 0 -272 98.5t-101 268.5zM432 1585q-125 0 -153 -135h296q-21 135 -143 135z" />
    <glyph glyph-name="i.superior" unicode="&#xf6ed;" horiz-adv-x="391" 
d="M84 1874v199h223v-199h-223zM90 1016v704h209v-704h-209z" />
    <glyph glyph-name="l.superior" unicode="&#xf6ee;" horiz-adv-x="399" 
d="M94 1016v1057h211v-1057h-211z" />
    <glyph glyph-name="m.superior" unicode="&#xf6ef;" horiz-adv-x="1320" 
d="M94 1016v704h203v-102h6q59 121 215 121q75 0 134.5 -33.5t90.5 -103.5q67 137 240 137q51 0 94 -15t79 -46t56.5 -85t20.5 -127v-450h-209v403q0 82 -29 117t-86 35q-65 0 -103 -46.5t-38 -135.5v-373h-207v401q0 154 -119 154q-62 0 -99.5 -47t-37.5 -135v-373h-211z
" />
    <glyph glyph-name="o.superior" unicode="&#xf6f0;" horiz-adv-x="882" 
d="M61 1368q0 169 103.5 270t275.5 101q177 0 279 -100.5t102 -270.5q0 -169 -103 -269t-278 -100q-176 0 -277.5 99.5t-101.5 269.5zM279 1368q0 -95 42.5 -151t118.5 -56q77 0 121.5 56t44.5 151q0 96 -44 151.5t-122 55.5q-76 0 -118.5 -56t-42.5 -151z" />
    <glyph glyph-name="r.superior" unicode="&#xf6f1;" horiz-adv-x="600" 
d="M94 1016v704h205v-133h8q60 152 182 152q54 0 99 -33l-37 -188q-38 22 -88 22q-78 0 -117 -66.5t-39 -168.5v-289h-213z" />
    <glyph glyph-name="s.superior" unicode="&#xf6f2;" horiz-adv-x="790" 
d="M57 1231h195q4 -46 43 -72t100 -26q58 0 93.5 19t35.5 56q0 36 -26.5 50.5t-81.5 23.5l-109 18q-120 18 -178.5 66.5t-58.5 140.5q0 110 90 171t235 61q142 0 227.5 -58.5t92.5 -162.5h-193q-15 86 -125 86q-57 0 -90 -19t-33 -51t23.5 -46.5t83.5 -25.5l108 -20
q60 -10 100.5 -22.5t75 -35t51.5 -59.5t17 -90q0 -117 -94 -176.5t-246 -59.5q-151 0 -239 58.5t-97 173.5z" />
    <glyph glyph-name="t.superior" unicode="&#xf6f3;" horiz-adv-x="557" 
d="M145 1266v286h-129v168h129v213h209v-213h168v-168h-168v-258q0 -57 19.5 -79.5t75.5 -22.5h73v-176h-102q-156 0 -215.5 54.5t-59.5 195.5z" />
    <glyph glyph-name="lslash.sc" unicode="&#xf6f9;" horiz-adv-x="1007" 
d="M59 225l-86 123l193 127v590h262v-416l213 144l84 -123l-297 -199v-256h530v-215h-792v295z" />
    <glyph glyph-name="oe.sc" unicode="&#xf6fa;" horiz-adv-x="1826" 
d="M647 0q-270 0 -419.5 146t-149.5 386q0 115 37.5 212t108.5 168.5t180 112t245 40.5h1051v-201h-588v-229h477v-191h-477v-243h608v-201h-1073zM350 532q0 -143 80 -233t248 -90h172v647h-172q-86 0 -151 -26t-102.5 -72t-56 -102.5t-18.5 -123.5z" />
    <glyph glyph-name="scaron.sc" unicode="&#xf6fd;" horiz-adv-x="1134" 
d="M82 307h260q0 -70 58 -108.5t159 -38.5q102 0 159.5 35t57.5 104q0 39 -29 64.5t-76.5 36.5t-108.5 22t-124 19.5t-124 30t-108.5 52.5t-76.5 88.5t-29 135.5q0 152 123.5 247t343.5 95q211 0 327 -88t116 -236h-250q0 65 -54 102t-139 37q-92 0 -146 -32.5t-54 -98.5
q0 -45 37.5 -72.5t97.5 -40t132.5 -22.5t145 -27.5t132.5 -47.5t97.5 -90.5t37.5 -147.5q0 -163 -126.5 -257t-361.5 -94q-229 0 -353 88t-124 244zM467 1229l-262 336h217l145 -203l146 203h217l-262 -336h-201z" />
    <glyph glyph-name="zcaron.sc" unicode="&#xf6ff;" horiz-adv-x="1081" 
d="M92 852v213h907v-150l-561 -702h555v-213h-919v150l565 702h-547zM440 1229l-262 336h217l146 -203l145 203h217l-262 -336h-201z" />
    <glyph glyph-name="exclam.sc" unicode="&#xf721;" horiz-adv-x="573" 
d="M211 334l-61 444v287h274v-287l-62 -444h-151zM158 0v244h258v-244h-258z" />
    <glyph glyph-name="ampersand.sc" unicode="&#xf726;" horiz-adv-x="1245" 
d="M80 281q0 55 19 101t55.5 81t77 61t94.5 51q-63 69 -86 120t-23 110q0 117 88 197.5t260 80.5q170 0 253 -70.5t83 -191.5q0 -52 -20 -95.5t-59 -77t-79 -57t-96 -48.5l230 -209q38 71 38 174v24h213v-30q0 -173 -98 -307l213 -195h-287l-69 61q-143 -86 -338 -86
q-231 0 -350 81t-119 225zM551 154q104 0 186 43l-288 258q-61 -32 -94 -68t-33 -84q0 -69 62 -109t167 -40zM438 813q0 -33 19 -66t67 -85q80 35 121 69.5t41 81.5q0 51 -33 81t-94 30q-54 0 -87.5 -30.5t-33.5 -80.5z" />
    <glyph glyph-name="zero.oldstyle" unicode="&#xf730;" horiz-adv-x="1249" 
d="M74 500q0 228 151 376t400 148q127 0 231.5 -40t173.5 -110t106.5 -166t37.5 -208q0 -229 -150 -377t-399 -148q-255 0 -403 147.5t-148 377.5zM338 500q0 -147 81.5 -233.5t205.5 -86.5t205 86.5t81 233.5q0 150 -80.5 234.5t-205.5 84.5q-124 0 -205.5 -86t-81.5 -233z
" />
    <glyph glyph-name="one.oldstyle" unicode="&#xf731;" horiz-adv-x="790" 
d="M133 520l-108 189l428 290h174v-999h-262v678z" />
    <glyph glyph-name="two.oldstyle" unicode="&#xf732;" horiz-adv-x="1071" 
d="M70 0q0 91 18 165.5t48.5 127t77.5 94.5t97 69t115 50l102 37q42 15 57 20.5t46 18.5t42.5 22.5t28 25t22 34t5.5 41.5q0 53 -43.5 92t-138.5 39q-97 0 -151 -50t-60 -143h-250q2 82 29.5 147.5t72 108.5t104.5 71.5t124 41t135 12.5q199 0 318.5 -86t119.5 -233
q0 -44 -11 -81.5t-21.5 -63t-42.5 -52.5t-45 -39t-61 -33.5t-59 -26t-67 -24.5q-7 -3 -10 -4l-105 -37q-185 -68 -190 -147h604v-197h-911z" />
    <glyph glyph-name="three.oldstyle" unicode="&#xf733;" horiz-adv-x="1140" 
d="M41 16h258q0 -119 69 -184t185 -65q114 0 184 61t70 162q0 100 -70 161.5t-184 61.5h-102v209h102q94 0 155.5 58.5t61.5 148.5q0 88 -60.5 141t-156.5 53q-98 0 -156.5 -56t-58.5 -161h-244q0 197 125.5 307.5t333.5 110.5q210 0 339.5 -104.5t129.5 -278.5
q0 -103 -61 -192.5t-152 -120.5v-9q118 -28 192 -121t74 -218q0 -193 -146.5 -303.5t-375.5 -110.5q-235 0 -373.5 114.5t-138.5 335.5z" />
    <glyph glyph-name="four.oldstyle" unicode="&#xf734;" horiz-adv-x="1161" 
d="M37 -49v168l686 895h217v-850h201v-213h-201v-361h-262v361h-641zM307 164h371v475z" />
    <glyph glyph-name="five.oldstyle" unicode="&#xf735;" horiz-adv-x="1099" 
d="M61 -33h258q12 -79 73.5 -137.5t168.5 -58.5q103 0 173.5 69.5t70.5 186.5q0 119 -69 189.5t-171 70.5q-77 0 -129 -33t-94 -92l-231 20l49 817h825v-217h-594l-22 -374h8q84 84 241 84q70 0 135 -17t122 -53.5t100 -89t67.5 -127.5t24.5 -164q0 -92 -26.5 -170
t-73.5 -133.5t-110 -94.5t-136.5 -58t-153.5 -19q-230 0 -359 107t-147 294z" />
    <glyph glyph-name="six.oldstyle" unicode="&#xf736;" horiz-adv-x="1198" 
d="M82 668q0 164 28.5 294t78 217.5t120 145.5t151 83.5t173.5 25.5q211 0 327 -104t136 -281h-256q-11 81 -62.5 130.5t-144.5 49.5q-264 0 -279 -473q40 66 126.5 105.5t193.5 39.5q91 0 172 -29.5t144.5 -84.5t100.5 -143.5t37 -197.5q0 -147 -71 -256t-183 -162
t-247 -53q-94 0 -173 21t-149 71.5t-118.5 129t-76.5 198t-28 273.5zM625 696q-113 0 -179.5 -73t-66.5 -191q0 -109 67.5 -180.5t174.5 -71.5q109 0 176 69.5t67 190.5q0 113 -67.5 184.5t-171.5 71.5z" />
    <glyph glyph-name="seven.oldstyle" unicode="&#xf737;" horiz-adv-x="1001" 
d="M131 -410l555 1182h-653v227h936v-161l-568 -1248h-270z" />
    <glyph glyph-name="eight.oldstyle" unicode="&#xf738;" horiz-adv-x="1175" 
d="M61 381q0 129 77 226t190 122v8q-91 28 -151 115t-60 195q0 177 130 282t341 105t341 -105t130 -282q0 -106 -60 -194t-151 -116v-8q113 -25 189.5 -122t76.5 -226q0 -192 -143.5 -299t-382.5 -107t-383 107t-144 299zM330 399q0 -101 70.5 -162t187.5 -61t187.5 61
t70.5 162q0 98 -72 161t-186 63t-186 -63t-72 -161zM588 831q96 0 158.5 57.5t62.5 147.5t-62.5 145.5t-158.5 55.5t-158.5 -55.5t-62.5 -145.5t62.5 -147.5t158.5 -57.5z" />
    <glyph glyph-name="nine.oldstyle" unicode="&#xf739;" horiz-adv-x="1189" 
d="M1108 336q0 -166 -27.5 -297.5t-76 -219t-118 -145.5t-150.5 -83t-177 -25q-211 0 -332 105.5t-133 279.5h256q10 -80 63.5 -130t145.5 -50q59 0 105 22.5t84 74.5t60 146.5t26 229.5q-38 -66 -125 -106t-193 -40q-91 0 -172.5 29.5t-145 84.5t-100.5 143.5t-37 197.5
q0 111 41.5 202t111.5 148.5t160 89t189 31.5q545 0 545 -688zM565 303q113 0 179.5 73t66.5 191q0 109 -68 180.5t-172 71.5q-109 0 -177 -69.5t-68 -190.5q0 -113 68.5 -184.5t170.5 -71.5z" />
    <glyph glyph-name="question.sc" unicode="&#xf73f;" horiz-adv-x="976" 
d="M354 334v33q0 59 17.5 106.5t45.5 77.5t61.5 54.5t67 43.5t61.5 37t45.5 42t17.5 54q0 54 -51 88.5t-136 34.5q-90 0 -139 -46.5t-49 -117.5h-240q0 70 25.5 131.5t76 111t135.5 78t195 28.5q197 0 316 -81t119 -225q0 -53 -18 -95.5t-47.5 -71t-64.5 -52t-70 -43.5
t-64.5 -40t-47.5 -48t-18 -61v-39h-238zM346 0v244h254v-244h-254z" />
    <glyph glyph-name="a.sc" unicode="&#xf761;" horiz-adv-x="1167" 
d="M12 0l418 1065h311l414 -1065h-278l-74 211h-449l-75 -211h-267zM578 825l-152 -417h307l-147 417h-8z" />
    <glyph glyph-name="b.sc" unicode="&#xf762;" horiz-adv-x="1247" 
d="M166 0v1065h582q178 0 269 -73t91 -206q0 -77 -43 -136t-133 -81v-6q105 -17 165 -86t60 -166q0 -138 -98 -224.5t-275 -86.5h-618zM735 455h-307v-265h307q72 0 111 37t39 99q0 59 -40 94t-110 35zM702 874h-274v-235h274q67 0 102.5 34.5t35.5 90.5q0 52 -34 81
t-104 29z" />
    <glyph glyph-name="c.sc" unicode="&#xf763;" horiz-adv-x="1226" 
d="M78 532q0 248 155 403t416 155q205 0 342 -106.5t168 -281.5h-258q-25 77 -87 121.5t-163 44.5q-138 0 -219.5 -92t-81.5 -244q0 -151 81.5 -243t219.5 -92q189 0 250 165h258q-31 -174 -168 -280.5t-346 -106.5q-174 0 -304 74t-196.5 199.5t-66.5 283.5z" />
    <glyph glyph-name="d.sc" unicode="&#xf764;" horiz-adv-x="1277" 
d="M166 0v1065h465q269 0 418 -146t149 -387q0 -237 -149.5 -384.5t-419.5 -147.5h-463zM600 856h-172v-647h172q86 0 151 26t102.5 71.5t56 102t18.5 123.5q0 68 -18.5 125t-56 102.5t-102.5 71t-151 25.5z" />
    <glyph glyph-name="e.sc" unicode="&#xf765;" horiz-adv-x="1138" 
d="M166 0v1065h850v-201h-588v-229h475v-191h-475v-243h606v-201h-868z" />
    <glyph glyph-name="f.sc" unicode="&#xf766;" horiz-adv-x="1077" 
d="M166 0v1065h829v-201h-567v-291h457v-194h-457v-379h-262z" />
    <glyph glyph-name="g.sc" unicode="&#xf767;" horiz-adv-x="1333" 
d="M682 399v185h508v-584h-168l-21 111h-6q-116 -136 -336 -136q-172 0 -303.5 73.5t-200.5 199.5t-69 284q0 244 163 401t429 157q210 0 348 -103t164 -256h-264q-19 57 -83.5 99t-164.5 42q-146 0 -233 -94t-87 -246q0 -154 86.5 -249t233.5 -95q118 0 196 57.5t82 153.5
h-274z" />
    <glyph glyph-name="h.sc" unicode="&#xf768;" horiz-adv-x="1335" 
d="M166 0v1065h262v-420h479v420h262v-1065h-262v428h-479v-428h-262z" />
    <glyph glyph-name="i.sc" unicode="&#xf769;" horiz-adv-x="593" 
d="M166 0v1065h262v-1065h-262z" />
    <glyph glyph-name="j.sc" unicode="&#xf76a;" horiz-adv-x="991" 
d="M78 334v45h256v-55q0 -69 34 -104.5t95 -35.5t96 36.5t35 107.5v737h262v-700q0 -198 -104 -294t-289 -96q-179 0 -282 89t-103 270z" />
    <glyph glyph-name="k.sc" unicode="&#xf76b;" horiz-adv-x="1228" 
d="M166 0v1065h262v-481l444 481h304l-441 -463l473 -602h-307l-336 426l-137 -145v-281h-262z" />
    <glyph glyph-name="l.sc" unicode="&#xf76c;" horiz-adv-x="1007" 
d="M166 0v1065h262v-844h530v-221h-792z" />
    <glyph glyph-name="m.sc" unicode="&#xf76d;" horiz-adv-x="1636" 
d="M166 0v1065h352l301 -721h4l307 721h343v-1065h-261l21 723h-8l-316 -723h-188l-309 723h-6l18 -723h-258z" />
    <glyph glyph-name="n.sc" unicode="&#xf76e;" horiz-adv-x="1335" 
d="M166 0v1065h227l514 -649h8l-8 649h262v-1065h-223l-518 649h-10l10 -649h-262z" />
    <glyph glyph-name="o.sc" unicode="&#xf76f;" horiz-adv-x="1331" 
d="M78 532q0 158 73.5 285t208 200t306.5 73q259 0 423 -158.5t164 -399.5q0 -242 -163 -399.5t-424 -157.5q-259 0 -423.5 158t-164.5 399zM350 532q0 -147 88 -241t228 -94q142 0 228.5 92.5t86.5 242.5q0 147 -87.5 241.5t-227.5 94.5q-141 0 -228.5 -93.5t-87.5 -242.5z
" />
    <glyph glyph-name="p.sc" unicode="&#xf770;" horiz-adv-x="1189" 
d="M166 0v1065h539q191 0 299 -101t108 -264q0 -166 -108 -268t-299 -102h-277v-330h-262zM670 864h-242v-334h242q84 0 129 45.5t45 122.5q0 75 -45 120.5t-129 45.5z" />
    <glyph glyph-name="q.sc" unicode="&#xf771;" horiz-adv-x="1331" 
d="M78 532q0 158 73.5 285t208 200t306.5 73q259 0 423 -158.5t164 -399.5q0 -242 -159 -395l202 -207l-161 -149l-230 235q-109 -41 -239 -41q-259 0 -423.5 158t-164.5 399zM350 532q0 -147 88 -241t228 -94q142 0 228.5 92.5t86.5 242.5q0 147 -87.5 241.5t-227.5 94.5
q-141 0 -228.5 -93.5t-87.5 -242.5z" />
    <glyph glyph-name="r.sc" unicode="&#xf772;" horiz-adv-x="1230" 
d="M166 0v1065h543q194 0 298.5 -91t104.5 -251q0 -119 -59 -205.5t-168 -124.5l276 -393h-289l-247 367h-197v-367h-262zM678 864h-250v-299h250q82 0 124 41t42 113q0 67 -43.5 106t-122.5 39z" />
    <glyph glyph-name="s.sc" unicode="&#xf773;" horiz-adv-x="1134" 
d="M82 307h260q0 -70 58 -108.5t159 -38.5q102 0 159.5 35t57.5 104q0 39 -29 64.5t-76.5 36.5t-108.5 22t-124 19.5t-124 30t-108.5 52.5t-76.5 88.5t-29 135.5q0 152 123.5 247t343.5 95q211 0 327 -88t116 -236h-250q0 65 -54 102t-139 37q-92 0 -146 -32.5t-54 -98.5
q0 -45 37.5 -72.5t97.5 -40t132.5 -22.5t145 -27.5t132.5 -47.5t97.5 -90.5t37.5 -147.5q0 -163 -126.5 -257t-361.5 -94q-229 0 -353 88t-124 244z" />
    <glyph glyph-name="t.sc" unicode="&#xf774;" horiz-adv-x="1101" 
d="M49 850v215h1004v-215h-371v-850h-262v850h-371z" />
    <glyph glyph-name="u.sc" unicode="&#xf775;" horiz-adv-x="1269" 
d="M133 434v631h262v-625q0 -114 60.5 -177.5t177.5 -63.5q118 0 179.5 63.5t61.5 177.5v625h263v-631q0 -459 -504 -459q-114 0 -202 23.5t-156.5 75.5t-105 143t-36.5 217z" />
    <glyph glyph-name="v.sc" unicode="&#xf776;" horiz-adv-x="1150" 
d="M410 0l-398 1065h283l280 -825h9l290 825h265l-398 -1065h-331z" />
    <glyph glyph-name="w.sc" unicode="&#xf777;" horiz-adv-x="1660" 
d="M301 0l-276 1065h278l180 -793h9l225 793h239l228 -793h8l168 793h274l-274 -1065h-324l-198 723h-7l-202 -723h-328z" />
    <glyph glyph-name="x.sc" unicode="&#xf778;" horiz-adv-x="1132" 
d="M12 0l400 545l-383 520h311l235 -338l226 338h299l-379 -518l399 -547h-299l-264 371l-254 -371h-291z" />
    <glyph glyph-name="y.sc" unicode="&#xf779;" horiz-adv-x="1138" 
d="M434 0v401l-426 664h299l262 -428h6l275 428h280l-432 -657v-408h-264z" />
    <glyph glyph-name="z.sc" unicode="&#xf77a;" horiz-adv-x="1081" 
d="M92 852v213h907v-150l-561 -702h555v-213h-919v150l565 702h-547z" />
    <glyph glyph-name="exclamdown.sc" unicode="&#xf7a1;" horiz-adv-x="573" 
d="M158 821v244h258v-244h-258zM150 0v287l61 444h151l62 -444v-287h-274z" />
    <glyph glyph-name="questiondown.sc" unicode="&#xf7bf;" horiz-adv-x="976" 
d="M623 731v-33q0 -59 -17.5 -106.5t-45.5 -77.5t-61.5 -54.5t-67 -43.5t-61.5 -37t-45.5 -42t-17.5 -54q0 -54 51 -88.5t136 -34.5q90 0 139 46.5t49 117.5h240q0 -70 -25.5 -131.5t-76.5 -111t-136 -78t-195 -28.5q-196 0 -315 81t-119 225q0 53 18.5 95.5t47.5 71
t64.5 52t71 43.5t64.5 40t47.5 48t18.5 61v39h236zM631 1065v-244h-254v244h254z" />
    <glyph glyph-name="agrave.sc" unicode="&#xf7e0;" horiz-adv-x="1167" 
d="M12 0l418 1065h311l414 -1065h-278l-74 211h-449l-75 -211h-267zM578 825l-152 -417h307l-147 417h-8zM496 1229l-303 336h276l207 -336h-180z" />
    <glyph glyph-name="aacute.sc" unicode="&#xf7e1;" horiz-adv-x="1167" 
d="M12 0l418 1065h311l414 -1065h-278l-74 211h-449l-75 -211h-267zM578 825l-152 -417h307l-147 417h-8zM492 1229l204 336h279l-303 -336h-180z" />
    <glyph glyph-name="acircumflex.sc" unicode="&#xf7e2;" horiz-adv-x="1167" 
d="M12 0l418 1065h311l414 -1065h-278l-74 211h-449l-75 -211h-267zM578 825l-152 -417h307l-147 417h-8zM221 1229l262 336h201l262 -336h-217l-145 203l-146 -203h-217z" />
    <glyph glyph-name="atilde.sc" unicode="&#xf7e3;" horiz-adv-x="1167" 
d="M12 0l418 1065h311l414 -1065h-278l-74 211h-449l-75 -211h-267zM578 825l-152 -417h307l-147 417h-8zM225 1268q2 119 56.5 186.5t154.5 67.5q52 0 111 -22.5t109.5 -45t82.5 -22.5q37 0 56 28.5t22 69.5h125q-3 -121 -57 -188.5t-154 -67.5q-53 0 -112 23t-109 46
t-82 23q-37 0 -56 -28.5t-22 -69.5h-125z" />
    <glyph glyph-name="adieresis.sc" unicode="&#xf7e4;" horiz-adv-x="1167" 
d="M12 0l418 1065h311l414 -1065h-278l-74 211h-449l-75 -211h-267zM578 825l-152 -417h307l-147 417h-8zM686 1288v238h242v-238h-242zM240 1288v238h239v-238h-239z" />
    <glyph glyph-name="aring.sc" unicode="&#xf7e5;" horiz-adv-x="1167" 
d="M12 0l418 1065h311l414 -1065h-278l-74 211h-449l-75 -211h-267zM578 825l-152 -417h307l-147 417h-8zM584 1202q-93 0 -156 58.5t-63 148.5q0 92 63 150.5t156 58.5q91 0 155 -58.5t64 -150.5q0 -90 -63 -148.5t-156 -58.5zM584 1311q40 0 69 28t29 70t-29 71t-69 29
t-69.5 -29t-29.5 -71t29 -70t70 -28z" />
    <glyph glyph-name="ae.sc" unicode="&#xf7e6;" horiz-adv-x="1861" 
d="M-8 0l799 1065h944v-201h-588v-229h477v-191h-477v-243h608v-201h-870v209h-451l-149 -209h-293zM877 825l-302 -419h310v419h-8z" />
    <glyph glyph-name="ccedilla.sc" unicode="&#xf7e7;" horiz-adv-x="1226" 
d="M541 -180l55 157q-241 17 -379.5 170.5t-138.5 384.5q0 248 155 403t416 155q205 0 342 -106.5t168 -281.5h-258q-25 77 -87 121.5t-163 44.5q-138 0 -219.5 -92t-81.5 -244q0 -151 81.5 -243t219.5 -92q189 0 250 165h258q-30 -166 -154.5 -270.5t-316.5 -114.5v-55
q89 -3 139 -52t50 -124q0 -88 -61 -142.5t-179 -54.5h-137v127h108q47 0 72 16.5t25 57.5q0 70 -97 70h-67z" />
    <glyph glyph-name="egrave.sc" unicode="&#xf7e8;" horiz-adv-x="1138" 
d="M166 0v1065h850v-201h-588v-229h475v-191h-475v-243h606v-201h-868zM500 1229l-303 336h276l207 -336h-180z" />
    <glyph glyph-name="eacute.sc" unicode="&#xf7e9;" horiz-adv-x="1138" 
d="M166 0v1065h850v-201h-588v-229h475v-191h-475v-243h606v-201h-868zM496 1229l204 336h279l-303 -336h-180z" />
    <glyph glyph-name="ecircumflex.sc" unicode="&#xf7ea;" horiz-adv-x="1138" 
d="M166 0v1065h850v-201h-588v-229h475v-191h-475v-243h606v-201h-868zM225 1229l262 336h201l262 -336h-217l-145 203l-146 -203h-217z" />
    <glyph glyph-name="edieresis.sc" unicode="&#xf7eb;" horiz-adv-x="1138" 
d="M166 0v1065h850v-201h-588v-229h475v-191h-475v-243h606v-201h-868zM690 1288v238h242v-238h-242zM244 1288v238h239v-238h-239z" />
    <glyph glyph-name="igrave.sc" unicode="&#xf7ec;" horiz-adv-x="593" 
d="M166 0v1065h262v-1065h-262zM207 1229l-303 336h276l207 -336h-180z" />
    <glyph glyph-name="iacute.sc" unicode="&#xf7ed;" horiz-adv-x="593" 
d="M166 0v1065h262v-1065h-262zM203 1229l205 336h278l-303 -336h-180z" />
    <glyph glyph-name="icircumflex.sc" unicode="&#xf7ee;" horiz-adv-x="593" 
d="M166 0v1065h262v-1065h-262zM-68 1229l263 336h200l262 -336h-217l-145 203l-145 -203h-218z" />
    <glyph glyph-name="idieresis.sc" unicode="&#xf7ef;" horiz-adv-x="593" 
d="M166 0v1065h262v-1065h-262zM397 1288v238h242v-238h-242zM-49 1288v238h239v-238h-239z" />
    <glyph glyph-name="eth.sc" unicode="&#xf7f0;" horiz-adv-x="1277" 
d="M8 459v147h158v459h465q269 0 418 -146t149 -387q0 -237 -149.5 -384.5t-419.5 -147.5h-463v459h-158zM600 856h-172v-250h213v-147h-213v-250h172q86 0 151 26t102.5 71.5t56 102t18.5 123.5q0 68 -18.5 125t-56 102.5t-102.5 71t-151 25.5z" />
    <glyph glyph-name="ntilde.sc" unicode="&#xf7f1;" horiz-adv-x="1335" 
d="M166 0v1065h227l514 -649h8l-8 649h262v-1065h-223l-518 649h-10l10 -649h-262zM309 1268q2 119 56.5 186.5t154.5 67.5q52 0 111 -22.5t109.5 -45t82.5 -22.5q37 0 56 28.5t22 69.5h125q-3 -121 -57 -188.5t-154 -67.5q-53 0 -112 23t-109 46t-82 23q-37 0 -56 -28.5
t-22 -69.5h-125z" />
    <glyph glyph-name="ograve.sc" unicode="&#xf7f2;" horiz-adv-x="1331" 
d="M78 532q0 158 73.5 285t208 200t306.5 73q259 0 423 -158.5t164 -399.5q0 -242 -163 -399.5t-424 -157.5q-259 0 -423.5 158t-164.5 399zM350 532q0 -147 88 -241t228 -94q142 0 228.5 92.5t86.5 242.5q0 147 -87.5 241.5t-227.5 94.5q-141 0 -228.5 -93.5t-87.5 -242.5z
M578 1229l-304 336h277l207 -336h-180z" />
    <glyph glyph-name="oacute.sc" unicode="&#xf7f3;" horiz-adv-x="1331" 
d="M78 532q0 158 73.5 285t208 200t306.5 73q259 0 423 -158.5t164 -399.5q0 -242 -163 -399.5t-424 -157.5q-259 0 -423.5 158t-164.5 399zM350 532q0 -147 88 -241t228 -94q142 0 228.5 92.5t86.5 242.5q0 147 -87.5 241.5t-227.5 94.5q-141 0 -228.5 -93.5t-87.5 -242.5z
M573 1229l205 336h279l-303 -336h-181z" />
    <glyph glyph-name="ocircumflex.sc" unicode="&#xf7f4;" horiz-adv-x="1331" 
d="M78 532q0 158 73.5 285t208 200t306.5 73q259 0 423 -158.5t164 -399.5q0 -242 -163 -399.5t-424 -157.5q-259 0 -423.5 158t-164.5 399zM350 532q0 -147 88 -241t228 -94q142 0 228.5 92.5t86.5 242.5q0 147 -87.5 241.5t-227.5 94.5q-141 0 -228.5 -93.5t-87.5 -242.5z
M303 1229l262 336h201l262 -336h-217l-145 203l-146 -203h-217z" />
    <glyph glyph-name="otilde.sc" unicode="&#xf7f5;" horiz-adv-x="1331" 
d="M78 532q0 158 73.5 285t208 200t306.5 73q259 0 423 -158.5t164 -399.5q0 -242 -163 -399.5t-424 -157.5q-259 0 -423.5 158t-164.5 399zM350 532q0 -147 88 -241t228 -94q142 0 228.5 92.5t86.5 242.5q0 147 -87.5 241.5t-227.5 94.5q-141 0 -228.5 -93.5t-87.5 -242.5z
M307 1268q2 119 56.5 186.5t154.5 67.5q52 0 111 -22.5t109.5 -45t82.5 -22.5q37 0 56 28.5t22 69.5h125q-3 -121 -57 -188.5t-154 -67.5q-53 0 -112 23t-109 46t-82 23q-37 0 -56 -28.5t-22 -69.5h-125z" />
    <glyph glyph-name="odieresis.sc" unicode="&#xf7f6;" horiz-adv-x="1331" 
d="M78 532q0 158 73.5 285t208 200t306.5 73q259 0 423 -158.5t164 -399.5q0 -242 -163 -399.5t-424 -157.5q-259 0 -423.5 158t-164.5 399zM350 532q0 -147 88 -241t228 -94q142 0 228.5 92.5t86.5 242.5q0 147 -87.5 241.5t-227.5 94.5q-141 0 -228.5 -93.5t-87.5 -242.5z
M768 1288v238h242v-238h-242zM322 1288v238h239v-238h-239z" />
    <glyph glyph-name="oslash.sc" unicode="&#xf7f8;" horiz-adv-x="1331" 
d="M111 -25l133 156q-166 160 -166 401q0 158 73.5 285t208 200t306.5 73q174 0 319 -82l70 82h170l-135 -160q163 -154 163 -398q0 -242 -163 -399.5t-424 -157.5q-175 0 -318 78l-65 -78h-172zM350 532q0 -120 58 -206l421 497q-73 45 -163 45q-141 0 -228.5 -93.5
t-87.5 -242.5zM981 532q0 118 -57 203l-420 -497q71 -41 162 -41q142 0 228.5 92.5t86.5 242.5z" />
    <glyph glyph-name="ugrave.sc" unicode="&#xf7f9;" horiz-adv-x="1269" 
d="M133 434v631h262v-625q0 -114 60.5 -177.5t177.5 -63.5q118 0 179.5 63.5t61.5 177.5v625h263v-631q0 -459 -504 -459q-114 0 -202 23.5t-156.5 75.5t-105 143t-36.5 217zM547 1229l-303 336h276l207 -336h-180z" />
    <glyph glyph-name="uacute.sc" unicode="&#xf7fa;" horiz-adv-x="1269" 
d="M133 434v631h262v-625q0 -114 60.5 -177.5t177.5 -63.5q118 0 179.5 63.5t61.5 177.5v625h263v-631q0 -459 -504 -459q-114 0 -202 23.5t-156.5 75.5t-105 143t-36.5 217zM543 1229l205 336h278l-303 -336h-180z" />
    <glyph glyph-name="ucircumflex.sc" unicode="&#xf7fb;" horiz-adv-x="1269" 
d="M133 434v631h262v-625q0 -114 60.5 -177.5t177.5 -63.5q118 0 179.5 63.5t61.5 177.5v625h263v-631q0 -459 -504 -459q-114 0 -202 23.5t-156.5 75.5t-105 143t-36.5 217zM272 1229l263 336h200l262 -336h-217l-145 203l-146 -203h-217z" />
    <glyph glyph-name="udieresis.sc" unicode="&#xf7fc;" horiz-adv-x="1269" 
d="M133 434v631h262v-625q0 -114 60.5 -177.5t177.5 -63.5q118 0 179.5 63.5t61.5 177.5v625h263v-631q0 -459 -504 -459q-114 0 -202 23.5t-156.5 75.5t-105 143t-36.5 217zM737 1288v238h242v-238h-242zM291 1288v238h239v-238h-239z" />
    <glyph glyph-name="yacute.sc" unicode="&#xf7fd;" horiz-adv-x="1138" 
d="M434 0v401l-426 664h299l262 -428h6l275 428h280l-432 -657v-408h-264zM477 1229l205 336h279l-304 -336h-180z" />
    <glyph glyph-name="thorn.sc" unicode="&#xf7fe;" horiz-adv-x="1189" 
d="M166 0v1065h262v-152h277q191 0 299 -100.5t108 -263.5q0 -166 -108 -268.5t-299 -102.5h-277v-178h-262zM670 711h-242v-332h242q84 0 129 45t45 121t-45 121t-129 45z" />
    <glyph glyph-name="ydieresis.sc" unicode="&#xf7ff;" horiz-adv-x="1138" 
d="M434 0v401l-426 664h299l262 -428h6l275 428h280l-432 -657v-408h-264zM672 1288v238h241v-238h-241zM225 1288v238h240v-238h-240z" />
    <glyph glyph-name="at.sc" horiz-adv-x="1720" 
d="M479 197q0 99 65.5 158.5t198.5 74.5l140 16q59 6 80.5 19t21.5 43q0 52 -32.5 82.5t-92.5 30.5q-123 0 -135 -117h-207q4 72 34 125.5t78.5 84.5t105.5 45.5t124 14.5q169 0 259.5 -74t90.5 -215v-227q0 -141 109 -141q67 0 110.5 72.5t43.5 228.5q0 163 -79 285.5
t-215.5 186.5t-310.5 64q-140 0 -257 -46t-196 -126t-123 -188.5t-44 -233.5q0 -126 42.5 -233.5t119.5 -185t190 -121t248 -43.5q209 0 317 100h195q-86 -113 -218 -173t-294 -60q-165 0 -306 55.5t-238 152t-151.5 228t-54.5 280.5q0 151 55 284t153.5 232t244 156.5
t317.5 57.5q216 0 387.5 -83.5t269 -237.5t97.5 -351q0 -113 -28.5 -198.5t-78.5 -136t-113 -75t-138 -24.5q-193 0 -246 114q-80 -118 -270 -118q-129 0 -199 59.5t-70 157.5zM821 129q67 0 115.5 39.5t48.5 120.5v65q-22 -22 -74 -28l-102 -13q-100 -14 -100 -92
q0 -42 30 -67t82 -25z" />
    <glyph glyph-name="fi.sc" horiz-adv-x="1671" 
d="M166 0v1065h829v-201h-567v-295h457v-194h-457v-375h-262zM1243 0v1065h262v-1065h-262z" />
    <glyph glyph-name="fl.sc" horiz-adv-x="2084" 
d="M166 0v1065h829v-201h-567v-295h457v-194h-457v-375h-262zM1243 0v1065h262v-844h531v-221h-793z" />
    <glyph glyph-name="t_t" horiz-adv-x="1380" 
d="M821 344v459h-379v-443q0 -80 29.5 -113.5t101.5 -33.5h76v-213h-119q-194 0 -272 77.5t-78 266.5v459h-184v196h184v304h262v-304h379v304h262v-304h248v-196h-248v-443q0 -79 32 -113t104 -34h112v-213h-160q-194 0 -272 77.5t-78 266.5z" />
    <glyph glyph-name="t_f" horiz-adv-x="1327" 
d="M821 0v803h-377v-443q0 -83 23.5 -115t93.5 -32h82v-213h-125q-192 0 -265 77t-73 267v459h-184v196h184v304h264v-304h377v119q0 196 90.5 288.5t294.5 92.5h142v-205h-99q-91 0 -127.5 -39.5t-36.5 -130.5v-125h230v-196h-230v-803h-264z" />
    <glyph glyph-name="caronquoteleft" horiz-adv-x="1200" 
d="M479 1163v180l103 224h106l-70 -197h103v-207h-242z" />
    <glyph glyph-name="caronquoteright" horiz-adv-x="1200" 
d="M510 1163l72 197h-103v207h242v-183l-103 -221h-108z" />
    <glyph glyph-name="slashedzero" horiz-adv-x="1163" 
d="M582 -25q-108 0 -195 37t-146 102t-98 157.5t-57 200t-18 233.5t18 233.5t57 200t98 157.5t146 101.5t195 36.5t195 -36.5t146 -101.5t98 -157.5t57 -200t18 -233.5t-18 -233.5t-57 -200t-98 -157.5t-146 -102t-195 -37zM338 705q0 -180 31 -304l352 754q-56 62 -139 62
q-125 0 -184.5 -127.5t-59.5 -384.5zM582 193q243 0 243 512q0 184 -30 301l-353 -754q56 -59 140 -59z" />
    <glyph glyph-name="zero.sc" horiz-adv-x="1032" 
d="M516 -25q-118 0 -206 43t-140 120.5t-77 175.5t-25 218t25 218.5t77 176t140 120.5t206 43q95 0 171 -28.5t127.5 -78.5t85.5 -121t49.5 -153t15.5 -177t-15.5 -177t-49.5 -152.5t-85.5 -120.5t-127.5 -78.5t-171 -28.5zM516 172q180 0 180 360q0 183 -43.5 272
t-136.5 89t-136.5 -89t-43.5 -272q0 -182 43.5 -271t136.5 -89z" />
    <glyph glyph-name="one.sc" horiz-adv-x="1032" 
d="M217 631l-100 176l407 258h166v-864h256v-201h-792v201h276v557z" />
    <glyph glyph-name="two.sc" horiz-adv-x="1032" 
d="M92 0q4 140 36 237t91 159.5t156 113.5l143 74q85 45 121.5 83t36.5 97q0 55 -40.5 92t-115.5 37q-80 0 -124.5 -42t-47.5 -124h-244q4 96 39.5 167.5t94.5 113.5t130.5 62t155.5 20q181 0 292.5 -85t111.5 -231q0 -116 -58.5 -193.5t-185.5 -144.5l-141 -76
q-93 -53 -125 -84.5t-35 -74.5h545v-201h-836z" />
    <glyph glyph-name="three.sc" horiz-adv-x="1032" 
d="M80 324h244q0 -88 50.5 -131t133.5 -43q85 0 135.5 40.5t50.5 120.5q0 75 -51 116.5t-133 41.5h-80v166h82q69 0 112.5 39.5t43.5 103.5t-42.5 102t-117.5 38q-70 0 -115 -39.5t-45 -108.5h-227q1 149 108.5 234.5t278.5 85.5q185 0 292 -79.5t107 -224.5q0 -79 -42 -140
t-117 -87v-8q94 -30 147 -98.5t53 -165.5q0 -150 -123.5 -231t-320.5 -81q-202 0 -313 86.5t-111 262.5z" />
    <glyph glyph-name="four.sc" horiz-adv-x="1032" 
d="M53 203v157l547 705h219v-668h150v-194h-150v-203h-256v203h-510zM293 397h270v355z" />
    <glyph glyph-name="five.sc" horiz-adv-x="1032" 
d="M88 287h252q9 -60 52.5 -94.5t123.5 -34.5q78 0 127 46.5t49 131.5q0 82 -48 128t-124 46q-108 0 -164 -94l-235 22l37 627h716v-205h-503l-17 -246h8q78 70 218 70q67 0 128.5 -19.5t114.5 -58.5t85 -107.5t32 -158.5q0 -117 -59 -201.5t-152.5 -124t-208.5 -39.5
q-389 0 -432 312z" />
    <glyph glyph-name="six.sc" horiz-adv-x="1032" 
d="M545 907q-42 0 -74 -14.5t-59.5 -49.5t-44.5 -100t-21 -159q32 45 100.5 72.5t145.5 27.5q55 0 106 -11.5t97.5 -38t81 -65.5t55 -97.5t20.5 -131.5q0 -114 -58.5 -198.5t-151.5 -125.5t-205 -41q-102 0 -182 27.5t-142.5 87.5t-95.5 165.5t-33 252.5q0 128 24.5 229
t66.5 166.5t101.5 108t125.5 60.5t143 18q180 0 275.5 -83t111.5 -221h-240q-23 121 -147 121zM532 506q-77 0 -124.5 -45.5t-47.5 -128.5q0 -80 47.5 -125t124.5 -45q78 0 125.5 45.5t47.5 128.5q0 80 -48 125t-125 45z" />
    <glyph glyph-name="seven.sc" horiz-adv-x="1032" 
d="M215 0l451 844h-576v221h864v-145l-467 -920h-272z" />
    <glyph glyph-name="eight.sc" horiz-adv-x="1032" 
d="M117 786q0 142 109.5 223t289.5 81t289.5 -81t109.5 -223q0 -78 -42 -139.5t-117 -87.5v-8q94 -30 147 -98.5t53 -165.5q0 -151 -120 -231.5t-320 -80.5t-320 80.5t-120 231.5q0 97 53 165.5t147 98.5v8q-75 26 -117 87.5t-42 139.5zM332 307q0 -74 51.5 -115.5
t132.5 -41.5t132.5 41.5t51.5 115.5q0 76 -52.5 119t-131.5 43t-131.5 -43t-52.5 -119zM356 778q0 -66 44.5 -104.5t115.5 -38.5t115.5 38.5t44.5 104.5q0 65 -45 104.5t-115 39.5t-115 -39.5t-45 -104.5z" />
    <glyph glyph-name="nine.sc" horiz-adv-x="1032" 
d="M492 158q56 0 94.5 25.5t65.5 99t32 198.5q-32 -45 -101 -72.5t-145 -27.5q-71 0 -133 19t-115 58.5t-83.5 108t-30.5 158.5q0 114 59 198.5t152 125.5t205 41q454 0 454 -533q0 -129 -23.5 -229.5t-64.5 -166t-99.5 -108t-124 -60.5t-142.5 -18q-179 0 -279.5 84
t-116.5 220h240q10 -52 48.5 -86.5t107.5 -34.5zM496 559q78 0 125 44.5t47 129.5q0 82 -47 126t-125 44t-123 -45.5t-45 -128.5q0 -80 46 -125t122 -45z" />
    <glyph glyph-name="slashedzero.sc" horiz-adv-x="1032" 
d="M516 -25q-118 0 -206 43t-140 120.5t-77 175.5t-25 218t25 218.5t77 176t140 120.5t206 43q95 0 171 -28.5t127.5 -78.5t85.5 -121t49.5 -153t15.5 -177t-15.5 -177t-49.5 -152.5t-85.5 -120.5t-127.5 -78.5t-171 -28.5zM336 532q0 -120 18 -200l254 530q-39 31 -92 31
q-93 0 -136.5 -89t-43.5 -272zM516 172q180 0 180 360q0 122 -18 201l-254 -530q39 -31 92 -31z" />
    <glyph glyph-name="currency.sc" horiz-adv-x="1032" 
d="M217 115l-117 114l121 123q-53 87 -53 180q0 97 55 179l-121 123l117 114l123 -125q76 45 174 45q96 0 172 -45l125 125l117 -114l-121 -123q55 -82 55 -179q0 -95 -55 -180l123 -123l-117 -114l-127 127q-73 -45 -172 -45q-98 0 -174 45zM516 354q75 0 122.5 48
t47.5 130t-47.5 130.5t-122.5 48.5t-122.5 -48.5t-47.5 -130.5t47.5 -130t122.5 -48z" />
    <glyph glyph-name="dollar.sc" horiz-adv-x="1032" 
d="M68 311h243q3 -71 56 -113t137 -42q82 0 129 35t47 96q0 54 -36.5 81t-117.5 48l-137 33q-45 12 -81 24.5t-78.5 38t-71 56.5t-47.5 81t-19 111q0 127 84.5 213t235.5 108v181h192v-181q136 -22 217.5 -101t89.5 -194h-239q-10 60 -54.5 91.5t-109.5 31.5
q-69 0 -112.5 -30t-43.5 -88q0 -49 35 -77.5t113 -47.5l135 -33q149 -36 227 -109.5t78 -206.5q0 -138 -88.5 -225.5t-247.5 -109.5v-187h-192v187q-161 19 -250 105.5t-94 223.5z" />
    <glyph glyph-name="cent.sc" horiz-adv-x="1032" 
d="M444 -25v160q-162 26 -255 134.5t-93 267.5q0 161 96 267.5t261 131.5v154h190v-156q136 -24 217.5 -106.5t91.5 -186.5h-247q-12 46 -53 79.5t-107 33.5q-94 0 -141.5 -60.5t-47.5 -156.5q0 -97 48 -159.5t137 -62.5q69 0 109 35.5t55 83.5h243q-9 -108 -91.5 -192.5
t-221.5 -108.5v-158h-191z" />
    <glyph glyph-name="Euro.sc" horiz-adv-x="1032" 
d="M23 389l28 98h94v101h-96l27 98h82q14 89 46.5 160t85 125.5t130 84t174.5 29.5q172 0 266 -87.5t119 -237.5h-231q-11 62 -48 97.5t-100 35.5q-149 0 -180 -207h278l-28 -98h-260v-101h249l-26 -98h-215q30 -217 182 -217q110 0 143 127h236q-31 -148 -125 -233.5
t-260 -85.5q-194 0 -302 110t-136 299h-133z" />
    <glyph glyph-name="yen.sc" horiz-adv-x="1032" 
d="M166 350v105h213l-361 610h293l215 -389h4l220 389h264l-357 -610h215v-105h-223v-102h223v-107h-223v-141h-252v141h-231v107h231v102h-231z" />
    <glyph glyph-name="sterling.sc" horiz-adv-x="1032" 
d="M131 489v129h131q-47 92 -47 173q0 139 91 219t259 80q154 0 236.5 -73.5t93.5 -213.5h-217q-11 112 -113 112q-52 0 -83 -29t-31 -87q0 -77 53 -181h252v-129h-197q19 -74 19 -124q0 -61 -27 -144q102 -71 158 -71q41 0 59 29t20 93h191q-5 -146 -60 -221.5t-182 -75.5
q-71 0 -130 32t-122 89q-87 -116 -229 -116q-102 0 -162.5 46.5t-60.5 133.5q0 90 60 142t161 52q51 0 106 -22q-3 79 -36 157h-193zM250 96q83 0 102 113q-51 33 -94 33q-40 0 -61 -21t-21 -53q0 -30 20 -51t54 -21z" />
    <glyph glyph-name="florin.sc" horiz-adv-x="1032" 
d="M127 381v141h205l30 260q20 166 103.5 237t234.5 71q147 0 226 -71.5t61 -205.5l-8 -61h-211l6 57q6 48 -11.5 76t-57.5 28t-59.5 -30.5t-27.5 -100.5l-30 -260h231v-141h-246l-47 -422q-18 -166 -102.5 -236.5t-237.5 -70.5q-146 0 -224 70t-60 204l8 62h211l-6 -58
q-6 -48 11.5 -75t57.5 -27t59 30t27 101l47 422h-190z" />
    <glyph glyph-name="zero.TOSF" horiz-adv-x="1163" 
d="M68 500q0 231 139.5 377.5t374.5 146.5q160 0 277.5 -68t177 -186t59.5 -270q0 -231 -139.5 -378t-374.5 -147q-240 0 -377 146t-137 379zM332 500q0 -148 69 -234t181 -86q111 0 180 87t69 233q0 152 -68 235.5t-181 83.5q-112 0 -181 -85.5t-69 -233.5z" />
    <glyph glyph-name="one.TOSF" horiz-adv-x="1163" 
d="M242 516l-105 176l445 307h168v-798h329v-201h-944v201h361v489z" />
    <glyph glyph-name="two.TOSF" horiz-adv-x="1163" 
d="M96 0q0 113 27.5 200.5t80 145.5t114 95t143.5 65l112 37q114 38 145 56q67 40 68 106q0 54 -48 92.5t-148 38.5q-107 0 -166.5 -50t-65.5 -143h-249q2 82 30.5 147.5t74 108.5t107.5 71.5t129 41t140 12.5q207 0 332 -84t125 -231q0 -36 -7 -68t-16 -56.5t-28.5 -47.5
t-33.5 -38t-43.5 -32t-46 -26t-52 -22.5t-51.5 -19t-54 -18.5l-113 -37q-194 -66 -199 -147h639v-197h-946z" />
    </font>
</defs>
</svg>
